<?xml version="1.0" standalone="no"?>
<!DOCTYPE svg PUBLIC "-//W3C//DTD SVG 1.1//EN" "http://www.w3.org/Graphics/SVG/1.1/DTD/svg11.dtd" >
<svg xmlns="http://www.w3.org/2000/svg" xmlns:xlink="http://www.w3.org/1999/xlink" version="1.1">
<metadata>
Created by FontForge 20161003 at Wed May 31 11:55:09 2017
 By www-data
Copyright (c) 2008 by G-Type Designed and digitized by Nick Cooke. All rights reserved.
</metadata>
<defs>
<font id="HouschkaProDemiBold" horiz-adv-x="600" >
  <font-face 
    font-family="HouschkaProDemiBold"
    font-weight="600"
    font-stretch="normal"
    units-per-em="1000"
    panose-1="2 0 5 3 0 0 0 2 0 3"
    ascent="760"
    descent="-240"
    x-height="455"
    cap-height="681"
    bbox="-158 -292.333 1288 983"
    underline-thickness="50"
    underline-position="-150"
    unicode-range="U+0020-FB06"
  />
<missing-glyph horiz-adv-x="500" 
d="M0 690h500v-690h-500v690zM250 301l-181 -249h361zM69 638l181 -249l180 249h-361zM218 345l-166 229v-458zM282 345l166 -229v458z" />
    <glyph glyph-name="ffj" unicode="ffj" horiz-adv-x="807" 
d="M636 374h-160v-362q0 -12 -13 -12h-78q-12 0 -12 12v362h-179v-362q0 -12 -13 -12h-78q-12 0 -12 12v362h-54q-5 0 -9 3.5t-4 8.5v57q0 5 4 8.5t9 3.5h54v52q0 92 40 133q36 39 100 39q75 0 133 -41q10 -8 5 -17l-23 -50q-6 -10 -19 -3q-34 24 -70 24q-33 0 -49 -21
q-14 -20 -14 -73v-43h179v59q0 76 34 120q42 55 128 55t144 -43q9 -9 5 -16l-26 -54q-7 -12 -19 -3q-43 29 -82 29q-42 0 -62 -25q-19 -23 -19 -73v-49h250q5 0 9 -3.5t4 -8.5v-443q0 -176 -102 -233q-12 -7 -23 4l-48 48q-11 11 0 19q39 25 54.5 65.5t15.5 114.5v356z" />
    <glyph glyph-name="fj" unicode="fj" horiz-adv-x="525" 
d="M194 374v-362q0 -12 -13 -12h-78q-12 0 -12 12v362h-54q-5 0 -9 3.5t-4 8.5v57q0 5 4 8.5t9 3.5h54v59q0 76 34 120q42 55 128 55t144 -43q9 -7 5 -16l-26 -54q-7 -12 -19 -3q-43 29 -82 29q-42 0 -62 -25q-19 -23 -19 -73v-49h250q5 0 9 -3.5t4 -8.5v-443
q0 -176 -102 -233q-11 -7 -24 4l-47 48q-12 10 0 19q38 26 54 66.5t16 113.5v356h-160z" />
    <glyph glyph-name="ff" unicode="ff" horiz-adv-x="637" 
d="M373 374h-179v-362q0 -12 -13 -12h-78q-12 0 -12 12v362h-54q-5 0 -9 3.5t-4 8.5v57q0 5 4 8.5t9 3.5h54v52q0 92 40 133q34 39 100 39q79 0 133 -41q10 -7 5 -17l-23 -50q-6 -10 -19 -3q-34 24 -70 24q-31 0 -49 -21q-14 -20 -14 -73v-43h179v62q0 91 43 134
q38 38 105 38q87 0 144 -43q10 -7 5 -16l-26 -54q-5 -12 -19 -3q-41 29 -81 29q-34 0 -51 -21t-17 -73v-53h117q5 0 9 -3.5t4 -8.5v-57q0 -5 -4 -8.5t-9 -3.5h-117v-362q0 -12 -13 -12h-78q-12 0 -12 12v362z" />
    <glyph glyph-name="fi" unicode="fi" horiz-adv-x="525" 
d="M275 602q-42 0 -62 -25q-19 -23 -19 -73v-49h250q5 0 9 -3.5t4 -8.5v-431q0 -12 -13 -12h-78q-12 0 -12 12v362h-160v-362q0 -12 -13 -12h-78q-12 0 -12 12v362h-54q-5 0 -9 3.5t-4 8.5v57q0 5 4 8.5t9 3.5h54v59q0 76 34 120q42 55 128 55t144 -43q9 -7 5 -16l-26 -54
q-7 -12 -19 -3q-43 29 -82 29z" />
    <glyph glyph-name="fl" unicode="fl" horiz-adv-x="525" 
d="M445 655q12 -6 12 -18v-625q0 -12 -12 -12h-78q-12 0 -12 12v557q0 9 -8 17q-28 18 -71 18q-82 0 -82 -103v-46h105q12 0 12 -12v-57q0 -12 -12 -12h-105v-362q0 -12 -13 -12h-78q-12 0 -12 12v362h-54q-5 0 -9 3.5t-4 8.5v57q0 5 4 8.5t9 3.5h54v63q0 172 186 172
q98 0 168 -35z" />
    <glyph glyph-name="ffi" unicode="ffi" horiz-adv-x="807" 
d="M373 374h-179v-362q0 -12 -13 -12h-78q-12 0 -12 12v362h-54q-5 0 -9 3.5t-4 8.5v57q0 5 4 8.5t9 3.5h54v52q0 92 40 133q34 39 100 39q79 0 133 -41q10 -7 5 -17l-23 -50q-6 -10 -19 -3q-34 24 -70 24q-31 0 -49 -21q-14 -20 -14 -73v-43h179v59q0 76 34 120
q42 55 128 55t144 -43q10 -8 5 -16l-26 -54q-7 -12 -19 -3q-43 29 -82 29q-42 0 -62 -25q-19 -23 -19 -73v-49h250q5 0 9 -3.5t4 -8.5v-431q0 -12 -13 -12h-78q-12 0 -12 12v362h-160v-362q0 -12 -13 -12h-78q-12 0 -12 12v362z" />
    <glyph glyph-name="ffl" unicode="ffl" horiz-adv-x="808" 
d="M257 592q-31 0 -49 -21q-14 -20 -14 -73v-43h179v63q0 172 187 172q97 0 167 -35q13 -6 13 -18v-625q0 -12 -13 -12h-78q-12 0 -12 12v557q0 10 -8 17q-28 18 -71 18q-82 0 -82 -103v-46h105q5 0 9 -3.5t4 -8.5v-57q0 -5 -4 -8.5t-9 -3.5h-105v-362q0 -12 -13 -12h-78
q-12 0 -12 12v362h-179v-362q0 -12 -13 -12h-78q-12 0 -12 12v362h-54q-5 0 -9 3.5t-4 8.5v57q0 5 4 8.5t9 3.5h54v52q0 92 40 133q34 39 100 39q79 0 133 -41q10 -7 5 -17l-23 -50q-6 -10 -19 -3q-34 24 -70 24z" />
    <glyph glyph-name=".notdef" horiz-adv-x="500" 
d="M0 690h500v-690h-500v690zM250 301l-181 -249h361zM69 638l181 -249l180 249h-361zM218 345l-166 229v-458zM282 345l166 -229v458z" />
    <glyph glyph-name=".null" horiz-adv-x="0" 
 />
    <glyph glyph-name="nonmarkingreturn" horiz-adv-x="333" 
 />
    <glyph glyph-name="space" unicode=" " horiz-adv-x="256" 
 />
    <glyph glyph-name="exclam" unicode="!" horiz-adv-x="296" 
d="M218 54q0 -26 -18.5 -44.5t-44.5 -18.5t-44.5 18.5t-18.5 44.5t18.5 44t44.5 18t44.5 -18t18.5 -44zM102 681h106q12 0 10 -13l-28 -448q0 -12 -12 -12h-46q-10 0 -12 12l-28 448q0 13 10 13z" />
    <glyph glyph-name="quotedbl" unicode="&#x22;" horiz-adv-x="323" 
d="M48 681h72q17 0 15 -20l-16 -180q-3 -18 -18 -18h-34q-17 0 -18 18l-16 180q-2 20 15 20zM203 681h72q17 0 15 -20l-17 -180q-1 -18 -17 -18h-35q-16 0 -17 18l-16 180q-2 20 15 20z" />
    <glyph glyph-name="numbersign" unicode="#" horiz-adv-x="679" 
d="M619 109h-149l-37 -176q-3 -12 -18 -12h-52q-17 0 -11 17l35 171h-164l-37 -176q-3 -12 -18 -12h-52q-14 0 -11 17l36 171h-129q-12 0 -12 12v57q0 12 12 12h146l34 159h-132q-4 0 -8 3.5t-4 8.5v57q0 12 12 12h149l37 176q3 13 18 13h52q15 0 11 -19l-36 -170h164
l38 176q3 13 18 13h51q15 0 12 -19l-37 -170h130q13 0 13 -12v-57q0 -5 -4 -8.5t-9 -3.5h-147l-33 -159h132q12 0 12 -12v-57q0 -12 -12 -12zM274 349l-33 -159h164l33 159h-164z" />
    <glyph glyph-name="dollar" unicode="$" 
d="M530 185q0 -91 -69 -145q-52 -40 -132 -48v-67q0 -12 -12 -12h-31q-12 0 -12 12v65q-113 5 -201 60q-10 7 -6 16l33 69q5 11 16 4q29 -18 47.5 -27.5t55.5 -20.5t73 -11q58 0 89 23q35 28 35 73q0 54 -81 86q-10 4 -75.5 24.5t-100.5 40.5q-87 49 -87 141q0 82 61 128
q53 42 141 46v70q0 13 12 13h31q5 0 8.5 -4t3.5 -9v-69q98 -4 171 -45q10 -4 5 -16l-33 -68q-6 -11 -16 -4q-77 44 -156 44q-62 0 -92 -25q-26 -19 -26 -57q0 -52 87 -80q20 -7 57.5 -18t68.5 -22t56 -27q79 -51 79 -140z" />
    <glyph glyph-name="percent" unicode="%" horiz-adv-x="673" 
d="M274 536q0 40 -28.5 68t-68.5 28t-68 -28t-28 -68t28 -68t68 -28t68.5 28t28.5 68zM331 536q0 -63 -45.5 -108t-107.5 -45q-63 0 -108 44.5t-45 108.5q0 63 45 108t108 45q62 0 107.5 -45t45.5 -108zM398 143q0 -41 28.5 -69t69.5 -28q40 0 67.5 28t27.5 69
q0 40 -27.5 68t-67.5 28q-41 0 -69.5 -28t-28.5 -68zM342 143q0 63 45.5 108t107.5 45q63 0 108 -45t45 -108t-45 -108t-108 -45t-108 45t-45 108zM93 15l420 655q7 11 18 11h41q7 0 9.5 -5t-1.5 -11l-420 -656q-6 -9 -18 -9h-41q-17 0 -8 15z" />
    <glyph glyph-name="ampersand" unicode="&#x26;" horiz-adv-x="672" 
d="M630 92q13 -3 13 -15v-76q0 -11 -14 -11q-70 0 -161 60q-77 -60 -189 -60q-103 0 -169.5 49.5t-66.5 148.5q0 114 144 191q-40 76 -40 141q0 73 45.5 115t126.5 42q75 0 117.5 -40.5t42.5 -104.5q0 -62 -40.5 -103t-117.5 -82q57 -94 134 -163q29 46 29 130q0 14 13 14
h73q12 0 12 -14q0 -111 -45 -183q50 -36 93 -39zM381 533q0 31 -16.5 48.5t-45.5 17.5q-31 0 -50 -21.5t-19 -57.5q0 -46 29 -96q102 53 102 109zM289 70q62 0 105 37q-95 82 -165 192q-82 -48 -82 -112q0 -58 38 -87t104 -30z" />
    <glyph glyph-name="quotesingle" unicode="'" horiz-adv-x="168" 
d="M48 681h72q17 0 15 -20l-16 -180q-3 -18 -18 -18h-34q-17 0 -18 18l-16 180q-2 20 15 20z" />
    <glyph glyph-name="parenleft" unicode="(" horiz-adv-x="307" 
d="M49 317q0 270 117 455q10 16 27 16h69q29 0 15 -27q-118 -208 -118 -444q0 -233 118 -443q7 -10 3 -18t-18 -8h-69q-17 0 -27 15q-117 185 -117 454z" />
    <glyph glyph-name="parenright" unicode=")" horiz-adv-x="307" 
d="M257 317q0 -269 -117 -454q-8 -15 -26 -15h-70q-28 0 -15 26q119 209 119 443q0 237 -119 444q-13 27 15 27h70q17 0 26 -16q117 -185 117 -455z" />
    <glyph glyph-name="asterisk" unicode="*" horiz-adv-x="427" 
d="M319 553l-66 -16l44 -53q17 -19 25 -29q20 -27 -4 -47q-25 -18 -47 9q-4 5 -10.5 15t-10.5 17l-37 59l-37 -59q-14 -24 -20 -32q-23 -26 -47 -9q-25 19 -4 47q7 10 24 29l45 53l-67 16l-37 9q-33 11 -23 41q9 30 43 19q14 -4 36 -13l63 -26l-5 69q-2 30 -2 38q0 35 31 35
q32 0 32 -35q0 -8 -2 -38l-5 -69l63 26q20 9 36 13q33 10 42 -19q11 -30 -23 -41q-5 -2 -17.5 -4.5t-19.5 -4.5z" />
    <glyph glyph-name="plus" unicode="+" horiz-adv-x="568" 
d="M332 583v-182h183q12 0 12 -12v-72q0 -13 -12 -13h-183v-182q0 -13 -12 -13h-72q-13 0 -13 13v182h-182q-12 0 -12 13v72q0 12 12 12h182v182q0 13 13 13h72q12 0 12 -13z" />
    <glyph glyph-name="comma" unicode="," horiz-adv-x="234" 
d="M188 26q1 -45 -31 -86t-77 -56q-13 -4 -18 4l-11 16q-5 10 4 18q42 30 42 52q0 11 -7.5 19t-17 13.5t-17 18t-7.5 30.5q0 27 17.5 43.5t46.5 16.5q74 0 76 -89z" />
    <glyph glyph-name="hyphen" unicode="-" horiz-adv-x="510" 
d="M407 237h-304q-12 0 -12 12v72q0 12 12 12h304q12 0 12 -12v-72q0 -12 -12 -12z" />
    <glyph glyph-name="period" unicode="." horiz-adv-x="218" 
d="M173 53q0 -26 -18 -44.5t-44 -18.5t-44.5 18.5t-18.5 44.5t18.5 44t44.5 18t44 -18t18 -44z" />
    <glyph glyph-name="slash" unicode="/" horiz-adv-x="391" 
d="M421 663l-334 -651q-5 -12 -18 -12h-87q-21 0 -11 18l333 650q6 13 19 13h86q9 0 12 -5.5t0 -12.5z" />
    <glyph glyph-name="zero" unicode="0" 
d="M555 340q0 -172 -65 -261t-190 -89t-190.5 89t-65.5 261t65.5 261t190.5 89t190 -89t65 -261zM444 340q0 129 -38 190q-36 58 -106 58q-69 0 -106 -58q-40 -65 -40 -190q0 -128 39 -190q37 -58 107 -58q69 0 106 58q38 61 38 190z" />
    <glyph glyph-name="one" unicode="1" 
d="M264 571l-141 -51q-17 -6 -17 12v71q0 13 12 18l166 60q13 6 27 6h52q13 0 13 -13v-577h136q13 0 13 -13v-72q0 -12 -13 -12h-394q-13 0 -13 12v72q0 13 13 13h146v474z" />
    <glyph glyph-name="two" unicode="2" 
d="M191 97h313q12 0 12 -13v-72q0 -12 -12 -12h-420q-13 0 -13 12v39q0 71 16.5 116t54.5 83q37 37 115 79.5t103 62.5q50 40 50 97q0 44 -27 74q-32 34 -92 34q-74 0 -158 -57q-15 -9 -20 3l-31 62q-5 10 5 17q103 68 213 68q106 0 168 -67q48 -54 48 -131q0 -94 -77 -160
q-35 -31 -108 -70.5t-101 -64.5q-39 -35 -39 -100z" />
    <glyph glyph-name="three" unicode="3" 
d="M241 304h-37q-12 0 -12 13v63q0 12 12 12h30q59 0 95 22q43 28 43 84q0 44 -33 74q-30 25 -73 25q-69 0 -135 -46q-13 -9 -20 2l-30 59q-5 13 5 19q90 59 188 59q81 0 135 -44q63 -51 63 -135q0 -114 -104 -156q129 -42 129 -173q0 -92 -70 -145q-60 -47 -159 -47
q-113 0 -191 48q-10 8 -5 18l30 63q6 10 19 3q65 -44 139 -44q54 0 88 23q44 30 44 90q0 64 -55 95q-31 18 -96 18z" />
    <glyph glyph-name="four" unicode="4" horiz-adv-x="601" 
d="M444 0h-83q-12 0 -12 12v131h-301q-13 0 -13 13v63q0 10 8 22l304 431q8 12 23 12h74q13 0 13 -12v-437h91q13 0 13 -12v-67q0 -13 -13 -13h-91v-131q0 -12 -13 -12zM349 517l-195 -282h195v282z" />
    <glyph glyph-name="five" unicode="5" 
d="M90 317l26 351q2 13 12 13h353q13 0 13 -13v-72q0 -5 -4 -8.5t-9 -3.5h-270l-14 -174q17 15 49 24q28 11 61 11q106 0 165 -67q52 -60 52 -159q0 -94 -60 -159q-70 -70 -186 -70q-119 0 -195 60q-12 7 -6 18l30 63q5 11 16 4q38 -30 71 -43.5t84 -13.5q63 0 101 40
q37 40 37 100q0 64 -34 101t-90 37q-45 0 -78 -21q-25 -17 -43 -42q-5 -9 -17 -6l-51 11q-13 2 -13 19z" />
    <glyph glyph-name="six" unicode="6" 
d="M309 336q-91 0 -139 -75q5 -79 29 -119q33 -58 108 -58q56 0 89 35.5t33 90.5q0 61 -33.5 93.5t-86.5 32.5zM60 311q0 176 68 273q73 106 209 106q55 0 104 -13q42 -11 78 -33q10 -6 5 -17l-32 -66q-5 -11 -19 -3q-31 17 -62 26q-38 11 -76 11q-83 0 -127 -77
q-34 -60 -34 -155q27 30 57 45q40 21 90 21q109 0 168 -68q48 -58 48 -148q0 -102 -68 -165q-64 -58 -163 -58q-115 0 -176 70q-70 79 -70 251z" />
    <glyph glyph-name="seven" unicode="7" 
d="M77 681h435q5 0 8.5 -4t3.5 -9v-63q0 -11 -6 -24l-263 -569q-6 -12 -20 -12h-91q-21 0 -11 20l205 421q16 33 79 143h-255v-89q0 -13 -13 -13h-72q-13 0 -13 13v173q0 13 13 13z" />
    <glyph glyph-name="eight" unicode="8" 
d="M439 185q0 43 -38.5 73t-105.5 55q-132 -47 -132 -128q0 -48 34 -79.5t103 -31.5t104 31t35 80zM413 515q0 45 -32.5 69t-79.5 24t-80 -20.5t-33 -65.5q0 -23 10 -42.5t30.5 -34t36 -22.5t41.5 -20q107 46 107 112zM398 359q35 -19 56 -32.5t45.5 -35.5t36 -50t11.5 -63
q0 -87 -65 -137.5t-182 -50.5q-118 0 -182.5 49.5t-64.5 136.5q0 69 42.5 111.5t108.5 71.5q-37 20 -60 37t-44 50.5t-21 74.5q0 83 63.5 126t156.5 43q55 0 103.5 -16t83.5 -56.5t35 -98.5q0 -42 -21 -75.5t-43.5 -49t-58.5 -35.5z" />
    <glyph glyph-name="nine" unicode="9" 
d="M428 420q-4 91 -41 133t-96 42q-55 0 -88.5 -36t-33.5 -90q0 -62 33 -94t87 -32q85 0 139 77zM538 368q0 -176 -68 -273q-73 -106 -209 -106q-55 0 -104 13q-42 11 -78 33q-10 6 -5 17l32 66q5 11 19 3q31 -17 62 -26q38 -11 76 -11q83 0 127 77q34 59 34 155
q-27 -30 -57 -45q-40 -21 -90 -21q-109 0 -168 68q-48 58 -48 148q0 102 68 165q64 58 163 58q115 0 176 -70q70 -79 70 -251z" />
    <glyph glyph-name="colon" unicode=":" horiz-adv-x="226" 
d="M176 53q0 -26 -18 -44.5t-44 -18.5t-44.5 18.5t-18.5 44.5t18.5 44t44.5 18t44 -18t18 -44zM176 401q0 -26 -18 -44.5t-44 -18.5t-44.5 18.5t-18.5 44.5t18.5 44t44.5 18t44 -18t18 -44z" />
    <glyph glyph-name="semicolon" unicode=";" horiz-adv-x="226" 
d="M182 401q0 -26 -18.5 -44.5t-44.5 -18.5t-44.5 18.5t-18.5 44.5t18.5 44t44.5 18t44.5 -18t18.5 -44zM192 26q1 -45 -31.5 -86t-76.5 -56q-12 -4 -19 4l-10 16q-7 10 4 18q14 10 19 14.5t13.5 15.5t8.5 22t-7.5 19t-17 13.5t-17 18t-7.5 30.5q0 27 18 43.5t47 16.5
q74 0 76 -89z" />
    <glyph glyph-name="less" unicode="&#x3c;" horiz-adv-x="622" 
d="M49 305v95q0 15 12 19l487 198q4 3 10.5 1t6.5 -10v-85q0 -14 -14 -20l-385 -150l385 -151q14 -4 14 -20v-85q0 -8 -6.5 -10t-10.5 1l-487 199q-12 4 -12 18z" />
    <glyph glyph-name="equal" unicode="=" horiz-adv-x="568" 
d="M515 186h-462q-12 0 -12 12v72q0 13 12 13h462q12 0 12 -13v-72q0 -12 -12 -12zM515 422h-462q-12 0 -12 12v72q0 13 12 13h462q12 0 12 -13v-72q0 -12 -12 -12z" />
    <glyph glyph-name="greater" unicode="&#x3e;" horiz-adv-x="624" 
d="M573 400v-95q0 -13 -12 -18l-487 -199q-17 -7 -17 9v85q0 16 13 20l385 151l-385 150q-13 6 -13 20v85q0 16 17 9l487 -198q12 -5 12 -19z" />
    <glyph glyph-name="question" unicode="?" horiz-adv-x="506" 
d="M252 599q-52 0 -92.5 -20t-85.5 -56q-10 -8 -16 4l-30 59q-5 10 6 17q96 87 223 87q95 0 152 -54q62 -54 62 -140q0 -53 -24.5 -89.5t-77.5 -73.5q-50 -35 -66.5 -62t-18.5 -68q-1 -13 -15 -13h-53q-11 0 -16 11q-9 19 -9 47q0 47 44 94q11 12 24 23t34 28t32 26
q41 35 41 77q0 48 -34 76q-30 27 -80 27zM301 53q0 -26 -18.5 -44.5t-44.5 -18.5t-44.5 18.5t-18.5 44.5t18.5 44t44.5 18t44.5 -18t18.5 -44z" />
    <glyph glyph-name="at" unicode="@" horiz-adv-x="801" 
d="M503 235v105q-100 -5 -148 -24q-57 -21 -57 -67q0 -33 26 -52q23 -19 65 -19q80 0 114 57zM425 26q72 0 139.5 15.5t105.5 37.5q13 8 18 -5l8 -23q3 -10 -6 -15q-44 -24 -119 -39.5t-146 -15.5q-165 0 -271 98.5t-106 259.5q0 145 109.5 248.5t263.5 103.5
q143 0 238 -81.5t95 -216.5q0 -106 -50.5 -182t-130.5 -76q-54 0 -62 48q-42 -50 -123 -50q-54 0 -94 26q-50 32 -50 92q0 80 103 111q54 17 156 22q0 55 -27 82q-28 27 -74 27q-56 0 -111 -35q-13 -7 -18 4l-11 22q-5 9 5 17q65 42 135 42q65 0 108 -38q47 -42 47 -124
v-166q0 -34 27 -34q47 0 85 55.5t38 154.5q0 117 -80.5 186t-205.5 69q-134 0 -230 -91t-96 -218q0 -140 93 -225.5t237 -85.5z" />
    <glyph glyph-name="A" unicode="A" horiz-adv-x="692" 
d="M622 402v-390q0 -12 -12 -12h-87q-13 0 -13 12v211h-328v-211q0 -12 -13 -12h-87q-12 0 -12 12v390q0 138 92 221q75 67 184 67q111 0 185 -67q91 -84 91 -221zM346 586q-72 0 -117 -47q-47 -52 -47 -142v-75h328v75q0 93 -46 142q-42 47 -118 47z" />
    <glyph glyph-name="B" unicode="B" horiz-adv-x="626" 
d="M581 183q0 -89 -66.5 -136t-160.5 -47h-271q-12 0 -12 12v656q0 5 3.5 9t8.5 4h215q100 0 157 -40q70 -48 70 -133q0 -108 -89 -148v-4q72 -14 108.5 -59t36.5 -114zM412 490q0 54 -42 81q-29 19 -71 19h-116v-199h106q50 0 76 13q47 24 47 86zM467 197q0 62 -54 88
q-30 16 -107 16h-123v-210h147q47 0 76 12q61 25 61 94z" />
    <glyph glyph-name="C" unicode="C" horiz-adv-x="657" 
d="M401 -10q-159 0 -258 96t-99 255q0 146 105 247.5t255 101.5q115 0 207 -51q13 -7 6 -17l-35 -73q-4 -11 -16 -5q-86 45 -165 45q-98 0 -169.5 -72.5t-71.5 -175.5q0 -109 70 -179.5t172 -70.5q88 0 168 46q10 6 16 -4l35 -75q5 -11 -6 -16q-97 -52 -214 -52z" />
    <glyph glyph-name="D" unicode="D" horiz-adv-x="740" 
d="M696 340q0 -204 -154 -291q-88 -49 -223 -49h-236q-12 0 -12 12v656q0 5 3.5 9t8.5 4h250q184 0 282 -106q81 -88 81 -235zM183 586v-492h127q97 0 158 32q114 58 114 214q0 110 -57 172q-68 74 -208 74h-134z" />
    <glyph glyph-name="E" unicode="E" horiz-adv-x="608" 
d="M83 681h476q12 0 12 -13v-74q0 -12 -12 -12h-376v-191h324q12 0 12 -12v-75q0 -12 -12 -12h-324v-193h376q12 0 12 -12v-75q0 -12 -12 -12h-476q-12 0 -12 12v656q0 5 3.5 9t8.5 4z" />
    <glyph glyph-name="F" unicode="F" horiz-adv-x="571" 
d="M183 292v-280q0 -12 -12 -12h-88q-12 0 -12 12v656q0 5 3.5 9t8.5 4h446q12 0 12 -13v-74q0 -12 -12 -12h-346v-191h299q12 0 12 -12v-75q0 -12 -12 -12h-299z" />
    <glyph glyph-name="G" unicode="G" horiz-adv-x="742" 
d="M404 690q115 0 207 -51q13 -7 6 -17l-35 -73q-4 -11 -16 -5q-90 45 -165 45q-100 0 -170.5 -72.5t-70.5 -175.5q0 -112 68 -181.5t173 -69.5q103 0 169 49v115h-171q-13 0 -13 12v74q0 13 13 13h265q5 0 8.5 -4t3.5 -9v-328q0 -12 -12 -12h-81q-13 0 -13 12v26
q-76 -48 -179 -48q-150 0 -248.5 93t-98.5 258q0 146 105 247.5t255 101.5z" />
    <glyph glyph-name="H" unicode="H" horiz-adv-x="725" 
d="M555 681h87q12 0 12 -13v-656q0 -12 -12 -12h-87q-13 0 -13 12v280h-359v-280q0 -12 -12 -12h-88q-12 0 -12 12v656q0 5 3.5 9t8.5 4h88q5 0 8.5 -4t3.5 -9v-276h359v276q0 13 13 13z" />
    <glyph glyph-name="I" unicode="I" horiz-adv-x="254" 
d="M83 681h88q5 0 8.5 -4t3.5 -9v-656q0 -12 -12 -12h-88q-12 0 -12 12v656q0 5 3.5 9t8.5 4z" />
    <glyph glyph-name="J" unicode="J" horiz-adv-x="523" 
d="M198 -10q-103 0 -182 65q-10 8 -4 18l41 68q7 11 17 3q61 -55 127 -55q67 0 105 38q40 40 40 128v413q0 13 12 13h87q13 0 13 -13v-422q0 -131 -78 -198q-68 -58 -178 -58z" />
    <glyph glyph-name="K" unicode="K" horiz-adv-x="632" 
d="M478 12l-231 290l-64 -65v-225q0 -12 -12 -12h-88q-12 0 -12 12v656q0 5 3.5 9t8.5 4h88q5 0 8.5 -4t3.5 -9v-288l274 288q10 13 25 13h110q9 0 11 -6t-4 -13l-273 -278l285 -363q6 -7 5 -14t-11 -7h-103q-15 0 -24 12z" />
    <glyph glyph-name="L" unicode="L" horiz-adv-x="538" 
d="M83 681h88q5 0 8.5 -4t3.5 -9v-569h319q12 0 12 -12v-75q0 -12 -12 -12h-419q-12 0 -12 12v656q0 5 3.5 9t8.5 4z" />
    <glyph glyph-name="M" unicode="M" horiz-adv-x="835" 
d="M764 668v-656q0 -12 -12 -12h-84q-12 0 -12 12v474l-185 -311q-7 -12 -20 -12h-63q-13 0 -20 12l-189 311v-474q0 -12 -12 -12h-84q-12 0 -12 12v656q0 5 3.5 9t8.5 4h89q16 0 22 -13l223 -376l223 376q8 13 23 13h89q12 0 12 -13z" />
    <glyph glyph-name="N" unicode="N" horiz-adv-x="741" 
d="M563 184v484q0 13 12 13h82q13 0 13 -13v-656q0 -12 -13 -12h-78q-14 0 -22 13l-379 483v-484q0 -12 -12 -12h-83q-12 0 -12 12v656q0 5 3.5 9t8.5 4h78q13 0 23 -13z" />
    <glyph glyph-name="O" unicode="O" horiz-adv-x="808" 
d="M764 339q0 -150 -105.5 -249.5t-254.5 -99.5t-254.5 100t-105.5 249q0 150 105.5 250.5t254.5 100.5t254.5 -100.5t105.5 -250.5zM645 339q0 103 -69.5 174.5t-171.5 71.5t-172 -71.5t-70 -174.5t70 -174t172 -71t171.5 71t69.5 174z" />
    <glyph glyph-name="P" unicode="P" horiz-adv-x="636" 
d="M487 450q0 73 -50 107q-37 26 -93 26h-161v-266h153q62 0 98 23q53 35 53 110zM83 681h276q98 0 160 -50q82 -64 82 -181q0 -121 -89 -186q-59 -45 -158 -45h-171v-207q0 -12 -12 -12h-88q-12 0 -12 12v656q0 5 3.5 9t8.5 4z" />
    <glyph glyph-name="Q" unicode="Q" horiz-adv-x="808" 
d="M782 -85q19 -2 9 -17l-39 -67q-6 -10 -20 -10q-15 0 -43 7t-70.5 21.5t-81 28t-98 35t-98.5 35.5q-13 5 -13 21v30q-123 22 -203.5 116.5t-80.5 223.5q0 150 105.5 250.5t254.5 100.5t254.5 -100.5t105.5 -250.5q0 -128 -79.5 -221.5t-200.5 -116.5q0 -8 10 -11
q179 -59 288 -75zM645 339q0 103 -69.5 174.5t-171.5 71.5t-172 -71.5t-70 -174.5t70 -174t172 -71t171.5 71t69.5 174z" />
    <glyph glyph-name="R" unicode="R" horiz-adv-x="652" 
d="M535 302q-35 -28 -81 -41l167 -240q13 -21 -6 -21h-97q-17 0 -24 13l-161 238h-150v-239q0 -12 -12 -12h-88q-12 0 -12 12v656q0 5 3.5 9t8.5 4h281q110 0 169 -42q80 -58 80 -173q0 -104 -78 -164zM354 586h-171v-241h162q70 0 105 21q49 29 49 99t-47 99q-33 22 -98 22
z" />
    <glyph glyph-name="S" unicode="S" horiz-adv-x="567" 
d="M278 -10q-133 0 -236 64q-11 6 -5 17l35 74q5 11 16 4q30 -19 51 -29.5t60 -22t78 -11.5q61 0 95 26q37 27 37 77q0 58 -86 91q-13 5 -81.5 27t-106.5 43q-94 53 -94 151q0 87 65 137q66 52 186 52q118 0 208 -50q10 -6 5 -17l-35 -73q-6 -11 -17 -5q-82 48 -167 48
q-66 0 -98 -27q-29 -23 -29 -60q0 -31 23.5 -50.5t69.5 -35.5q20 -7 62 -19t74.5 -24t58.5 -29q84 -53 84 -150t-74 -155q-67 -53 -179 -53z" />
    <glyph glyph-name="T" unicode="T" horiz-adv-x="581" 
d="M18 681h545q12 0 12 -13v-74q0 -12 -12 -12h-216v-570q0 -12 -13 -12h-87q-12 0 -12 12v570h-217q-12 0 -12 12v74q0 13 12 13z" />
    <glyph glyph-name="U" unicode="U" horiz-adv-x="723" 
d="M541 281v387q0 5 3.5 9t8.5 4h88q5 0 8.5 -4t3.5 -9v-399q0 -118 -64 -191q-79 -88 -228 -88q-148 0 -227 88q-64 73 -64 191v399q0 13 12 13h87q13 0 13 -13v-387q0 -88 42 -136q47 -54 136 -54q91 0 138 54q43 47 43 136z" />
    <glyph glyph-name="V" unicode="V" horiz-adv-x="653" 
d="M650 663l-260 -653q-5 -13 -20 -13h-92q-14 0 -19 13l-255 653q-7 18 10 18h92q15 0 20 -14l198 -530h2l201 530q6 14 20 14h93q15 0 10 -18z" />
    <glyph glyph-name="W" unicode="W" horiz-adv-x="1059" 
d="M877 248v420q0 13 13 13h87q12 0 12 -13v-421q0 -120 -65 -187q-69 -70 -192 -70q-66 0 -118 28q-54 29 -85 89q-30 -59 -84 -89q-52 -28 -118 -28q-123 0 -192 70q-65 67 -65 187v421q0 13 12 13h87q13 0 13 -13v-420q0 -74 36 -113q38 -41 110 -41q64 0 99 36
q46 46 46 135v403q0 13 13 13h87q12 0 12 -13v-403q0 -88 47 -135q34 -36 99 -36q72 0 109 41q37 39 37 113z" />
    <glyph glyph-name="X" unicode="X" horiz-adv-x="675" 
d="M409 342l261 -322q13 -20 -8 -20h-115q-13 0 -21 11l-188 244l-189 -244q-8 -11 -21 -11h-115q-10 0 -12.5 6t3.5 14l265 319l-260 322q-6 7 -3.5 13.5t11.5 6.5h115q13 0 21 -13l186 -238l181 238q10 13 21 13h117q9 0 11.5 -6.5t-3.5 -13.5z" />
    <glyph glyph-name="Y" unicode="Y" horiz-adv-x="635" 
d="M317 402l183 266q8 13 20 13h101q9 0 11.5 -6.5t-2.5 -13.5l-257 -370v-279q0 -12 -13 -12h-87q-12 0 -12 12v279l-256 370q-6 7 -3.5 13.5t12.5 6.5h99q14 0 21 -13z" />
    <glyph glyph-name="Z" unicode="Z" horiz-adv-x="594" 
d="M12 18l375 564h-353q-12 0 -12 12v74q0 13 12 13h525q13 0 13 -11q0 -4 -3 -8l-374 -563h372q12 0 12 -12v-75q0 -12 -12 -12h-545q-12 0 -12 10q0 6 2 8z" />
    <glyph glyph-name="bracketleft" unicode="[" horiz-adv-x="361" 
d="M318 -152h-237q-13 0 -13 12v915q0 13 13 13h237q5 0 8.5 -4t3.5 -9v-69q0 -4 -4 -8t-8 -4h-139v-752h139q5 0 8.5 -4t3.5 -9v-69q0 -12 -12 -12z" />
    <glyph glyph-name="backslash" unicode="\" horiz-adv-x="303" 
d="M122 664l181 -646q5 -18 -11 -18h-74q-17 0 -21 16l-181 647q-4 18 11 18h74q17 0 21 -17z" />
    <glyph glyph-name="bracketright" unicode="]" horiz-adv-x="361" 
d="M280 -153h-237q-5 0 -8.5 4t-3.5 9v69q0 12 12 12h139v753h-139q-12 0 -12 12v69q0 5 3.5 9t8.5 4h237q13 0 13 -13v-915q0 -13 -13 -13z" />
    <glyph glyph-name="asciicircum" unicode="^" horiz-adv-x="541" 
d="M245 718h50q13 0 20 -12l188 -291q4 -5 2 -11t-11 -6h-74q-11 0 -21 13l-129 202l-129 -202q-8 -13 -20 -13h-75q-8 0 -10.5 6t1.5 11l189 291q8 12 19 12z" />
    <glyph glyph-name="underscore" unicode="_" horiz-adv-x="471" 
d="M471 -147h-471q-13 0 -13 12v54q0 5 4 8.5t9 3.5h471q5 0 9 -3.5t4 -8.5v-54q0 -12 -13 -12z" />
    <glyph glyph-name="grave" unicode="`" horiz-adv-x="441" 
d="M136 764h70q10 0 17 -12l83 -160q9 -23 -7 -23h-52q-11 0 -19 12l-101 164q-4 6 -1.5 12.5t10.5 6.5z" />
    <glyph glyph-name="a" unicode="a" horiz-adv-x="481" 
d="M230 385q-57 0 -131 -40q-14 -8 -18 4l-22 50q-4 10 5 16q74 48 179 48q94 0 139 -50q38 -43 38 -122v-279q0 -12 -12 -12h-68q-12 0 -12 12v12h-4q-54 -34 -129 -34q-66 0 -109 34q-48 38 -48 103q0 81 88 117q63 25 191 34v12q0 47 -18 69q-21 26 -69 26zM227 65
q46 0 90 26v117q-181 -10 -181 -79q0 -31 26.5 -47.5t64.5 -16.5z" />
    <glyph glyph-name="b" unicode="b" horiz-adv-x="540" 
d="M81 1q-13 2 -13 15v652q0 13 13 13h78q12 0 12 -13v-226q51 21 111 21q100 0 158 -64q59 -62 59 -172q0 -96 -54 -156q-72 -81 -218 -81q-101 0 -146 11zM171 356v-277q25 -5 65 -5q85 0 128 54q30 38 30 99q0 70 -38 110q-36 39 -95 39q-47 0 -90 -20z" />
    <glyph glyph-name="c" unicode="c" horiz-adv-x="475" 
d="M293 76q57 0 103 28q13 9 19 -3l29 -54q4 -8 -6 -17q-58 -40 -148 -40q-122 0 -188 71q-61 63 -61 166q0 87 51 148q71 88 200 88q84 0 144 -42q10 -9 6 -17l-30 -56q-5 -12 -19 -3q-49 30 -100 30q-70 0 -111 -47q-36 -41 -36 -102q0 -66 39 -108t108 -42z" />
    <glyph glyph-name="d" unicode="d" horiz-adv-x="534" 
d="M316 86h47v277q-39 13 -80 13q-70 0 -109 -55q-28 -39 -28 -94q0 -64 39 -100q42 -41 131 -41zM453 0h-148q-130 0 -199 65q-65 59 -65 160q0 92 48 155q64 84 188 84q42 0 86 -13v217q0 13 12 13h78q13 0 13 -13v-656q0 -12 -13 -12z" />
    <glyph glyph-name="e" unicode="e" horiz-adv-x="524" 
d="M149 268h237q-3 48 -30 78q-32 35 -86 35q-59 0 -91 -37q-27 -32 -30 -76zM291 71q65 0 125 36q12 7 18 -3l27 -50q6 -9 -5 -16q-68 -48 -172 -48q-115 0 -180 70q-63 66 -63 173q0 99 64 166q61 64 166 64q114 0 171 -75q49 -64 43 -175q-2 -14 -14 -14h-322
q4 -51 34 -84q38 -44 108 -44z" />
    <glyph glyph-name="f" unicode="f" horiz-adv-x="355" 
d="M261 602q-33 0 -50 -21t-17 -73v-53h117q12 0 12 -12v-57q0 -12 -12 -12h-117v-362q0 -12 -13 -12h-78q-12 0 -12 12v362h-54q-5 0 -9 3.5t-4 8.5v57q0 5 4 8.5t9 3.5h54v62q0 91 43 134q36 38 105 38q87 0 144 -43q10 -7 5 -16l-26 -54q-5 -13 -19 -3q-41 29 -82 29z
" />
    <glyph glyph-name="g" unicode="g" horiz-adv-x="547" 
d="M256 -150q63 0 91 31q29 30 29 95v51q-51 -36 -123 -36q-92 0 -148 61q-64 66 -64 176q0 107 60 173q57 62 151 62q70 0 124 -42h3v22q0 12 12 12h75q5 0 9 -3.5t4 -8.5v-455q0 -116 -63 -172q-55 -51 -162 -51q-98 0 -172 49q-10 6 -5 16l30 59q6 10 18 3
q63 -42 131 -42zM265 77q66 0 111 37v220q-54 42 -109 42q-54 0 -87 -38q-34 -41 -34 -110q0 -76 34 -114q31 -37 85 -37z" />
    <glyph glyph-name="h" unicode="h" horiz-adv-x="565" 
d="M171 668v-274q50 70 148 70q85 0 132 -43q53 -47 53 -148v-261q0 -12 -12 -12h-78q-13 0 -13 12v236q0 72 -29 102q-26 26 -73 26q-70 0 -104 -60q-24 -44 -24 -106v-198q0 -12 -12 -12h-78q-13 0 -13 12v656q0 13 13 13h78q12 0 12 -13z" />
    <glyph glyph-name="i" unicode="i" horiz-adv-x="240" 
d="M68 443q0 5 4 8.5t9 3.5h78q12 0 12 -12v-431q0 -12 -12 -12h-78q-13 0 -13 12v431zM119 604q-25 0 -42.5 17.5t-17.5 42.5t17.5 42t42.5 17t42.5 -17t17.5 -42t-17.5 -42.5t-42.5 -17.5z" />
    <glyph glyph-name="j" unicode="j" horiz-adv-x="229" 
d="M179 663q0 -25 -17.5 -42.5t-42.5 -17.5t-42.5 17.5t-17.5 42.5t17.5 42.5t42.5 17.5t42.5 -17.5t17.5 -42.5zM68 17v425q0 13 13 13h78q5 0 8.5 -4t3.5 -9v-406q0 -107 -23 -172.5t-78 -96.5q-13 -7 -21 1l-52 52q-10 10 2 18q38 25 53.5 65.5t15.5 113.5z" />
    <glyph glyph-name="k" unicode="k" horiz-adv-x="512" 
d="M373 12l-145 183l-57 -52v-131q0 -12 -12 -12h-78q-13 0 -13 12v656q0 13 13 13h78q12 0 12 -13v-413l191 189q11 11 24 11h91q11 0 13 -7t-5 -14l-186 -173l194 -242q6 -6 4 -12.5t-13 -6.5h-90q-12 0 -21 12z" />
    <glyph glyph-name="l" unicode="l" horiz-adv-x="239" 
d="M68 668q0 13 13 13h78q12 0 12 -13v-656q0 -12 -12 -12h-78q-13 0 -13 12v656z" />
    <glyph glyph-name="m" unicode="m" horiz-adv-x="826" 
d="M171 226v-214q0 -12 -12 -12h-78q-13 0 -13 12v431q0 5 4 8.5t9 3.5h74q5 0 9 -3.5t4 -8.5v-31h3q44 51 123 51q54 0 94 -24q36 -22 52 -56q26 39 60 59q36 21 91 21q79 0 126 -44q48 -45 48 -139v-268q0 -12 -12 -12h-77q-13 0 -13 12v242q0 62 -26 94q-25 28 -70 28
q-52 0 -77 -41q-22 -36 -22 -105v-218q0 -12 -12 -12h-77q-13 0 -13 12v242q0 62 -26 94q-25 28 -70 28q-52 0 -77 -44q-22 -38 -22 -106z" />
    <glyph glyph-name="n" unicode="n" horiz-adv-x="565" 
d="M504 273v-261q0 -12 -12 -12h-79q-12 0 -12 12v236q0 72 -29 102q-26 26 -73 26q-70 0 -104 -60q-24 -44 -24 -106v-198q0 -12 -12 -12h-78q-13 0 -13 12v431q0 5 4 8.5t9 3.5h74q5 0 9 -3.5t4 -8.5v-49h3q50 70 148 70q85 0 132 -43q53 -47 53 -148z" />
    <glyph glyph-name="o" unicode="o" horiz-adv-x="569" 
d="M143 227q0 -63 39 -107q41 -44 103 -44q61 0 102 44q40 45 40 107t-40 107q-41 44 -102 44q-62 0 -103 -44q-39 -44 -39 -107zM41 227q0 103 71 171q71 66 173 66t173 -66q70 -67 70 -171q0 -108 -70 -172q-68 -65 -173 -65t-173 65q-71 65 -71 172z" />
    <glyph glyph-name="p" unicode="p" horiz-adv-x="537" 
d="M171 375v-286q31 -15 78 -15q65 0 104 38q40 37 40 115q0 69 -39 110q-43 43 -115 43q-33 0 -68 -5zM82 450q62 13 147 13q129 0 200 -68q67 -64 67 -168q0 -101 -56 -164q-66 -73 -181 -73q-54 0 -88 14v-225q0 -12 -12 -12h-78q-5 0 -9 3.5t-4 8.5v656q0 12 14 15z" />
    <glyph glyph-name="q" unicode="q" horiz-adv-x="535" 
d="M364 -221v261q-38 -50 -118 -50q-87 0 -143 56q-62 64 -62 178q0 98 56 160q70 79 210 79q83 0 145 -17q15 -5 15 -18v-649q0 -5 -4 -8.5t-9 -3.5h-78q-4 0 -8 3.5t-4 8.5zM364 224v150q-28 6 -66 6q-86 0 -126 -54q-29 -38 -29 -99q0 -73 33 -114q31 -39 86 -39
q102 0 102 150z" />
    <glyph glyph-name="r" unicode="r" horiz-adv-x="401" 
d="M274 372q-54 0 -78.5 -45t-24.5 -107v-208q0 -12 -12 -12h-78q-13 0 -13 12v431q0 5 4 8.5t9 3.5h74q5 0 9 -3.5t4 -8.5v-44h3q43 64 119 64q65 0 110 -37q10 -8 5 -17l-29 -60q-5 -11 -18 -3q-42 26 -84 26z" />
    <glyph glyph-name="s" unicode="s" horiz-adv-x="420" 
d="M197 70q79 0 79 51q0 20 -13.5 32t-40.5 25q-13 6 -49 19t-54 21q-75 35 -75 117q0 61 45 95t128 34t145 -34q11 -6 6 -16l-28 -57q-6 -10 -16 -4q-49 27 -101 27q-73 0 -73 -43q0 -18 12.5 -29t36.5 -22q10 -4 46.5 -17.5t54.5 -22.5q82 -40 82 -116q0 -63 -49 -101.5
t-131 -38.5q-98 0 -159 40q-9 6 -5 15l28 57q5 11 16 5q58 -37 115 -37z" />
    <glyph glyph-name="t" unicode="t" horiz-adv-x="373" 
d="M185 374v-205q0 -39 12 -62q17 -29 59 -29q38 0 73 27q13 9 19 -2l26 -56q5 -9 -5 -16q-57 -41 -139 -41q-78 0 -114 44q-34 41 -34 122v218h-51q-5 0 -9 3.5t-4 8.5v57q0 5 4 8.5t9 3.5h51v89q0 5 4 8.5t9 3.5h78q5 0 8.5 -4t3.5 -8v-89h142q5 0 8.5 -3.5t3.5 -8.5v-57
q0 -4 -3.5 -8t-8.5 -4h-142z" />
    <glyph glyph-name="u" unicode="u" horiz-adv-x="556" 
d="M61 194v249q0 12 12 12h78q5 0 9 -3.5t4 -8.5v-242q0 -46 15 -75q27 -48 99 -48t98 48q16 28 16 75v242q0 5 4 8.5t9 3.5h78q12 0 12 -12v-249q0 -82 -37 -131q-53 -73 -180 -73t-180 73q-37 49 -37 131z" />
    <glyph glyph-name="v" unicode="v" horiz-adv-x="475" 
d="M471 438l-172 -428q-5 -13 -20 -13h-90q-15 0 -19 13l-165 428q-4 5 -1.5 11t10.5 6h83q16 0 20 -14l121 -343h2l120 343q4 14 20 14h82q16 0 9 -17z" />
    <glyph glyph-name="w" unicode="w" horiz-adv-x="801" 
d="M740 443v-248q0 -84 -29 -132q-43 -73 -155 -73q-80 0 -122 42q-22 21 -33 42q-12 -22 -34 -42q-44 -42 -121 -42q-112 0 -156 73q-29 49 -29 132v248q0 12 12 12h78q5 0 9 -3.5t4 -8.5v-244q0 -50 15 -79q20 -40 75 -40q60 0 82 48q13 27 13 73v242q0 5 4 8.5t9 3.5h78
q12 0 12 -12v-242q0 -43 13 -73q22 -48 83 -48q53 0 75 40q16 29 16 79v244q0 12 12 12h77q12 0 12 -12z" />
    <glyph glyph-name="x" unicode="x" horiz-adv-x="505" 
d="M7 20l182 212l-173 203q-6 7 -4 13.5t12 6.5h98q11 0 20 -12l110 -140l112 140q9 12 20 12h94q10 0 12 -6.5t-4 -13.5l-173 -196l185 -219q6 -8 3.5 -14t-12.5 -6h-95q-12 0 -21 11l-121 150l-122 -150q-8 -11 -21 -11h-94q-10 0 -12 6t4 14z" />
    <glyph glyph-name="y" unicode="y" horiz-adv-x="506" 
d="M500 438l-177 -463q-39 -101 -89 -148q-68 -67 -183 -61q-10 0 -10 10v78q0 9 11 9q3 0 10.5 -0.5t14.5 -0.5q48 0 85 35q29 29 50 74l-207 467q-7 17 10 17h94q16 0 20 -14l136 -342l119 342q4 14 20 14h87q14 0 9 -17z" />
    <glyph glyph-name="z" unicode="z" horiz-adv-x="425" 
d="M403 0h-384q-10 0 -11 6t4 11l242 349h-225q-12 0 -12 12v65q0 5 3.5 8.5t8.5 3.5h374q8 0 10.5 -5.5t-1.5 -12.5l-241 -347h232q12 0 12 -13v-65q0 -12 -12 -12z" />
    <glyph glyph-name="braceleft" unicode="{" horiz-adv-x="350" 
d="M38 282v70q0 12 13 12h4q39 0 60 29q24 35 24 110l-4 123q0 74 34 112q41 48 135 48q15 0 15 -12v-57q0 -12 -13 -12q-39 0 -58 -25q-16 -23 -16 -71l3 -117q0 -85 -35 -127q-25 -32 -71 -48q45 -15 71 -48q35 -44 35 -127l-3 -117q0 -48 16 -71q18 -26 58 -26
q13 0 13 -12v-56q0 -13 -15 -13q-94 0 -135 48q-34 40 -34 113l4 122q0 76 -24 110q-20 29 -60 29h-4q-13 0 -13 13z" />
    <glyph glyph-name="bar" unicode="|" horiz-adv-x="246" 
d="M83 681h79q13 0 13 -13v-874q0 -12 -13 -12h-79q-12 0 -12 12v874q0 5 3.5 9t8.5 4z" />
    <glyph glyph-name="braceright" unicode="}" horiz-adv-x="350" 
d="M312 352v-70q0 -13 -13 -13h-4q-40 0 -60 -29q-24 -34 -24 -110l4 -122q0 -73 -34 -113q-41 -48 -135 -48q-15 0 -15 13v56q0 12 13 12q40 0 58 26q16 23 16 71l-3 117q0 83 35 127q26 33 71 48q-46 16 -71 48q-35 42 -35 127l3 117q0 48 -16 71q-19 25 -58 25
q-13 0 -13 12v57q0 12 15 12q94 0 135 -48q34 -38 34 -112l-4 -123q0 -75 24 -110q21 -29 60 -29h4q13 0 13 -12z" />
    <glyph glyph-name="asciitilde" unicode="~" horiz-adv-x="631" 
d="M425 205q-36 0 -67.5 14t-51 30.5t-45 30.5t-50.5 14q-67 0 -67 -67q0 -12 -14 -12h-68q-13 0 -13 12q0 78 42.5 121.5t113.5 43.5q36 0 68.5 -14t52 -30.5t45 -30.5t49.5 -14q67 0 67 66q0 13 13 13h69q12 0 12 -13q0 -78 -42.5 -121t-113.5 -43z" />
    <glyph glyph-name="nbspace" unicode="&#xa0;" 
 />
    <glyph glyph-name="exclamdown" unicode="&#xa1;" horiz-adv-x="285" 
d="M81 400q0 26 18.5 44.5t44.5 18.5t44.5 -18.5t18.5 -44.5t-18.5 -44t-44.5 -18t-44.5 18t-18.5 44zM197 -227h-106q-12 0 -10 13l28 448q0 12 12 12h46q10 0 12 -12l28 -448q0 -13 -10 -13z" />
    <glyph glyph-name="cent" unicode="&#xa2;" 
d="M328 545h31q5 0 8.5 -4t3.5 -9v-70q66 -6 122 -41q10 -8 5 -17l-30 -55q-5 -12 -18 -3q-49 30 -101 30q-69 0 -111 -47q-36 -41 -36 -102q0 -68 39 -110q40 -42 108 -42q56 0 104 28q12 8 18 -3l29 -53q5 -9 -5 -17q-46 -31 -124 -38v-70q0 -4 -3.5 -8t-8.5 -4h-31
q-12 0 -12 12v70q-100 7 -158 69q-61 64 -61 166q0 87 51 148q61 75 168 86v71q0 13 12 13z" />
    <glyph glyph-name="sterling" unicode="&#xa3;" 
d="M193 219q0 21 -7 51h-85q-12 0 -12 12v65q0 13 12 13h54q-26 71 -26 122q0 94 62 151q60 57 164 57q96 0 163 -40q10 -7 6 -17l-30 -60q-4 -11 -15 -5q-57 30 -115 30q-61 0 -95 -34q-33 -32 -33 -86q0 -47 26 -118h195q5 0 8.5 -4t3.5 -9v-65q0 -4 -3.5 -8t-8.5 -4h-167
q5 -27 5 -46q0 -75 -46 -127h261q13 0 13 -13v-72q0 -12 -13 -12h-434q-13 0 -13 12v72q0 13 13 13h67q50 46 50 122z" />
    <glyph glyph-name="currency" unicode="&#xa4;" horiz-adv-x="696" 
d="M175 388q0 -72 51 -123.5t123 -50.5q72 -1 122.5 50.5t50.5 123.5q0 71 -50.5 121.5t-122.5 50.5t-123 -50.5t-51 -121.5zM53 156l84 86q-47 65 -47 146q0 84 48 147l-86 85q-7 9 0 18l47 46q8 10 18 0l85 -85q66 48 147 48q80 0 146 -48l85 87q10 8 18 0l47 -47
q7 -9 0 -18l-86 -85q49 -65 49 -148q0 -81 -48 -148l85 -85q9 -9 0 -18l-46 -47q-9 -7 -18 0l-86 87q-62 -48 -146 -48q-82 0 -148 48l-84 -85q-9 -9 -18 0l-46 46q-9 9 0 18z" />
    <glyph glyph-name="yen" unicode="&#xa5;" 
d="M70 209h172v78h-172q-12 0 -12 12v50q0 12 12 12h133l-193 302q-4 6 -2 12t11 6h101q15 0 21 -14l157 -265l158 265q7 14 21 14h102q9 0 11.5 -6.5t-1.5 -11.5l-195 -302h133q12 0 12 -12v-50q0 -12 -12 -12h-173v-78h173q12 0 12 -12v-50q0 -13 -12 -13h-173v-122
q0 -12 -12 -12h-87q-13 0 -13 12v122h-172q-12 0 -12 13v50q0 12 12 12z" />
    <glyph glyph-name="brokenbar" unicode="&#xa6;" horiz-adv-x="246" 
d="M83 681h79q13 0 13 -13v-366q0 -12 -13 -12h-79q-12 0 -12 12v366q0 5 3.5 9t8.5 4zM83 173h79q13 0 13 -13v-366q0 -12 -13 -12h-79q-12 0 -12 12v366q0 5 3.5 9t8.5 4z" />
    <glyph glyph-name="section" unicode="&#xa7;" horiz-adv-x="499" 
d="M235 -230q-91 0 -164 51q-9 6 -6 16l27 56q6 11 16 5q63 -47 122 -47q36 0 57 21q23 21 23 58q0 26 -16.5 51t-32.5 37.5t-56 38t-53 35.5q-104 76 -104 170q0 89 73 152q-40 45 -40 104q0 73 46 121q52 52 138 52q87 0 164 -50q10 -8 5 -17l-27 -56q-5 -11 -16 -4
q-65 46 -120 46q-41 0 -62 -24q-20 -18 -20 -55q0 -12 3.5 -23.5t7.5 -20.5t14 -20t16.5 -17.5t21.5 -17.5t22 -16t25.5 -17t24.5 -16q60 -39 93.5 -80.5t33.5 -103.5q0 -88 -73 -153q39 -44 39 -103q0 -74 -46 -120q-48 -53 -136 -53zM308 111q36 32 36 74q0 59 -70 109
q-13 9 -41.5 27.5t-42.5 28.5q-35 -33 -35 -74q0 -57 62 -105q15 -11 46.5 -31t44.5 -29z" />
    <glyph glyph-name="dieresis" unicode="&#xa8;" horiz-adv-x="441" 
d="M115 604q-25 0 -42.5 17.5t-17.5 42.5t17.5 42.5t42.5 17.5t43 -17.5t18 -42.5t-18 -42.5t-43 -17.5zM325 604q-25 0 -42.5 17.5t-17.5 42.5t17.5 42.5t42.5 17.5t42.5 -17.5t17.5 -42.5t-17.5 -42.5t-42.5 -17.5z" />
    <glyph glyph-name="copyright" unicode="&#xa9;" horiz-adv-x="828" 
d="M102 358q0 -130 90 -221t220 -91q129 0 219.5 91.5t90.5 220.5q0 130 -90 221.5t-219 91.5q-130 0 -220.5 -91.5t-90.5 -221.5zM781 358q0 -153 -107.5 -260t-260.5 -107q-154 0 -261.5 107t-107.5 260t107.5 261t260.5 108t261 -108t108 -261zM426 171q-84 0 -137 50
t-53 134q0 79 56.5 131.5t134.5 52.5q54 0 98 -21q14 -8 13 -15q0 -2 -10.5 -21t-11.5 -19q-5 -4 -18 3q-34 17 -73 17q-52 0 -89 -36.5t-37 -91.5q0 -57 36.5 -92.5t90.5 -35.5q41 0 75 16q14 5 18 2q1 0 10.5 -19.5t9.5 -21.5q3 -9 -10 -13q-47 -20 -103 -20z" />
    <glyph glyph-name="ordfeminine" unicode="&#xaa;" horiz-adv-x="290" 
d="M78 298h133q12 0 12 -13v-20q0 -12 -12 -12h-133q-12 0 -12 12v20q0 13 12 13zM143 453q29 0 52 16v71q-1 0 -11.5 -0.5t-14.5 -1t-14.5 -1.5t-15.5 -2.5t-14 -4t-13.5 -6t-10 -8t-7.5 -11t-2 -13.5q0 -17 15 -28t36 -11zM33 491q0 45 47 68q33 17 115 22v7q0 32 -17 47
q-12 10 -34 10q-34 0 -76 -24q-9 -5 -13 2l-11 24q-4 9 6 15q46 29 102 29q44 0 71 -21q33 -26 33 -91v-159q0 -12 -12 -12h-31q-12 0 -12 12v11h-3q-11 -9 -33 -17q-21 -6 -42 -6q-38 0 -64 22q-26 23 -26 61z" />
    <glyph glyph-name="guillemotleft" unicode="&#xab;" horiz-adv-x="615" 
d="M27 228q0 7 10 19l179 200q11 12 25 12h77q11 0 14 -7t-5 -16l-182 -208l182 -207q8 -10 5 -17t-14 -7h-77q-13 0 -25 13l-179 200q-10 10 -10 18zM283 228q0 7 10 19l180 200q10 12 25 12h76q11 0 14 -7t-5 -16l-182 -208l182 -207q8 -10 5 -17t-14 -7h-76q-15 0 -25 13
l-180 200q-10 10 -10 18z" />
    <glyph glyph-name="logicalnot" unicode="&#xac;" horiz-adv-x="573" 
d="M35 313v77q0 12 12 12h478q13 0 13 -12v-203q0 -12 -13 -12h-73q-12 0 -12 12v114h-393q-12 0 -12 12z" />
    <glyph glyph-name="uni00AD" unicode="&#xad;" horiz-adv-x="510" 
d="M103 333h304q12 0 12 -12v-72q0 -12 -12 -12h-304q-12 0 -12 12v72q0 12 12 12z" />
    <glyph glyph-name="registered" unicode="&#xae;" horiz-adv-x="459" 
d="M230 718q77 0 131 -54t54 -130t-54 -129.5t-131 -53.5t-131 53.5t-54 129.5t54 130t131 54zM230 381q64 0 108.5 45t44.5 108q0 65 -44.5 109.5t-108.5 44.5t-108.5 -44.5t-44.5 -109.5q0 -63 44.5 -108t108.5 -45zM306 569q0 -38 -43 -51l44 -59q8 -14 -7 -14h-14
q-10 0 -14 9l-43 59h-40v-58q0 -10 -10 -10h-13q-10 0 -10 10v161q0 10 10 10h72q30 0 49 -14t19 -43zM272 570q0 28 -38 28h-45v-57h44q39 0 39 29z" />
    <glyph glyph-name="macron" unicode="&#xaf;" horiz-adv-x="588" 
d="M101 694h239q12 0 12 -12v-60q0 -4 -4 -8t-8 -4h-239q-5 0 -9 3.5t-4 8.5v60q0 12 13 12z" />
    <glyph glyph-name="degree" unicode="&#xb0;" horiz-adv-x="370" 
d="M276 593q0 38 -26.5 64t-64.5 26t-64 -26t-26 -64t26 -64.5t64 -26.5t64.5 26.5t26.5 64.5zM320 593q0 -56 -39.5 -95t-95.5 -39t-95.5 39t-39.5 95t39.5 95.5t95.5 39.5t95.5 -39.5t39.5 -95.5z" />
    <glyph glyph-name="plusminus" unicode="&#xb1;" horiz-adv-x="568" 
d="M332 636v-182h183q12 0 12 -12v-72q0 -13 -12 -13h-183v-182q0 -13 -12 -13h-72q-13 0 -13 13v182h-182q-12 0 -12 13v72q0 12 12 12h182v182q0 13 13 13h72q12 0 12 -13zM53 97h462q12 0 12 -13v-72q0 -12 -12 -12h-462q-12 0 -12 12v72q0 13 12 13z" />
    <glyph glyph-name="twosuperior" unicode="&#xb2;" horiz-adv-x="417" 
d="M88 345v16q0 66 38 104q20 19 61 41t56 35q20 18 20 45q0 25 -18 40q-17 14 -43 14q-38 0 -78 -27q-11 -7 -16 4l-12 24q-5 10 6 18q53 32 104 32q52 0 84 -32q30 -28 30 -72q0 -47 -34 -78q-20 -19 -59.5 -40t-53.5 -34q-21 -20 -21 -49h156q12 0 12 -13v-28
q0 -12 -12 -12h-208q-12 0 -12 12z" />
    <glyph glyph-name="threesuperior" unicode="&#xb3;" horiz-adv-x="417" 
d="M183 490h-12q-12 0 -12 12v23q0 13 12 13h8q28 0 43 7q28 13 28 46q0 21 -14.5 35t-39.5 14q-31 0 -66 -20q-10 -6 -15 4l-11 23q-6 12 5 18q46 26 91 26q48 0 76 -27t28 -67q0 -56 -51 -79q64 -25 64 -89q0 -45 -32 -73t-89 -28q-50 0 -94 23q-10 5 -5 16l12 26
q6 10 16 3q31 -20 67 -20q33 0 50.5 15.5t17.5 41.5q0 37 -35 51q-16 6 -42 6z" />
    <glyph glyph-name="acute" unicode="&#xb4;" horiz-adv-x="441" 
d="M234 764h70q8 0 11 -6t-2 -13l-101 -164q-7 -12 -18 -12h-53q-17 0 -7 23l83 160q7 12 17 12z" />
    <glyph glyph-name="mu" unicode="&#xb5;" horiz-adv-x="556" 
d="M61 -161v604q0 12 12 12h78q5 0 9 -3.5t4 -8.5v-246q0 -46 15 -75q27 -48 99 -48t98 48q16 28 16 75v246q0 5 4 8.5t9 3.5h78q12 0 12 -12v-249q0 -82 -37 -131q-53 -73 -180 -73q-44 0 -75 12q-25 10 -39 32v-195q0 -5 -4 -8.5t-9 -3.5h-78q-12 0 -12 12z" />
    <glyph glyph-name="paragraph" unicode="&#xb6;" horiz-adv-x="676" 
d="M636 630h-106v-817q0 -13 -12 -13h-68q-5 0 -8.5 4t-3.5 9v817h-113v-817q0 -13 -13 -13h-67q-13 0 -13 13v498q-92 5 -144 59t-52 144q0 97 60 149.5t170 52.5h370q13 0 13 -12v-61q0 -13 -13 -13z" />
    <glyph glyph-name="periodcentered" unicode="&#xb7;" horiz-adv-x="225" 
d="M179 345q0 -28 -19 -47t-46 -19q-28 0 -47 19t-19 47q0 27 19 46t47 19q27 0 46 -19t19 -46z" />
    <glyph glyph-name="cedilla" unicode="&#xb8;" horiz-adv-x="454" 
d="M284 -112q0 -50 -41 -72t-96 -22q-23 0 -41 3q-10 2 -10 11v30q0 10 10 10q4 0 16 -1t21 -1q71 0 71 45q0 37 -59 37q-13 0 -23 -1l8 87h53v-46q42 -4 66.5 -25.5t24.5 -54.5z" />
    <glyph glyph-name="onesuperior" unicode="&#xb9;" horiz-adv-x="417" 
d="M184 625l-74 -26q-18 -6 -18 12v22q0 13 13 18l99 36q9 4 15 4h13q12 0 12 -13v-292h70q13 0 13 -13v-28q0 -12 -13 -12h-207q-13 0 -13 12v28q0 13 13 13h77v239z" />
    <glyph glyph-name="ordmasculine" unicode="&#xba;" horiz-adv-x="379" 
d="M106 550q0 -34 20 -60q23 -30 63 -30q43 0 64 30q20 25 20 60q0 34 -20 59q-22 30 -64 30q-40 0 -63 -30q-20 -25 -20 -59zM44 550q0 54 35 94q42 47 110 47t112 -47q34 -40 34 -94q0 -55 -34 -95q-44 -47 -112 -47t-110 47q-35 40 -35 95zM122 298h133q13 0 13 -13v-20
q0 -12 -13 -12h-133q-12 0 -12 12v20q0 5 3.5 9t8.5 4z" />
    <glyph glyph-name="guillemotright" unicode="&#xbb;" horiz-adv-x="615" 
d="M588 228q0 -7 -9 -18l-180 -200q-12 -13 -26 -13h-75q-12 0 -15 7t5 17l182 207l-182 208q-8 9 -5 16t15 7h75q15 0 26 -12l180 -200q9 -13 9 -19zM332 228q0 -6 -10 -18l-179 -200q-12 -13 -26 -13h-76q-12 0 -14.5 7t5.5 17l182 207l-182 208q-8 9 -5.5 16t14.5 7h76
q15 0 26 -12l179 -200q10 -14 10 -19z" />
    <glyph glyph-name="onequarter" unicode="&#xbc;" horiz-adv-x="417" 
d="M52 263h312q12 0 12 -12v-29q0 -12 -12 -12h-312q-5 0 -9 3.5t-4 8.5v29q0 5 4 8.5t9 3.5zM68 -86l154 215q9 13 23 13h22q12 0 12 -13v-214h44q13 0 13 -13v-26q0 -5 -4 -8.5t-9 -3.5h-44v-64q0 -12 -12 -12h-33q-13 0 -13 12v64h-148q-5 0 -9 3.5t-4 8.5v16q0 11 8 22z
M131 -85h90v127zM181 625l-75 -26q-17 -6 -17 12v22q0 13 13 18l99 36q9 4 15 4h13q12 0 12 -13v-292h70q12 0 12 -13v-28q0 -12 -12 -12h-207q-13 0 -13 12v28q0 13 13 13h77v239z" />
    <glyph glyph-name="onehalf" unicode="&#xbd;" horiz-adv-x="417" 
d="M87 -198v16q0 66 38 104q20 19 61 41t56 35q20 18 20 45q0 25 -18 40q-17 14 -43 14q-37 0 -78 -27q-11 -7 -16 4l-11 24q-6 10 5 18q53 32 104 32q52 0 84 -32q30 -28 30 -72q0 -49 -34 -78q-20 -19 -59 -40t-53 -34q-22 -21 -22 -49h156q12 0 12 -13v-28q0 -12 -12 -12
h-208q-12 0 -12 12zM52 263h312q12 0 12 -12v-29q0 -12 -12 -12h-312q-5 0 -9 3.5t-4 8.5v29q0 5 4 8.5t9 3.5zM181 625l-75 -26q-17 -6 -17 12v22q0 13 13 18l99 36q9 4 15 4h13q12 0 12 -13v-292h70q12 0 12 -13v-28q0 -12 -12 -12h-207q-13 0 -13 12v28q0 13 13 13h77
v239z" />
    <glyph glyph-name="threequarters" unicode="&#xbe;" horiz-adv-x="417" 
d="M177 490h-12q-12 0 -12 12v23q0 13 12 13h8q28 0 43 7q28 13 28 46q0 21 -14.5 35t-39.5 14q-31 0 -66 -20q-10 -6 -15 4l-11 23q-6 12 5 18q46 26 91 26q48 0 76 -27t28 -67q0 -56 -51 -79q64 -25 64 -89q0 -45 -32 -73t-89 -28q-50 0 -94 23q-10 5 -5 16l12 26
q6 10 16 3q31 -20 67 -20q33 0 50.5 15.5t17.5 41.5q0 37 -35 51q-16 6 -42 6zM52 263h312q12 0 12 -12v-29q0 -12 -12 -12h-312q-5 0 -9 3.5t-4 8.5v29q0 5 4 8.5t9 3.5zM68 -86l154 215q9 13 23 13h22q12 0 12 -13v-214h44q13 0 13 -13v-26q0 -5 -4 -8.5t-9 -3.5h-44v-64
q0 -12 -12 -12h-33q-13 0 -13 12v64h-148q-5 0 -9 3.5t-4 8.5v16q0 11 8 22zM131 -85h90v127z" />
    <glyph glyph-name="questiondown" unicode="&#xbf;" horiz-adv-x="498" 
d="M260 -145q52 0 92.5 20t85.5 56q10 8 16 -4l30 -59q5 -10 -6 -17q-96 -87 -223 -87q-93 0 -153 54q-61 55 -61 140q0 53 24.5 89.5t77.5 73.5q50 35 66.5 62t18.5 68q1 13 15 13h54q10 0 16 -11q8 -21 8 -47q0 -47 -44 -94q-11 -12 -24.5 -23.5t-33 -27.5t-31.5 -26
q-42 -35 -42 -77q0 -48 33 -76q33 -27 81 -27zM212 401q0 26 18 44.5t44 18.5t44.5 -18.5t18.5 -44.5t-18.5 -44t-44.5 -18t-44 18t-18 44z" />
    <glyph glyph-name="Agrave" unicode="&#xc0;" horiz-adv-x="692" 
d="M622 402v-390q0 -12 -12 -12h-87q-13 0 -13 12v211h-328v-211q0 -12 -13 -12h-87q-12 0 -12 12v390q0 138 92 221q75 67 184 67q111 0 185 -67q91 -84 91 -221zM346 586q-72 0 -117 -47q-47 -52 -47 -142v-75h328v75q0 93 -46 142q-42 47 -118 47zM261 968h70
q10 0 17 -12l83 -160q9 -23 -7 -23h-52q-12 0 -19 12l-101 164q-4 6 -1.5 12.5t10.5 6.5z" />
    <glyph glyph-name="Aacute" unicode="&#xc1;" horiz-adv-x="692" 
d="M622 402v-390q0 -12 -12 -12h-87q-13 0 -13 12v211h-328v-211q0 -12 -13 -12h-87q-12 0 -12 12v390q0 138 92 221q75 67 184 67q111 0 185 -67q91 -84 91 -221zM346 586q-72 0 -117 -47q-47 -52 -47 -142v-75h328v75q0 93 -46 142q-42 47 -118 47zM366 968h70q8 0 11 -6
t-2 -13l-101 -164q-8 -12 -18 -12h-53q-17 0 -7 23l83 160q7 12 17 12z" />
    <glyph glyph-name="Acircumflex" unicode="&#xc2;" horiz-adv-x="692" 
d="M622 402v-390q0 -12 -12 -12h-87q-13 0 -13 12v211h-328v-211q0 -12 -13 -12h-87q-12 0 -12 12v390q0 138 92 221q75 67 184 67q111 0 185 -67q91 -84 91 -221zM346 586q-72 0 -117 -47q-47 -52 -47 -142v-75h328v75q0 93 -46 142q-42 47 -118 47zM327 968h36q9 0 18 -9
l149 -168q6 -7 4.5 -12.5t-9.5 -5.5h-65q-12 0 -22 11l-93 103l-92 -103q-11 -11 -22 -11h-65q-8 0 -9.5 5.5t4.5 12.5l149 168q9 9 17 9z" />
    <glyph glyph-name="Atilde" unicode="&#xc3;" horiz-adv-x="692" 
d="M622 402v-390q0 -12 -12 -12h-87q-13 0 -13 12v211h-328v-211q0 -12 -13 -12h-87q-12 0 -12 12v390q0 138 92 221q75 67 184 67q111 0 185 -67q91 -84 91 -221zM346 586q-72 0 -117 -47q-47 -52 -47 -142v-75h328v75q0 93 -46 142q-42 47 -118 47zM410 893q36 0 42 37
q3 13 13 13h32q15 0 15 -13q0 -49 -24 -79t-69 -30q-36 0 -79 30q-40 26 -60 26q-36 0 -42 -38q-3 -12 -12 -12h-33q-15 0 -15 13q0 50 24 79.5t69 29.5q39 0 80 -30q39 -26 59 -26z" />
    <glyph glyph-name="Adieresis" unicode="&#xc4;" horiz-adv-x="692" 
d="M622 402v-390q0 -12 -12 -12h-87q-13 0 -13 12v211h-328v-211q0 -12 -13 -12h-87q-12 0 -12 12v390q0 138 92 221q75 67 184 67q111 0 185 -67q91 -84 91 -221zM346 586q-72 0 -117 -47q-47 -52 -47 -142v-75h328v75q0 93 -46 142q-42 47 -118 47zM240 805
q-25 0 -42.5 17.5t-17.5 42.5t17.5 42.5t42.5 17.5t43 -17.5t18 -42.5t-18 -42.5t-43 -17.5zM450 805q-25 0 -42.5 17.5t-17.5 42.5t17.5 42.5t42.5 17.5t42.5 -17.5t17.5 -42.5t-17.5 -42.5t-42.5 -17.5z" />
    <glyph glyph-name="Aring" unicode="&#xc5;" horiz-adv-x="692" 
d="M622 402v-390q0 -12 -12 -12h-87q-13 0 -13 12v211h-328v-211q0 -12 -13 -12h-87q-12 0 -12 12v390q0 138 92 221q75 67 184 67q111 0 185 -67q91 -84 91 -221zM346 586q-72 0 -117 -47q-47 -52 -47 -142v-75h328v75q0 93 -46 142q-42 47 -118 47zM464 860
q0 -49 -34.5 -83.5t-83.5 -34.5t-84 34.5t-35 83.5t35 84t84 35t83.5 -35t34.5 -84zM417 860q0 30 -21 51.5t-50 21.5t-50 -21.5t-21 -51.5t21 -51t50 -21t50 21t21 51z" />
    <glyph glyph-name="AE" unicode="&#xc6;" horiz-adv-x="997" 
d="M523 681h425q12 0 12 -13v-74q0 -12 -12 -12h-326v-191h274q12 0 12 -12v-75q0 -12 -12 -12h-274v-193h326q12 0 12 -12v-75q0 -12 -12 -12h-425h-2q-4 0 -6 2q-1 1 -2 1l-1 2q-1 0 -1 2q-1 1 -1 3v2v211h-328v-211q0 -12 -13 -12h-87q-12 0 -12 12v390q0 138 92 221
q75 67 184 67q94 0 164 -50v28q0 13 13 13zM346 586q-72 0 -117 -47q-47 -52 -47 -142v-75h328v75q0 93 -46 142q-42 47 -118 47z" />
    <glyph glyph-name="Ccedilla" unicode="&#xc7;" horiz-adv-x="657" 
d="M516 -112q0 -50 -41 -72t-96 -22q-23 0 -41 3q-10 2 -10 11v30q0 10 10 10q4 0 16 -1t21 -1q71 0 71 45q0 37 -59 37q-13 0 -23 -1l6 64q-147 10 -236.5 104.5t-89.5 245.5q0 146 105 247.5t255 101.5q115 0 207 -51q13 -7 6 -17l-35 -73q-4 -11 -16 -5q-86 45 -165 45
q-98 0 -169.5 -72.5t-71.5 -175.5q0 -109 70 -179.5t172 -70.5q88 0 168 46q10 6 16 -4l35 -75q5 -11 -6 -16q-87 -47 -190 -51v-23q42 -4 66.5 -25.5t24.5 -54.5z" />
    <glyph glyph-name="Egrave" unicode="&#xc8;" horiz-adv-x="608" 
d="M83 681h476q12 0 12 -13v-74q0 -12 -12 -12h-376v-191h324q12 0 12 -12v-75q0 -12 -12 -12h-324v-193h376q12 0 12 -12v-75q0 -12 -12 -12h-476q-12 0 -12 12v656q0 5 3.5 9t8.5 4zM215 968h70q10 0 17 -12l83 -160q9 -23 -7 -23h-52q-12 0 -19 12l-101 164
q-4 6 -1.5 12.5t10.5 6.5z" />
    <glyph glyph-name="Eacute" unicode="&#xc9;" horiz-adv-x="608" 
d="M83 681h476q12 0 12 -13v-74q0 -12 -12 -12h-376v-191h324q12 0 12 -12v-75q0 -12 -12 -12h-324v-193h376q12 0 12 -12v-75q0 -12 -12 -12h-476q-12 0 -12 12v656q0 5 3.5 9t8.5 4zM347 968h70q8 0 11 -6t-2 -13l-101 -164q-7 -12 -18 -12h-53q-17 0 -7 23l83 160
q7 12 17 12z" />
    <glyph glyph-name="Ecircumflex" unicode="&#xca;" horiz-adv-x="608" 
d="M83 681h476q12 0 12 -13v-74q0 -12 -12 -12h-376v-191h324q12 0 12 -12v-75q0 -12 -12 -12h-324v-193h376q12 0 12 -12v-75q0 -12 -12 -12h-476q-12 0 -12 12v656q0 5 3.5 9t8.5 4zM293 968h36q9 0 18 -9l149 -168q6 -7 4.5 -12.5t-9.5 -5.5h-65q-12 0 -22 11l-93 103
l-92 -103q-11 -11 -22 -11h-65q-8 0 -9.5 5.5t4.5 12.5l149 168q9 9 17 9z" />
    <glyph glyph-name="Edieresis" unicode="&#xcb;" horiz-adv-x="608" 
d="M83 681h476q12 0 12 -13v-74q0 -12 -12 -12h-376v-191h324q12 0 12 -12v-75q0 -12 -12 -12h-324v-193h376q12 0 12 -12v-75q0 -12 -12 -12h-476q-12 0 -12 12v656q0 5 3.5 9t8.5 4zM214 805q-25 0 -42.5 17.5t-17.5 42.5t17.5 42.5t42.5 17.5t43 -17.5t18 -42.5
t-18 -42.5t-43 -17.5zM424 805q-25 0 -42.5 17.5t-17.5 42.5t17.5 42.5t42.5 17.5t42.5 -17.5t17.5 -42.5t-17.5 -42.5t-42.5 -17.5z" />
    <glyph glyph-name="Igrave" unicode="&#xcc;" horiz-adv-x="254" 
d="M83 681h88q5 0 8.5 -4t3.5 -9v-656q0 -12 -12 -12h-88q-12 0 -12 12v656q0 5 3.5 9t8.5 4zM42 968h70q10 0 17 -12l83 -160q9 -23 -7 -23h-52q-11 0 -19 12l-101 164q-4 6 -1.5 12.5t10.5 6.5z" />
    <glyph glyph-name="Iacute" unicode="&#xcd;" horiz-adv-x="254" 
d="M83 681h88q5 0 8.5 -4t3.5 -9v-656q0 -12 -12 -12h-88q-12 0 -12 12v656q0 5 3.5 9t8.5 4zM143 968h70q8 0 11 -6t-2 -13l-101 -164q-7 -12 -18 -12h-53q-17 0 -7 23l83 160q7 12 17 12z" />
    <glyph glyph-name="Icircumflex" unicode="&#xce;" horiz-adv-x="254" 
d="M83 681h88q5 0 8.5 -4t3.5 -9v-656q0 -12 -12 -12h-88q-12 0 -12 12v656q0 5 3.5 9t8.5 4zM109 968h36q9 0 18 -9l149 -168q6 -7 4.5 -12.5t-9.5 -5.5h-65q-12 0 -22 11l-93 103l-92 -103q-11 -11 -22 -11h-65q-8 0 -9.5 5.5t4.5 12.5l149 168q9 9 17 9z" />
    <glyph glyph-name="Idieresis" unicode="&#xcf;" horiz-adv-x="254" 
d="M83 681h88q5 0 8.5 -4t3.5 -9v-656q0 -12 -12 -12h-88q-12 0 -12 12v656q0 5 3.5 9t8.5 4zM22 805q-25 0 -42.5 17.5t-17.5 42.5t17.5 42.5t42.5 17.5t43 -17.5t18 -42.5t-18 -42.5t-43 -17.5zM232 805q-25 0 -42.5 17.5t-17.5 42.5t17.5 42.5t42.5 17.5t42.5 -17.5
t17.5 -42.5t-17.5 -42.5t-42.5 -17.5z" />
    <glyph glyph-name="Eth" unicode="&#xd0;" horiz-adv-x="748" 
d="M704 340q0 -204 -153 -291q-88 -49 -224 -49h-236q-12 0 -12 12v280h-76q-12 0 -12 13v71q0 12 12 12h76v280q0 13 12 13h250q184 0 282 -106q81 -88 81 -235zM191 586v-198h138q13 0 13 -12v-71q0 -13 -13 -13h-138v-198h127q97 0 158 32q113 57 113 214q0 110 -57 172
q-67 74 -207 74h-134z" />
    <glyph glyph-name="Ntilde" unicode="&#xd1;" horiz-adv-x="741" 
d="M563 184v484q0 13 12 13h82q13 0 13 -13v-656q0 -12 -13 -12h-78q-14 0 -22 13l-379 483v-484q0 -12 -12 -12h-83q-12 0 -12 12v656q0 5 3.5 9t8.5 4h78q13 0 23 -13zM435 893q36 0 42 37q3 13 13 13h32q15 0 15 -13q0 -49 -24 -79t-69 -30q-36 0 -79 30q-40 26 -60 26
q-36 0 -42 -38q-3 -12 -12 -12h-33q-15 0 -15 13q0 50 24 79.5t69 29.5q39 0 80 -30q39 -26 59 -26z" />
    <glyph glyph-name="Ograve" unicode="&#xd2;" horiz-adv-x="808" 
d="M764 339q0 -150 -105.5 -249.5t-254.5 -99.5t-254.5 100t-105.5 249q0 150 105.5 250.5t254.5 100.5t254.5 -100.5t105.5 -250.5zM645 339q0 103 -69.5 174.5t-171.5 71.5t-172 -71.5t-70 -174.5t70 -174t172 -71t171.5 71t69.5 174zM317 968h70q10 0 17 -12l83 -160
q9 -23 -7 -23h-52q-11 0 -19 12l-101 164q-4 6 -1.5 12.5t10.5 6.5z" />
    <glyph glyph-name="Oacute" unicode="&#xd3;" horiz-adv-x="808" 
d="M764 339q0 -150 -105.5 -249.5t-254.5 -99.5t-254.5 100t-105.5 249q0 150 105.5 250.5t254.5 100.5t254.5 -100.5t105.5 -250.5zM645 339q0 103 -69.5 174.5t-171.5 71.5t-172 -71.5t-70 -174.5t70 -174t172 -71t171.5 71t69.5 174zM419 968h70q8 0 11 -6t-2 -13
l-101 -164q-7 -12 -18 -12h-53q-17 0 -7 23l83 160q7 12 17 12z" />
    <glyph glyph-name="Ocircumflex" unicode="&#xd4;" horiz-adv-x="808" 
d="M764 339q0 -150 -105.5 -249.5t-254.5 -99.5t-254.5 100t-105.5 249q0 150 105.5 250.5t254.5 100.5t254.5 -100.5t105.5 -250.5zM645 339q0 103 -69.5 174.5t-171.5 71.5t-172 -71.5t-70 -174.5t70 -174t172 -71t171.5 71t69.5 174zM384 968h36q9 0 18 -9l149 -168
q6 -7 4.5 -12.5t-9.5 -5.5h-65q-12 0 -22 11l-93 103l-92 -103q-11 -11 -22 -11h-65q-8 0 -9.5 5.5t4.5 12.5l149 168q9 9 17 9z" />
    <glyph glyph-name="Otilde" unicode="&#xd5;" horiz-adv-x="808" 
d="M764 339q0 -150 -105.5 -249.5t-254.5 -99.5t-254.5 100t-105.5 249q0 150 105.5 250.5t254.5 100.5t254.5 -100.5t105.5 -250.5zM645 339q0 103 -69.5 174.5t-171.5 71.5t-172 -71.5t-70 -174.5t70 -174t172 -71t171.5 71t69.5 174zM468 893q36 0 42 37q3 13 13 13h32
q15 0 15 -13q0 -49 -24 -79t-69 -30q-36 0 -79 30q-40 26 -60 26q-36 0 -42 -38q-3 -12 -12 -12h-33q-15 0 -15 13q0 50 24 79.5t69 29.5q39 0 80 -30q39 -26 59 -26z" />
    <glyph glyph-name="Odieresis" unicode="&#xd6;" horiz-adv-x="808" 
d="M764 339q0 -150 -105.5 -249.5t-254.5 -99.5t-254.5 100t-105.5 249q0 150 105.5 250.5t254.5 100.5t254.5 -100.5t105.5 -250.5zM645 339q0 103 -69.5 174.5t-171.5 71.5t-172 -71.5t-70 -174.5t70 -174t172 -71t171.5 71t69.5 174zM298 805q-25 0 -42.5 17.5
t-17.5 42.5t17.5 42.5t42.5 17.5t43 -17.5t18 -42.5t-18 -42.5t-43 -17.5zM508 805q-25 0 -42.5 17.5t-17.5 42.5t17.5 42.5t42.5 17.5t42.5 -17.5t17.5 -42.5t-17.5 -42.5t-42.5 -17.5z" />
    <glyph glyph-name="multiply" unicode="&#xd7;" horiz-adv-x="500" 
d="M95 576l154 -155l156 155q3 4 8.5 4t8.5 -4l52 -51q8 -8 0 -17l-156 -155l156 -156q8 -9 0 -17l-52 -51q-3 -4 -8.5 -4t-8.5 4l-156 155l-154 -155q-9 -8 -17 0l-52 51q-7 9 0 18l155 155l-155 155q-8 8 0 17l52 51q8 8 17 0z" />
    <glyph glyph-name="Oslash" unicode="&#xd8;" horiz-adv-x="808" 
d="M764 339q0 -150 -105.5 -249.5t-254.5 -99.5q-112 0 -203 58l-31 -36q-12 -12 -20 -12h-65q-9 0 -12.5 5.5t2.5 12.5l68 78q-99 99 -99 243q0 150 105.5 250.5t254.5 100.5q110 0 202 -60l33 38q9 13 20 13h64q9 0 12 -6.5t-2 -11.5l-69 -80q100 -100 100 -244zM162 339
q0 -90 55 -158l317 366q-59 38 -130 38q-102 0 -172 -71.5t-70 -174.5zM645 339q0 90 -55 158l-317 -366q61 -37 131 -37q102 0 171.5 71t69.5 174z" />
    <glyph glyph-name="Ugrave" unicode="&#xd9;" horiz-adv-x="723" 
d="M541 281v387q0 5 3.5 9t8.5 4h88q5 0 8.5 -4t3.5 -9v-399q0 -118 -64 -191q-79 -88 -228 -88q-148 0 -227 88q-64 73 -64 191v399q0 13 12 13h87q13 0 13 -13v-387q0 -88 42 -136q47 -54 136 -54q91 0 138 54q43 47 43 136zM275 968h70q10 0 17 -12l83 -160q9 -23 -7 -23
h-52q-12 0 -19 12l-101 164q-4 6 -1.5 12.5t10.5 6.5z" />
    <glyph glyph-name="Uacute" unicode="&#xda;" horiz-adv-x="723" 
d="M541 281v387q0 5 3.5 9t8.5 4h88q5 0 8.5 -4t3.5 -9v-399q0 -118 -64 -191q-79 -88 -228 -88q-148 0 -227 88q-64 73 -64 191v399q0 13 12 13h87q13 0 13 -13v-387q0 -88 42 -136q47 -54 136 -54q91 0 138 54q43 47 43 136zM377 968h70q8 0 11 -6t-2 -13l-101 -164
q-7 -12 -18 -12h-53q-17 0 -7 23l83 160q7 12 17 12z" />
    <glyph glyph-name="Ucircumflex" unicode="&#xdb;" horiz-adv-x="723" 
d="M541 281v387q0 5 3.5 9t8.5 4h88q5 0 8.5 -4t3.5 -9v-399q0 -118 -64 -191q-79 -88 -228 -88q-148 0 -227 88q-64 73 -64 191v399q0 13 12 13h87q13 0 13 -13v-387q0 -88 42 -136q47 -54 136 -54q91 0 138 54q43 47 43 136zM342 968h36q9 0 18 -9l149 -168
q6 -7 4.5 -12.5t-9.5 -5.5h-65q-12 0 -22 11l-93 103l-92 -103q-11 -11 -22 -11h-65q-8 0 -9.5 5.5t4.5 12.5l149 168q9 9 17 9z" />
    <glyph glyph-name="Udieresis" unicode="&#xdc;" horiz-adv-x="723" 
d="M541 281v387q0 5 3.5 9t8.5 4h88q5 0 8.5 -4t3.5 -9v-399q0 -118 -64 -191q-79 -88 -228 -88q-148 0 -227 88q-64 73 -64 191v399q0 13 12 13h87q13 0 13 -13v-387q0 -88 42 -136q47 -54 136 -54q91 0 138 54q43 47 43 136zM256 805q-25 0 -42.5 17.5t-17.5 42.5
t17.5 42.5t42.5 17.5t43 -17.5t18 -42.5t-18 -42.5t-43 -17.5zM466 805q-25 0 -42.5 17.5t-17.5 42.5t17.5 42.5t42.5 17.5t42.5 -17.5t17.5 -42.5t-17.5 -42.5t-42.5 -17.5z" />
    <glyph glyph-name="Yacute" unicode="&#xdd;" horiz-adv-x="635" 
d="M317 402l183 266q8 13 20 13h101q9 0 11.5 -6.5t-2.5 -13.5l-257 -370v-279q0 -12 -13 -12h-87q-12 0 -12 12v279l-256 370q-6 7 -3.5 13.5t12.5 6.5h99q14 0 21 -13zM340 968h70q8 0 11 -6t-2 -13l-101 -164q-8 -12 -18 -12h-53q-17 0 -7 23l83 160q7 12 17 12z" />
    <glyph glyph-name="Thorn" unicode="&#xde;" horiz-adv-x="636" 
d="M71 -128v796q0 5 3.5 9t8.5 4h88q5 0 8.5 -4t3.5 -9v-121h176q98 0 160 -50q82 -64 82 -181q0 -121 -89 -187q-57 -44 -158 -44h-171v-213q0 -5 -3.5 -9t-8.5 -4h-88q-5 0 -8.5 4t-3.5 9zM487 316q0 65 -42 101q-36 32 -101 32h-161v-266h153q70 0 104 26q47 36 47 107z
" />
    <glyph glyph-name="germandbls" unicode="&#xdf;" horiz-adv-x="568" 
d="M340 -10q-88 0 -145 41q-10 7 -5 17l28 58q6 11 16 4q44 -33 103 -33q43 0 67 24q26 23 26 62q0 20 -12.5 38t-23 26.5t-40.5 27.5t-39 25q-26 17 -39 27.5t-25 29.5t-12 41t18.5 38.5t40 25.5t40 30t18.5 52q0 38 -23 59q-24 24 -68 24q-46 0 -71 -31q-23 -25 -23 -78
v-555q0 -13 -12 -13h-78q-13 0 -13 13v555q0 79 43 130q53 62 152 62q96 0 147 -42q50 -41 50 -110q0 -40 -19.5 -68t-43 -40t-43 -24t-19.5 -22q0 -13 14.5 -23t45 -23.5t46.5 -23.5q86 -52 86 -144q0 -81 -56 -132q-51 -48 -131 -48z" />
    <glyph glyph-name="agrave" unicode="&#xe0;" horiz-adv-x="481" 
d="M230 385q-57 0 -131 -40q-14 -8 -18 4l-22 50q-4 10 5 16q74 48 179 48q94 0 139 -50q38 -43 38 -122v-279q0 -12 -12 -12h-68q-12 0 -12 12v12h-4q-54 -34 -129 -34q-66 0 -109 34q-48 38 -48 103q0 81 88 117q63 25 191 34v12q0 47 -18 69q-21 26 -69 26zM227 65
q46 0 90 26v117q-181 -10 -181 -79q0 -31 26.5 -47.5t64.5 -16.5zM156 764h70q10 0 17 -12l83 -160q9 -23 -7 -23h-52q-11 0 -19 12l-101 164q-4 6 -1.5 12.5t10.5 6.5z" />
    <glyph glyph-name="aacute" unicode="&#xe1;" horiz-adv-x="481" 
d="M230 385q-57 0 -131 -40q-14 -8 -18 4l-22 50q-4 10 5 16q74 48 179 48q94 0 139 -50q38 -43 38 -122v-279q0 -12 -12 -12h-68q-12 0 -12 12v12h-4q-54 -34 -129 -34q-66 0 -109 34q-48 38 -48 103q0 81 88 117q63 25 191 34v12q0 47 -18 69q-21 26 -69 26zM227 65
q46 0 90 26v117q-181 -10 -181 -79q0 -31 26.5 -47.5t64.5 -16.5zM255 764h70q8 0 11 -6t-2 -13l-101 -164q-7 -12 -18 -12h-53q-17 0 -7 23l83 160q7 12 17 12z" />
    <glyph glyph-name="acircumflex" unicode="&#xe2;" horiz-adv-x="490" 
d="M230 385q-57 0 -131 -40q-14 -8 -18 4l-22 50q-4 10 5 16q74 48 179 48q94 0 139 -50q38 -43 38 -122v-279q0 -12 -12 -12h-68q-12 0 -12 12v12h-4q-54 -34 -129 -34q-66 0 -109 34q-48 38 -48 103q0 81 88 117q63 25 191 34v12q0 47 -18 69q-21 26 -69 26zM227 65
q46 0 90 26v117q-181 -10 -181 -79q0 -31 26.5 -47.5t64.5 -16.5zM221 764h36q9 0 18 -9l149 -168q6 -7 4.5 -12.5t-9.5 -5.5h-65q-12 0 -22 11l-93 103l-92 -103q-11 -11 -22 -11h-65q-8 0 -9.5 5.5t4.5 12.5l149 168q9 9 17 9z" />
    <glyph glyph-name="atilde" unicode="&#xe3;" horiz-adv-x="481" 
d="M230 385q-57 0 -131 -40q-14 -8 -18 4l-22 50q-4 10 5 16q74 48 179 48q94 0 139 -50q38 -43 38 -122v-279q0 -12 -12 -12h-68q-12 0 -12 12v12h-4q-54 -34 -129 -34q-66 0 -109 34q-48 38 -48 103q0 81 88 117q63 25 191 34v12q0 47 -18 69q-21 26 -69 26zM227 65
q46 0 90 26v117q-181 -10 -181 -79q0 -31 26.5 -47.5t64.5 -16.5zM302 675q36 0 42 37q3 13 13 13h32q15 0 15 -13q0 -49 -24 -79t-69 -30q-36 0 -79 30q-40 26 -60 26q-36 0 -42 -38q-3 -12 -12 -12h-33q-15 0 -15 13q0 50 24 79.5t69 29.5q39 0 80 -30q39 -26 59 -26z" />
    <glyph glyph-name="adieresis" unicode="&#xe4;" horiz-adv-x="481" 
d="M230 385q-57 0 -131 -40q-14 -8 -18 4l-22 50q-4 10 5 16q74 48 179 48q94 0 139 -50q38 -43 38 -122v-279q0 -12 -12 -12h-68q-12 0 -12 12v12h-4q-54 -34 -129 -34q-66 0 -109 34q-48 38 -48 103q0 81 88 117q63 25 191 34v12q0 47 -18 69q-21 26 -69 26zM227 65
q46 0 90 26v117q-181 -10 -181 -79q0 -31 26.5 -47.5t64.5 -16.5zM134 604q-25 0 -42.5 17.5t-17.5 42.5t17.5 42.5t42.5 17.5t43 -17.5t18 -42.5t-18 -42.5t-43 -17.5zM344 604q-25 0 -42.5 17.5t-17.5 42.5t17.5 42.5t42.5 17.5t42.5 -17.5t17.5 -42.5t-17.5 -42.5
t-42.5 -17.5z" />
    <glyph glyph-name="aring" unicode="&#xe5;" horiz-adv-x="481" 
d="M230 385q-57 0 -131 -40q-14 -8 -18 4l-22 50q-4 10 5 16q74 48 179 48q94 0 139 -50q38 -43 38 -122v-279q0 -12 -12 -12h-68q-12 0 -12 12v12h-4q-54 -34 -129 -34q-66 0 -109 34q-48 38 -48 103q0 81 88 117q63 25 191 34v12q0 47 -18 69q-21 26 -69 26zM227 65
q46 0 90 26v117q-181 -10 -181 -79q0 -31 26.5 -47.5t64.5 -16.5zM358 664q0 -49 -34.5 -83.5t-83.5 -34.5t-84 34.5t-35 83.5t35 84t84 35t83.5 -35t34.5 -84zM311 664q0 30 -21 51.5t-50 21.5t-50 -21.5t-21 -51.5t21 -51t50 -21t50 21t21 51z" />
    <glyph glyph-name="ae" unicode="&#xe6;" horiz-adv-x="800" 
d="M761 217q0 -14 -13 -14h-323q5 -54 35 -88q37 -45 107 -45q68 0 126 36q14 8 19 -3l26 -49q4 -9 -6 -16q-68 -48 -171 -48q-117 0 -185 74q-43 -42 -85 -57q-43 -17 -102 -17q-68 0 -110 39q-41 38 -41 96q0 73 82 107q70 29 197 36v22q0 48 -18 70q-20 25 -67 25
q-74 0 -133 -38q-13 -8 -18 3l-22 49q-5 10 5 16q75 48 179 48q53 0 87 -17q35 -21 54 -62q23 35 61 57q46 22 102 22q111 0 171 -75q51 -67 43 -171zM221 63q39 0 67 12q29 12 56 39q-21 37 -24 88q-82 0 -136 -20q-48 -18 -48 -54q0 -30 24 -48q23 -17 61 -17zM425 267
h238q-1 49 -29 81q-31 36 -86 36q-61 0 -93 -38q-25 -29 -30 -79z" />
    <glyph glyph-name="ccedilla" unicode="&#xe7;" horiz-adv-x="475" 
d="M402 -112q0 -50 -41 -72t-96 -22q-23 0 -41 3q-10 2 -10 11v30q0 10 10 10q4 0 16 -1t21 -1q71 0 71 45q0 37 -59 37q-13 0 -23 -1l6 65q-100 9 -154 69q-61 63 -61 166q0 87 51 148q71 88 200 88q84 0 144 -42q10 -9 6 -17l-30 -56q-5 -12 -19 -3q-49 30 -100 30
q-70 0 -111 -47q-36 -41 -36 -102q0 -66 39 -108t108 -42q57 0 103 28q13 9 19 -3l29 -54q4 -8 -6 -17q-50 -34 -127 -39v-23q42 -4 66.5 -25.5t24.5 -54.5z" />
    <glyph glyph-name="egrave" unicode="&#xe8;" horiz-adv-x="524" 
d="M149 268h237q-3 48 -30 78q-32 35 -86 35q-59 0 -91 -37q-27 -32 -30 -76zM291 71q65 0 125 36q12 7 18 -3l27 -50q6 -9 -5 -16q-68 -48 -172 -48q-115 0 -180 70q-63 66 -63 173q0 99 64 166q61 64 166 64q114 0 171 -75q49 -64 43 -175q-2 -14 -14 -14h-322
q4 -51 34 -84q38 -44 108 -44zM178 764h70q10 0 17 -12l83 -160q9 -23 -7 -23h-52q-11 0 -19 12l-101 164q-4 6 -1.5 12.5t10.5 6.5z" />
    <glyph glyph-name="eacute" unicode="&#xe9;" horiz-adv-x="524" 
d="M149 268h237q-3 48 -30 78q-32 35 -86 35q-59 0 -91 -37q-27 -32 -30 -76zM291 71q65 0 125 36q12 7 18 -3l27 -50q6 -9 -5 -16q-68 -48 -172 -48q-115 0 -180 70q-63 66 -63 173q0 99 64 166q61 64 166 64q114 0 171 -75q49 -64 43 -175q-2 -14 -14 -14h-322
q4 -51 34 -84q38 -44 108 -44zM276 764h70q8 0 11 -6t-2 -13l-101 -164q-8 -12 -18 -12h-53q-17 0 -7 23l83 160q7 12 17 12z" />
    <glyph glyph-name="ecircumflex" unicode="&#xea;" horiz-adv-x="524" 
d="M149 268h237q-3 48 -30 78q-32 35 -86 35q-59 0 -91 -37q-27 -32 -30 -76zM291 71q65 0 125 36q12 7 18 -3l27 -50q6 -9 -5 -16q-68 -48 -172 -48q-115 0 -180 70q-63 66 -63 173q0 99 64 166q61 64 166 64q114 0 171 -75q49 -64 43 -175q-2 -14 -14 -14h-322
q4 -51 34 -84q38 -44 108 -44zM243 764h36q9 0 18 -9l149 -168q6 -7 4.5 -12.5t-9.5 -5.5h-65q-12 0 -22 11l-93 103l-92 -103q-11 -11 -22 -11h-65q-8 0 -9.5 5.5t4.5 12.5l149 168q9 9 17 9z" />
    <glyph glyph-name="edieresis" unicode="&#xeb;" horiz-adv-x="524" 
d="M149 268h237q-3 48 -30 78q-32 35 -86 35q-59 0 -91 -37q-27 -32 -30 -76zM291 71q65 0 125 36q12 7 18 -3l27 -50q6 -9 -5 -16q-68 -48 -172 -48q-115 0 -180 70q-63 66 -63 173q0 99 64 166q61 64 166 64q114 0 171 -75q49 -64 43 -175q-2 -14 -14 -14h-322
q4 -51 34 -84q38 -44 108 -44zM156 604q-25 0 -42.5 17.5t-17.5 42.5t17.5 42.5t42.5 17.5t43 -17.5t18 -42.5t-18 -42.5t-43 -17.5zM366 604q-25 0 -42.5 17.5t-17.5 42.5t17.5 42.5t42.5 17.5t42.5 -17.5t17.5 -42.5t-17.5 -42.5t-42.5 -17.5z" />
    <glyph glyph-name="igrave" unicode="&#xec;" horiz-adv-x="240" 
d="M68 443q0 5 4 8.5t9 3.5h78q12 0 12 -12v-431q0 -12 -12 -12h-78q-13 0 -13 12v431zM36 764h70q10 0 17 -12l83 -160q9 -23 -7 -23h-52q-11 0 -19 12l-101 164q-4 6 -1.5 12.5t10.5 6.5z" />
    <glyph glyph-name="iacute" unicode="&#xed;" horiz-adv-x="240" 
d="M68 443q0 5 4 8.5t9 3.5h78q12 0 12 -12v-431q0 -12 -12 -12h-78q-13 0 -13 12v431zM134 764h70q8 0 11 -6t-2 -13l-101 -164q-7 -12 -18 -12h-53q-17 0 -7 23l83 160q7 12 17 12z" />
    <glyph glyph-name="icircumflex" unicode="&#xee;" horiz-adv-x="240" 
d="M68 443q0 5 4 8.5t9 3.5h78q12 0 12 -12v-431q0 -12 -12 -12h-78q-13 0 -13 12v431zM101 764h36q9 0 18 -9l149 -168q6 -7 4.5 -12.5t-9.5 -5.5h-65q-12 0 -22 11l-93 103l-92 -103q-11 -11 -22 -11h-65q-8 0 -9.5 5.5t4.5 12.5l149 168q9 9 17 9z" />
    <glyph glyph-name="idieresis" unicode="&#xef;" horiz-adv-x="240" 
d="M68 443q0 5 4 8.5t9 3.5h78q12 0 12 -12v-431q0 -12 -12 -12h-78q-13 0 -13 12v431zM15 604q-25 0 -42.5 17.5t-17.5 42.5t17.5 42.5t42.5 17.5t43 -17.5t18 -42.5t-18 -42.5t-43 -17.5zM225 604q-25 0 -42.5 17.5t-17.5 42.5t17.5 42.5t42.5 17.5t42.5 -17.5t17.5 -42.5
t-17.5 -42.5t-42.5 -17.5z" />
    <glyph glyph-name="eth" unicode="&#xf0;" horiz-adv-x="514" 
d="M377 224q0 36 -8 76q-51 29 -107 29q-48 0 -87 -32t-39 -89q0 -59 32 -95.5t87 -36.5q54 0 88 37t34 111zM41 208q0 88 56 142q60 60 149 60q45 0 89 -25q-31 78 -98 144l-80 -63q-10 -6 -17 2l-28 36q-8 10 3 17l68 54q-14 14 -63 52q-10 7 -2 17l48 48q9 9 21 1
q41 -27 74 -59l78 60q10 8 17 -1l27 -36q7 -11 -2 -18l-68 -53q160 -167 160 -362q0 -112 -62.5 -173t-155.5 -61q-86 0 -143 49q-71 60 -71 169z" />
    <glyph glyph-name="ntilde" unicode="&#xf1;" horiz-adv-x="565" 
d="M504 273v-261q0 -12 -12 -12h-79q-12 0 -12 12v236q0 72 -29 102q-26 26 -73 26q-70 0 -104 -60q-24 -44 -24 -106v-198q0 -12 -12 -12h-78q-13 0 -13 12v431q0 5 4 8.5t9 3.5h74q5 0 9 -3.5t4 -8.5v-49h3q50 70 148 70q85 0 132 -43q53 -47 53 -148zM343 675q36 0 42 37
q3 13 13 13h32q15 0 15 -13q0 -49 -24 -79t-69 -30q-36 0 -79 30q-40 26 -60 26q-36 0 -42 -38q-3 -12 -12 -12h-33q-15 0 -15 13q0 50 24 79.5t69 29.5q39 0 80 -30q39 -26 59 -26z" />
    <glyph glyph-name="ograve" unicode="&#xf2;" horiz-adv-x="569" 
d="M143 227q0 -63 39 -107q41 -44 103 -44q61 0 102 44q40 45 40 107t-40 107q-41 44 -102 44q-62 0 -103 -44q-39 -44 -39 -107zM41 227q0 103 71 171q71 66 173 66t173 -66q70 -67 70 -171q0 -108 -70 -172q-68 -65 -173 -65t-173 65q-71 65 -71 172zM200 764h70
q10 0 17 -12l83 -160q9 -23 -7 -23h-52q-11 0 -19 12l-101 164q-4 6 -1.5 12.5t10.5 6.5z" />
    <glyph glyph-name="oacute" unicode="&#xf3;" horiz-adv-x="569" 
d="M143 227q0 -63 39 -107q41 -44 103 -44q61 0 102 44q40 45 40 107t-40 107q-41 44 -102 44q-62 0 -103 -44q-39 -44 -39 -107zM41 227q0 103 71 171q71 66 173 66t173 -66q70 -67 70 -171q0 -108 -70 -172q-68 -65 -173 -65t-173 65q-71 65 -71 172zM298 764h70
q8 0 11 -6t-2 -13l-101 -164q-8 -12 -18 -12h-53q-17 0 -7 23l83 160q7 12 17 12z" />
    <glyph glyph-name="ocircumflex" unicode="&#xf4;" horiz-adv-x="569" 
d="M143 227q0 -63 39 -107q41 -44 103 -44q61 0 102 44q40 45 40 107t-40 107q-41 44 -102 44q-62 0 -103 -44q-39 -44 -39 -107zM41 227q0 103 71 171q71 66 173 66t173 -66q70 -67 70 -171q0 -108 -70 -172q-68 -65 -173 -65t-173 65q-71 65 -71 172zM266 764h36
q9 0 18 -9l149 -168q6 -7 4.5 -12.5t-9.5 -5.5h-65q-12 0 -22 11l-93 103l-92 -103q-11 -11 -22 -11h-65q-8 0 -9.5 5.5t4.5 12.5l149 168q9 9 17 9z" />
    <glyph glyph-name="otilde" unicode="&#xf5;" horiz-adv-x="569" 
d="M143 227q0 -63 39 -107q41 -44 103 -44q61 0 102 44q40 45 40 107t-40 107q-41 44 -102 44q-62 0 -103 -44q-39 -44 -39 -107zM41 227q0 103 71 171q71 66 173 66t173 -66q70 -67 70 -171q0 -108 -70 -172q-68 -65 -173 -65t-173 65q-71 65 -71 172zM346 675q36 0 42 37
q3 13 13 13h32q15 0 15 -13q0 -49 -24 -79t-69 -30q-36 0 -79 30q-40 26 -60 26q-36 0 -42 -38q-3 -12 -12 -12h-33q-15 0 -15 13q0 50 24 79.5t69 29.5q39 0 80 -30q39 -26 59 -26z" />
    <glyph glyph-name="odieresis" unicode="&#xf6;" horiz-adv-x="569" 
d="M143 227q0 -63 39 -107q41 -44 103 -44q61 0 102 44q40 45 40 107t-40 107q-41 44 -102 44q-62 0 -103 -44q-39 -44 -39 -107zM41 227q0 103 71 171q71 66 173 66t173 -66q70 -67 70 -171q0 -108 -70 -172q-68 -65 -173 -65t-173 65q-71 65 -71 172zM179 604
q-25 0 -42.5 17.5t-17.5 42.5t17.5 42.5t42.5 17.5t43 -17.5t18 -42.5t-18 -42.5t-43 -17.5zM389 604q-25 0 -42.5 17.5t-17.5 42.5t17.5 42.5t42.5 17.5t42.5 -17.5t17.5 -42.5t-17.5 -42.5t-42.5 -17.5z" />
    <glyph glyph-name="divide" unicode="&#xf7;" horiz-adv-x="596" 
d="M298 634q26 0 44 -18.5t18 -44.5t-18 -44t-44 -18t-44.5 18t-18.5 44t18.5 44.5t44.5 18.5zM235 134q0 26 18.5 44.5t44.5 18.5t44 -18.5t18 -44.5t-18 -44.5t-44 -18.5t-44.5 18.5t-18.5 44.5zM53 401h489q5 0 9 -3.5t4 -8.5v-72q0 -13 -13 -13h-489q-12 0 -12 13v72
q0 12 12 12z" />
    <glyph glyph-name="oslash" unicode="&#xf8;" horiz-adv-x="574" 
d="M41 227q0 103 71 171q71 66 173 66q76 0 138 -40l16 19q10 12 20 12h36q8 0 10.5 -5.5t-3.5 -12.5l-39 -45q65 -65 65 -165q0 -108 -70 -172q-68 -65 -173 -65q-75 0 -136 36l-12 -14q-11 -12 -20 -12h-36q-23 0 -8 18l35 40q-67 64 -67 169zM143 227q0 -55 29 -95
l191 222q-35 24 -78 24q-62 0 -103 -44q-39 -44 -39 -107zM427 227q0 51 -28 91l-189 -221q34 -21 75 -21q61 0 102 44q40 45 40 107z" />
    <glyph glyph-name="ugrave" unicode="&#xf9;" horiz-adv-x="556" 
d="M61 194v249q0 12 12 12h78q5 0 9 -3.5t4 -8.5v-242q0 -46 15 -75q27 -48 99 -48t98 48q16 28 16 75v242q0 5 4 8.5t9 3.5h78q12 0 12 -12v-249q0 -82 -37 -131q-53 -73 -180 -73t-180 73q-37 49 -37 131zM193 764h70q10 0 17 -12l83 -160q9 -23 -7 -23h-52q-12 0 -19 12
l-101 164q-4 6 -1.5 12.5t10.5 6.5z" />
    <glyph glyph-name="uacute" unicode="&#xfa;" horiz-adv-x="556" 
d="M61 194v249q0 12 12 12h78q5 0 9 -3.5t4 -8.5v-242q0 -46 15 -75q27 -48 99 -48t98 48q16 28 16 75v242q0 5 4 8.5t9 3.5h78q12 0 12 -12v-249q0 -82 -37 -131q-53 -73 -180 -73t-180 73q-37 49 -37 131zM291 764h70q8 0 11 -6t-2 -13l-101 -164q-7 -12 -18 -12h-53
q-17 0 -7 23l83 160q7 12 17 12z" />
    <glyph glyph-name="ucircumflex" unicode="&#xfb;" horiz-adv-x="556" 
d="M61 194v249q0 12 12 12h78q5 0 9 -3.5t4 -8.5v-242q0 -46 15 -75q27 -48 99 -48t98 48q16 28 16 75v242q0 5 4 8.5t9 3.5h78q12 0 12 -12v-249q0 -82 -37 -131q-53 -73 -180 -73t-180 73q-37 49 -37 131zM259 764h36q9 0 18 -9l149 -168q6 -7 4.5 -12.5t-9.5 -5.5h-65
q-12 0 -22 11l-93 103l-92 -103q-11 -11 -22 -11h-65q-8 0 -9.5 5.5t4.5 12.5l149 168q9 9 17 9z" />
    <glyph glyph-name="udieresis" unicode="&#xfc;" horiz-adv-x="556" 
d="M61 194v249q0 12 12 12h78q5 0 9 -3.5t4 -8.5v-242q0 -46 15 -75q27 -48 99 -48t98 48q16 28 16 75v242q0 5 4 8.5t9 3.5h78q12 0 12 -12v-249q0 -82 -37 -131q-53 -73 -180 -73t-180 73q-37 49 -37 131zM172 604q-25 0 -42.5 17.5t-17.5 42.5t17.5 42.5t42.5 17.5
t43 -17.5t18 -42.5t-18 -42.5t-43 -17.5zM382 604q-25 0 -42.5 17.5t-17.5 42.5t17.5 42.5t42.5 17.5t42.5 -17.5t17.5 -42.5t-17.5 -42.5t-42.5 -17.5z" />
    <glyph glyph-name="yacute" unicode="&#xfd;" horiz-adv-x="506" 
d="M500 438l-177 -463q-39 -101 -89 -148q-68 -67 -183 -61q-10 0 -10 10v78q0 9 11 9q3 0 10.5 -0.5t14.5 -0.5q48 0 85 35q29 29 50 74l-207 467q-7 17 10 17h94q16 0 20 -14l136 -342l119 342q4 14 20 14h87q14 0 9 -17zM265 764h70q8 0 11 -6t-2 -13l-101 -164
q-7 -12 -18 -12h-53q-17 0 -7 23l83 160q7 12 17 12z" />
    <glyph glyph-name="thorn" unicode="&#xfe;" horiz-adv-x="537" 
d="M68 668q0 13 13 13h78q12 0 12 -13v-209q23 4 58 4q129 0 200 -68q67 -64 67 -168q0 -101 -56 -164q-66 -73 -181 -73q-54 0 -88 14v-225q0 -12 -12 -12h-78q-5 0 -9 3.5t-4 8.5v889zM239 380q-33 0 -68 -5v-286q31 -15 78 -15q65 0 104 38q40 37 40 115q0 69 -39 110
q-43 43 -115 43z" />
    <glyph glyph-name="ydieresis" unicode="&#xff;" horiz-adv-x="506" 
d="M500 438l-177 -463q-39 -101 -89 -148q-68 -67 -183 -61q-10 0 -10 10v78q0 9 11 9q3 0 10.5 -0.5t14.5 -0.5q48 0 85 35q29 29 50 74l-207 467q-7 17 10 17h94q16 0 20 -14l136 -342l119 342q4 14 20 14h87q14 0 9 -17zM147 604q-25 0 -42.5 17.5t-17.5 42.5t17.5 42.5
t42.5 17.5t43 -17.5t18 -42.5t-18 -42.5t-43 -17.5zM357 604q-25 0 -42.5 17.5t-17.5 42.5t17.5 42.5t42.5 17.5t42.5 -17.5t17.5 -42.5t-17.5 -42.5t-42.5 -17.5z" />
    <glyph glyph-name="Amacron" unicode="&#x100;" horiz-adv-x="692" 
d="M622 402v-390q0 -12 -12 -12h-87q-13 0 -13 12v211h-328v-211q0 -12 -13 -12h-87q-12 0 -12 12v390q0 138 92 221q75 67 184 67q111 0 185 -67q91 -84 91 -221zM346 586q-72 0 -117 -47q-47 -52 -47 -142v-75h328v75q0 93 -46 142q-42 47 -118 47zM226 917h239
q12 0 12 -12v-60q0 -5 -3.5 -8.5t-8.5 -3.5h-239q-5 0 -9 3.5t-4 8.5v60q0 12 13 12z" />
    <glyph glyph-name="amacron" unicode="&#x101;" horiz-adv-x="481" 
d="M230 385q-57 0 -131 -40q-14 -8 -18 4l-22 50q-4 10 5 16q74 48 179 48q94 0 139 -50q38 -43 38 -122v-279q0 -12 -12 -12h-68q-12 0 -12 12v12h-4q-54 -34 -129 -34q-66 0 -109 34q-48 38 -48 103q0 81 88 117q63 25 191 34v12q0 47 -18 69q-21 26 -69 26zM227 65
q46 0 90 26v117q-181 -10 -181 -79q0 -31 26.5 -47.5t64.5 -16.5zM117 694h239q12 0 12 -12v-60q0 -4 -4 -8t-8 -4h-239q-5 0 -9 3.5t-4 8.5v60q0 12 13 12z" />
    <glyph glyph-name="Abreve" unicode="&#x102;" horiz-adv-x="692" 
d="M622 402v-390q0 -12 -12 -12h-87q-13 0 -13 12v211h-328v-211q0 -12 -13 -12h-87q-12 0 -12 12v390q0 138 92 221q75 67 184 67q111 0 185 -67q91 -84 91 -221zM346 586q-72 0 -117 -47q-47 -52 -47 -142v-75h328v75q0 93 -46 142q-42 47 -118 47zM345 866q67 0 75 65
q2 12 14 12h36q15 0 15 -13q0 -58 -37 -98t-103 -40t-103.5 40t-37.5 98q0 13 15 13h37q12 0 14 -12q7 -65 75 -65z" />
    <glyph glyph-name="abreve" unicode="&#x103;" horiz-adv-x="481" 
d="M230 385q-57 0 -131 -40q-14 -8 -18 4l-22 50q-4 10 5 16q74 48 179 48q94 0 139 -50q38 -43 38 -122v-279q0 -12 -12 -12h-68q-12 0 -12 12v12h-4q-54 -34 -129 -34q-66 0 -109 34q-48 38 -48 103q0 81 88 117q63 25 191 34v12q0 47 -18 69q-21 26 -69 26zM227 65
q46 0 90 26v117q-181 -10 -181 -79q0 -31 26.5 -47.5t64.5 -16.5zM240 653q67 0 75 65q1 12 14 12h36q15 0 15 -13q0 -58 -37 -98t-103 -40t-103.5 40t-37.5 98q0 13 15 13h37q13 0 14 -12q7 -65 75 -65z" />
    <glyph glyph-name="Aogonek" unicode="&#x104;" horiz-adv-x="692" 
d="M428 -116q0 34 24 67t59 54q-1 2 -1 7v211h-328v-211q0 -12 -13 -12h-87q-12 0 -12 12v390q0 138 92 221q75 67 184 67q111 0 185 -67q91 -84 91 -221v-390q0 -12 -12 -12h-46q-64 -44 -64 -88q0 -38 43 -38q17 0 33 4.5t19 4.5q8 0 8 -8v-42q0 -9 -7 -12
q-37 -15 -73 -15q-41 0 -68 19t-27 59zM346 586q-72 0 -117 -47q-47 -52 -47 -142v-75h328v75q0 93 -46 142q-42 47 -118 47z" />
    <glyph glyph-name="aogonek" unicode="&#x105;" horiz-adv-x="481" 
d="M239 -119q0 36 27 70t63 55q-1 2 -1 6v12h-4q-54 -34 -129 -34q-66 0 -109 34q-48 38 -48 103q0 81 88 117q63 25 191 34v12q0 47 -18 69q-21 26 -69 26q-57 0 -131 -40q-14 -8 -18 4l-22 50q-4 10 5 16q74 48 179 48q94 0 139 -50q38 -43 38 -122v-279q0 -12 -12 -12
h-28q-28 -17 -48.5 -41.5t-20.5 -49.5q0 -38 43 -38q17 0 33 4.5t19 4.5q8 0 8 -8v-42q0 -8 -7 -12q-37 -15 -73 -15q-41 0 -68 19t-27 59zM227 65q46 0 90 26v117q-181 -10 -181 -79q0 -31 26.5 -47.5t64.5 -16.5z" />
    <glyph glyph-name="Cacute" unicode="&#x106;" horiz-adv-x="657" 
d="M401 -10q-159 0 -258 96t-99 255q0 146 105 247.5t255 101.5q115 0 207 -51q13 -7 6 -17l-35 -73q-4 -11 -16 -5q-86 45 -165 45q-98 0 -169.5 -72.5t-71.5 -175.5q0 -109 70 -179.5t172 -70.5q88 0 168 46q10 6 16 -4l35 -75q5 -11 -6 -16q-97 -52 -214 -52zM392 968h70
q8 0 11 -6t-2 -13l-101 -164q-8 -12 -18 -12h-53q-17 0 -7 23l83 160q7 12 17 12z" />
    <glyph glyph-name="cacute" unicode="&#x107;" horiz-adv-x="475" 
d="M293 76q57 0 103 28q13 9 19 -3l29 -54q4 -8 -6 -17q-58 -40 -148 -40q-122 0 -188 71q-61 63 -61 166q0 87 51 148q71 88 200 88q84 0 144 -42q10 -9 6 -17l-30 -56q-5 -12 -19 -3q-49 30 -100 30q-70 0 -111 -47q-36 -41 -36 -102q0 -66 39 -108t108 -42zM298 764h70
q8 0 11 -6t-2 -13l-101 -164q-8 -12 -18 -12h-53q-17 0 -7 23l83 160q7 12 17 12z" />
    <glyph glyph-name="Ccaron" unicode="&#x10c;" horiz-adv-x="657" 
d="M401 -10q-159 0 -258 96t-99 255q0 146 105 247.5t255 101.5q115 0 207 -51q13 -7 6 -17l-35 -73q-4 -11 -16 -5q-86 45 -165 45q-98 0 -169.5 -72.5t-71.5 -175.5q0 -109 70 -179.5t172 -70.5q88 0 168 46q10 6 16 -4l35 -75q5 -11 -6 -16q-97 -52 -214 -52zM404 773
h-36q-8 0 -17 9l-149 168q-6 6 -4.5 12t9.5 6h65q11 0 22 -12l92 -102l93 102q9 12 22 12h65q8 0 9.5 -6t-4.5 -12l-149 -168q-9 -9 -18 -9z" />
    <glyph glyph-name="ccaron" unicode="&#x10d;" horiz-adv-x="475" 
d="M293 76q57 0 103 28q13 9 19 -3l29 -54q4 -8 -6 -17q-58 -40 -148 -40q-122 0 -188 71q-61 63 -61 166q0 87 51 148q71 88 200 88q84 0 144 -42q10 -9 6 -17l-30 -56q-5 -12 -19 -3q-49 30 -100 30q-70 0 -111 -47q-36 -41 -36 -102q0 -66 39 -108t108 -42zM283 569h-36
q-8 0 -17 9l-149 168q-6 6 -4.5 12t9.5 6h65q11 0 22 -12l92 -102l93 102q9 12 22 12h65q8 0 9.5 -6t-4.5 -12l-149 -168q-9 -9 -18 -9z" />
    <glyph glyph-name="Dcaron" unicode="&#x10e;" horiz-adv-x="740" 
d="M696 340q0 -204 -154 -291q-88 -49 -223 -49h-236q-12 0 -12 12v656q0 5 3.5 9t8.5 4h250q184 0 282 -106q81 -88 81 -235zM183 586v-492h127q97 0 158 32q114 58 114 214q0 110 -57 172q-68 74 -208 74h-134zM381 773h-36q-8 0 -17 9l-149 168q-6 6 -4.5 12t9.5 6h65
q11 0 22 -12l92 -102l93 102q9 12 22 12h65q8 0 9.5 -6t-4.5 -12l-149 -168q-9 -9 -18 -9z" />
    <glyph glyph-name="dcaron" unicode="&#x10f;" horiz-adv-x="691" 
d="M316 86h47v277q-39 13 -80 13q-70 0 -109 -55q-28 -39 -28 -94q0 -64 39 -100q42 -41 131 -41zM453 0h-148q-130 0 -199 65q-65 59 -65 160q0 92 48 155q64 84 188 84q42 0 86 -13v217q0 13 12 13h78q13 0 13 -13v-656q0 -12 -13 -12zM682 601q1 -45 -31 -86t-77 -56
q-13 -4 -18 4l-11 16q-5 10 4 18q42 30 42 52q0 11 -7.5 19t-17 13.5t-17 18t-7.5 30.5q0 27 17.5 43.5t46.5 16.5q74 0 76 -89z" />
    <glyph glyph-name="Dcroat" unicode="&#x110;" horiz-adv-x="748" 
d="M704 340q0 -204 -153 -291q-88 -49 -224 -49h-236q-12 0 -12 12v280h-76q-12 0 -12 13v71q0 12 12 12h76v280q0 13 12 13h250q184 0 282 -106q81 -88 81 -235zM191 586v-198h138q13 0 13 -12v-71q0 -13 -13 -13h-138v-198h127q97 0 158 32q113 57 113 214q0 110 -57 172
q-67 74 -207 74h-134z" />
    <glyph glyph-name="dcroat" unicode="&#x111;" horiz-adv-x="534" 
d="M273 593h90v75q0 13 12 13h78q13 0 13 -13v-75h85q13 0 13 -12v-48q0 -12 -13 -12h-85v-509q0 -12 -13 -12h-148q-130 0 -199 65q-65 59 -65 160q0 92 48 155q64 84 188 84q42 0 86 -13v70h-90q-13 0 -13 12v48q0 12 13 12zM316 86h47v277q-39 13 -80 13q-70 0 -109 -55
q-28 -39 -28 -94q0 -64 39 -100q42 -41 131 -41z" />
    <glyph glyph-name="Emacron" unicode="&#x112;" horiz-adv-x="608" 
d="M83 681h476q12 0 12 -13v-74q0 -12 -12 -12h-376v-191h324q12 0 12 -12v-75q0 -12 -12 -12h-324v-193h376q12 0 12 -12v-75q0 -12 -12 -12h-476q-12 0 -12 12v656q0 5 3.5 9t8.5 4zM191 917h239q12 0 12 -12v-60q0 -5 -4 -8.5t-8 -3.5h-239q-5 0 -9 3.5t-4 8.5v60
q0 12 13 12z" />
    <glyph glyph-name="emacron" unicode="&#x113;" horiz-adv-x="524" 
d="M149 268h237q-3 48 -30 78q-32 35 -86 35q-59 0 -91 -37q-27 -32 -30 -76zM291 71q65 0 125 36q12 7 18 -3l27 -50q6 -9 -5 -16q-68 -48 -172 -48q-115 0 -180 70q-63 66 -63 173q0 99 64 166q61 64 166 64q114 0 171 -75q49 -64 43 -175q-2 -14 -14 -14h-322
q4 -51 34 -84q38 -44 108 -44zM142 694h239q12 0 12 -12v-60q0 -4 -3.5 -8t-8.5 -4h-239q-5 0 -9 3.5t-4 8.5v60q0 12 13 12z" />
    <glyph glyph-name="Edotaccent" unicode="&#x116;" horiz-adv-x="608" 
d="M83 681h476q12 0 12 -13v-74q0 -12 -12 -12h-376v-191h324q12 0 12 -12v-75q0 -12 -12 -12h-324v-193h376q12 0 12 -12v-75q0 -12 -12 -12h-476q-12 0 -12 12v656q0 5 3.5 9t8.5 4zM321 810q-25 0 -42.5 17.5t-17.5 42.5t17.5 42.5t42.5 17.5t42.5 -17.5t17.5 -42.5
t-17.5 -42.5t-42.5 -17.5z" />
    <glyph glyph-name="edotaccent" unicode="&#x117;" horiz-adv-x="524" 
d="M149 268h237q-3 48 -30 78q-32 35 -86 35q-59 0 -91 -37q-27 -32 -30 -76zM291 71q65 0 125 36q12 7 18 -3l27 -50q6 -9 -5 -16q-68 -48 -172 -48q-115 0 -180 70q-63 66 -63 173q0 99 64 166q61 64 166 64q114 0 171 -75q49 -64 43 -175q-2 -14 -14 -14h-322
q4 -51 34 -84q38 -44 108 -44zM268 604q-25 0 -42.5 17.5t-17.5 42.5t17.5 42.5t42.5 17.5t42.5 -17.5t17.5 -42.5t-17.5 -42.5t-42.5 -17.5z" />
    <glyph glyph-name="Eogonek" unicode="&#x118;" horiz-adv-x="608" 
d="M395 -116q0 64 75 116h-387q-12 0 -12 12v656q0 5 3.5 9t8.5 4h476q12 0 12 -13v-74q0 -12 -12 -12h-376v-191h324q12 0 12 -12v-75q0 -12 -12 -12h-324v-193h376q12 0 12 -12v-75q0 -12 -12 -12h-28q-64 -44 -64 -88q0 -38 43 -38q17 0 33 4.5t19 4.5q8 0 8 -8v-42
q0 -9 -7 -12q-37 -15 -73 -15q-41 0 -68 19t-27 59z" />
    <glyph glyph-name="eogonek" unicode="&#x119;" horiz-adv-x="524" 
d="M277 -102q0 49 49 95q-21 -3 -42 -3q-115 0 -180 70q-63 66 -63 173q0 99 64 166q61 64 166 64q114 0 171 -75q49 -64 43 -175q-2 -14 -14 -14h-322q4 -51 34 -84q38 -44 108 -44q65 0 125 36q12 7 18 -3l27 -50q6 -9 -5 -16q-15 -11 -37 -20q-70 -44 -70 -92
q0 -38 43 -38q17 0 33 4.5t19 4.5q8 0 8 -8v-42q0 -9 -7 -12q-37 -15 -73 -15q-41 0 -68 19t-27 59zM149 268h237q-3 48 -30 78q-32 35 -86 35q-59 0 -91 -37q-27 -32 -30 -76z" />
    <glyph glyph-name="Ecaron" unicode="&#x11a;" horiz-adv-x="608" 
d="M83 681h476q12 0 12 -13v-74q0 -12 -12 -12h-376v-191h324q12 0 12 -12v-75q0 -12 -12 -12h-324v-193h376q12 0 12 -12v-75q0 -12 -12 -12h-476q-12 0 -12 12v656q0 5 3.5 9t8.5 4zM343 773h-36q-8 0 -17 9l-149 168q-6 6 -4.5 12t9.5 6h65q11 0 22 -12l92 -102l93 102
q9 12 22 12h65q8 0 9.5 -6t-4.5 -12l-149 -168q-9 -9 -18 -9z" />
    <glyph glyph-name="ecaron" unicode="&#x11b;" horiz-adv-x="524" 
d="M149 268h237q-3 48 -30 78q-32 35 -86 35q-59 0 -91 -37q-27 -32 -30 -76zM291 71q65 0 125 36q12 7 18 -3l27 -50q6 -9 -5 -16q-68 -48 -172 -48q-115 0 -180 70q-63 66 -63 173q0 99 64 166q61 64 166 64q114 0 171 -75q49 -64 43 -175q-2 -14 -14 -14h-322
q4 -51 34 -84q38 -44 108 -44zM280 569h-36q-8 0 -17 9l-149 168q-6 6 -4.5 12t9.5 6h65q11 0 22 -12l92 -102l93 102q9 12 22 12h65q8 0 9.5 -6t-4.5 -12l-149 -168q-9 -9 -18 -9z" />
    <glyph glyph-name="Gbreve" unicode="&#x11e;" horiz-adv-x="742" 
d="M404 690q115 0 207 -51q13 -7 6 -17l-35 -73q-4 -11 -16 -5q-90 45 -165 45q-100 0 -170.5 -72.5t-70.5 -175.5q0 -112 68 -181.5t173 -69.5q103 0 169 49v115h-171q-13 0 -13 12v74q0 13 13 13h265q5 0 8.5 -4t3.5 -9v-328q0 -12 -12 -12h-81q-13 0 -13 12v26
q-76 -48 -179 -48q-150 0 -248.5 93t-98.5 258q0 146 105 247.5t255 101.5zM372 866q67 0 75 65q1 12 14 12h36q15 0 15 -13q0 -58 -37 -98t-103 -40t-103.5 40t-37.5 98q0 13 15 13h37q13 0 14 -12q7 -65 75 -65z" />
    <glyph glyph-name="gbreve" unicode="&#x11f;" horiz-adv-x="547" 
d="M256 -150q63 0 91 31q29 30 29 95v51q-51 -36 -123 -36q-92 0 -148 61q-64 66 -64 176q0 107 60 173q57 62 151 62q70 0 124 -42h3v22q0 12 12 12h75q5 0 9 -3.5t4 -8.5v-455q0 -116 -63 -172q-55 -51 -162 -51q-98 0 -172 49q-10 6 -5 16l30 59q6 10 18 3
q63 -42 131 -42zM265 77q66 0 111 37v220q-54 42 -109 42q-54 0 -87 -38q-34 -41 -34 -110q0 -76 34 -114q31 -37 85 -37zM273 653q67 0 75 65q2 12 14 12h36q15 0 15 -13q0 -58 -37 -98t-103 -40t-103.5 40t-37.5 98q0 13 15 13h37q12 0 14 -12q7 -65 75 -65z" />
    <glyph glyph-name="Gcommaaccent" unicode="&#x122;" horiz-adv-x="742" 
d="M404 690q115 0 207 -51q13 -7 6 -17l-35 -73q-4 -11 -16 -5q-90 45 -165 45q-100 0 -170.5 -72.5t-70.5 -175.5q0 -112 68 -181.5t173 -69.5q103 0 169 49v115h-171q-13 0 -13 12v74q0 13 13 13h265q5 0 8.5 -4t3.5 -9v-328q0 -12 -12 -12h-81q-13 0 -13 12v26
q-76 -48 -179 -48q-150 0 -248.5 93t-98.5 258q0 146 105 247.5t255 101.5zM469 -149q1 -45 -31 -86t-77 -56q-13 -4 -18 4l-11 16q-5 10 4 18q42 30 42 52q0 11 -7.5 19t-17 13.5t-17 18t-7.5 30.5q0 27 17.5 43.5t46.5 16.5q74 0 76 -89z" />
    <glyph glyph-name="gcommaaccent" unicode="&#x123;" horiz-adv-x="547" 
d="M201 646q-1 45 31.5 87t77.5 56q12 3 17 -5l11 -16q7 -11 -3 -17q-42 -30 -42 -53q0 -11 7.5 -19t17 -13.5t17 -17.5t7.5 -30q0 -27 -18 -44t-47 -17q-73 0 -76 89zM256 -150q63 0 91 31q29 30 29 95v51q-51 -36 -123 -36q-92 0 -148 61q-64 66 -64 176q0 107 60 173
q57 62 151 62q70 0 124 -42h3v22q0 12 12 12h75q5 0 9 -3.5t4 -8.5v-455q0 -116 -63 -172q-55 -51 -162 -51q-98 0 -172 49q-10 6 -5 16l30 59q6 10 18 3q63 -42 131 -42zM265 77q66 0 111 37v220q-54 42 -109 42q-54 0 -87 -38q-34 -41 -34 -110q0 -76 34 -114
q31 -37 85 -37z" />
    <glyph glyph-name="Imacron" unicode="&#x12a;" horiz-adv-x="254" 
d="M83 681h88q5 0 8.5 -4t3.5 -9v-656q0 -12 -12 -12h-88q-12 0 -12 12v656q0 5 3.5 9t8.5 4zM8 917h239q12 0 12 -12v-60q0 -5 -3.5 -8.5t-8.5 -3.5h-239q-5 0 -9 3.5t-4 8.5v60q0 12 13 12z" />
    <glyph glyph-name="imacron" unicode="&#x12b;" horiz-adv-x="240" 
d="M68 443q0 5 4 8.5t9 3.5h78q12 0 12 -12v-431q0 -12 -12 -12h-78q-13 0 -13 12v431zM1 694h239q12 0 12 -12v-60q0 -4 -4 -8t-8 -4h-239q-5 0 -9 3.5t-4 8.5v60q0 12 13 12z" />
    <glyph glyph-name="Iogonek" unicode="&#x12e;" horiz-adv-x="254" 
d="M-17 -116q0 36 25.5 69t62.5 55v4v656q0 5 3.5 9t8.5 4h88q5 0 8.5 -4t3.5 -9v-656q0 -12 -12 -12h-52q-64 -44 -64 -88q0 -38 43 -38q17 0 33 4.5t19 4.5q8 0 8 -8v-42q0 -9 -7 -12q-37 -15 -73 -15q-41 0 -68 19t-27 59z" />
    <glyph glyph-name="iogonek" unicode="&#x12f;" horiz-adv-x="240" 
d="M-14 -119q0 35 25 68t60 54q-3 3 -3 9v431q0 5 4 8.5t9 3.5h78q12 0 12 -12v-431q0 -12 -12 -12h-32q-28 -17 -48.5 -41.5t-20.5 -49.5q0 -38 43 -38q17 0 33 4.5t19 4.5q8 0 8 -8v-42q0 -8 -7 -12q-37 -15 -73 -15q-41 0 -68 19t-27 59zM119 604q-25 0 -42.5 17.5
t-17.5 42.5t17.5 42t42.5 17t42.5 -17t17.5 -42t-17.5 -42.5t-42.5 -17.5z" />
    <glyph glyph-name="Idotaccent" unicode="&#x130;" horiz-adv-x="254" 
d="M83 681h88q5 0 8.5 -4t3.5 -9v-656q0 -12 -12 -12h-88q-12 0 -12 12v656q0 5 3.5 9t8.5 4zM127 810q-25 0 -42.5 17.5t-17.5 42.5t17.5 42.5t42.5 17.5t42.5 -17.5t17.5 -42.5t-17.5 -42.5t-42.5 -17.5z" />
    <glyph glyph-name="dotlessi" unicode="&#x131;" horiz-adv-x="239" 
d="M68 443q0 5 4 8.5t9 3.5h78q12 0 12 -12v-431q0 -12 -12 -12h-78q-13 0 -13 12v431z" />
    <glyph glyph-name="Kcommaaccent" unicode="&#x136;" horiz-adv-x="632" 
d="M478 12l-231 290l-64 -65v-225q0 -12 -12 -12h-88q-12 0 -12 12v656q0 5 3.5 9t8.5 4h88q5 0 8.5 -4t3.5 -9v-288l274 288q10 13 25 13h110q9 0 11 -6t-4 -13l-273 -278l285 -363q6 -7 5 -14t-11 -7h-103q-15 0 -24 12zM387 -149q1 -45 -31 -86t-77 -56q-13 -4 -18 4
l-11 16q-5 10 4 18q42 30 42 52q0 11 -7.5 19t-17 13.5t-17 18t-7.5 30.5q0 27 17.5 43.5t46.5 16.5q74 0 76 -89z" />
    <glyph glyph-name="kcommaaccent" unicode="&#x137;" horiz-adv-x="512" 
d="M373 12l-145 183l-57 -52v-131q0 -12 -12 -12h-78q-13 0 -13 12v656q0 13 13 13h78q12 0 12 -13v-413l191 189q11 11 24 11h91q11 0 13 -7t-5 -14l-186 -173l194 -242q6 -6 4 -12.5t-13 -6.5h-90q-12 0 -21 12zM331 -149q1 -45 -31 -86t-77 -56q-13 -4 -18 4l-11 16
q-5 10 4 18q42 30 42 52q0 11 -7.5 19t-17 13.5t-17 18t-7.5 30.5q0 27 17.5 43.5t46.5 16.5q74 0 76 -89z" />
    <glyph glyph-name="Lacute" unicode="&#x139;" horiz-adv-x="538" 
d="M83 681h88q5 0 8.5 -4t3.5 -9v-569h319q12 0 12 -12v-75q0 -12 -12 -12h-419q-12 0 -12 12v656q0 5 3.5 9t8.5 4zM175 968h70q8 0 11 -6t-2 -13l-101 -164q-8 -12 -18 -12h-53q-17 0 -7 23l83 160q7 12 17 12z" />
    <glyph glyph-name="lacute" unicode="&#x13a;" horiz-adv-x="240" 
d="M68 668q0 13 13 13h78q12 0 12 -13v-656q0 -12 -12 -12h-78q-13 0 -13 12v656zM137 968h70q8 0 11 -6t-2 -13l-101 -164q-7 -12 -18 -12h-53q-17 0 -7 23l83 160q7 12 17 12z" />
    <glyph glyph-name="Lcommaaccent" unicode="&#x13b;" horiz-adv-x="538" 
d="M83 681h88q5 0 8.5 -4t3.5 -9v-569h319q12 0 12 -12v-75q0 -12 -12 -12h-419q-12 0 -12 12v656q0 5 3.5 9t8.5 4zM364 -149q1 -45 -31 -86t-77 -56q-13 -4 -18 4l-11 16q-5 10 4 18q42 30 42 52q0 11 -7.5 19t-17 13.5t-17 18t-7.5 30.5q0 27 17.5 43.5t46.5 16.5
q74 0 76 -89z" />
    <glyph glyph-name="lcommaaccent" unicode="&#x13c;" horiz-adv-x="240" 
d="M68 668q0 13 13 13h78q12 0 12 -13v-656q0 -12 -12 -12h-78q-13 0 -13 12v656zM192 -149q1 -45 -31 -86t-77 -56q-13 -4 -18 4l-11 16q-5 10 4 18q42 30 42 52q0 11 -7.5 19t-17 13.5t-17 18t-7.5 30.5q0 27 17.5 43.5t46.5 16.5q74 0 76 -89z" />
    <glyph glyph-name="Lcaron" unicode="&#x13d;" horiz-adv-x="538" 
d="M83 681h88q5 0 8.5 -4t3.5 -9v-569h319q12 0 12 -12v-75q0 -12 -12 -12h-419q-12 0 -12 12v656q0 5 3.5 9t8.5 4zM434 601q1 -45 -31 -86t-77 -56q-13 -4 -18 4l-11 16q-5 10 4 18q42 30 42 52q0 11 -7.5 19t-17 13.5t-17 18t-7.5 30.5q0 27 17.5 43.5t46.5 16.5
q74 0 76 -89z" />
    <glyph glyph-name="lcaron" unicode="&#x13e;" horiz-adv-x="372" 
d="M68 668q0 13 13 13h78q12 0 12 -13v-656q0 -12 -12 -12h-78q-13 0 -13 12v656zM368 600q1 -45 -31 -86t-77 -56q-13 -4 -18 4l-11 16q-5 10 4 18q42 30 42 52q0 11 -7.5 19t-17 13.5t-17 18t-7.5 30.5q0 27 17.5 43.5t46.5 16.5q74 0 76 -89z" />
    <glyph glyph-name="Lslash" unicode="&#x141;" horiz-adv-x="547" 
d="M92 681h87q13 0 13 -13v-255l85 55q10 6 17 -4l34 -53q8 -12 -3 -17l-133 -85v-210h319q5 0 8.5 -3.5t3.5 -8.5v-75q0 -12 -12 -12h-419q-12 0 -12 12v225l-62 -39q-10 -7 -17 3l-35 54q-8 10 4 17l110 70v326q0 13 12 13z" />
    <glyph glyph-name="lslash" unicode="&#x142;" horiz-adv-x="243" 
d="M310 398l-137 -88v-298q0 -12 -13 -12h-78q-12 0 -12 12v232l-65 -41q-12 -7 -18 4l-34 53q-7 10 3 17l114 73v318q0 5 3.5 9t8.5 4h78q13 0 13 -13v-252l88 56q10 6 17 -3l35 -54q6 -12 -3 -17z" />
    <glyph glyph-name="Nacute" unicode="&#x143;" horiz-adv-x="741" 
d="M563 184v484q0 13 12 13h82q13 0 13 -13v-656q0 -12 -13 -12h-78q-14 0 -22 13l-379 483v-484q0 -12 -12 -12h-83q-12 0 -12 12v656q0 5 3.5 9t8.5 4h78q13 0 23 -13zM385 968h70q8 0 11 -6t-2 -13l-101 -164q-7 -12 -18 -12h-53q-17 0 -7 23l83 160q7 12 17 12z" />
    <glyph glyph-name="nacute" unicode="&#x144;" horiz-adv-x="565" 
d="M504 273v-261q0 -12 -12 -12h-79q-12 0 -12 12v236q0 72 -29 102q-26 26 -73 26q-70 0 -104 -60q-24 -44 -24 -106v-198q0 -12 -12 -12h-78q-13 0 -13 12v431q0 5 4 8.5t9 3.5h74q5 0 9 -3.5t4 -8.5v-49h3q50 70 148 70q85 0 132 -43q53 -47 53 -148zM299 764h70
q8 0 11 -6t-2 -13l-101 -164q-7 -12 -18 -12h-53q-17 0 -7 23l83 160q7 12 17 12z" />
    <glyph glyph-name="Ncommaaccent" unicode="&#x145;" horiz-adv-x="741" 
d="M563 184v484q0 13 12 13h82q13 0 13 -13v-656q0 -12 -13 -12h-78q-14 0 -22 13l-379 483v-484q0 -12 -12 -12h-83q-12 0 -12 12v656q0 5 3.5 9t8.5 4h78q13 0 23 -13zM441 -149q1 -45 -31 -86t-77 -56q-13 -4 -18 4l-11 16q-5 10 4 18q42 30 42 52q0 11 -7.5 19t-17 13.5
t-17 18t-7.5 30.5q0 27 17.5 43.5t46.5 16.5q74 0 76 -89z" />
    <glyph glyph-name="ncommaaccent" unicode="&#x146;" horiz-adv-x="565" 
d="M504 273v-261q0 -12 -12 -12h-79q-12 0 -12 12v236q0 72 -29 102q-26 26 -73 26q-70 0 -104 -60q-24 -44 -24 -106v-198q0 -12 -12 -12h-78q-13 0 -13 12v431q0 5 4 8.5t9 3.5h74q5 0 9 -3.5t4 -8.5v-49h3q50 70 148 70q85 0 132 -43q53 -47 53 -148zM357 -149
q1 -45 -31 -86t-77 -56q-13 -4 -18 4l-11 16q-5 10 4 18q42 30 42 52q0 11 -7.5 19t-17 13.5t-17 18t-7.5 30.5q0 27 17.5 43.5t46.5 16.5q74 0 76 -89z" />
    <glyph glyph-name="Ncaron" unicode="&#x147;" horiz-adv-x="741" 
d="M563 184v484q0 13 12 13h82q13 0 13 -13v-656q0 -12 -13 -12h-78q-14 0 -22 13l-379 483v-484q0 -12 -12 -12h-83q-12 0 -12 12v656q0 5 3.5 9t8.5 4h78q13 0 23 -13zM389 773h-36q-8 0 -17 9l-149 168q-6 6 -4.5 12t9.5 6h65q11 0 22 -12l92 -102l93 102q9 12 22 12h65
q8 0 9.5 -6t-4.5 -12l-149 -168q-9 -9 -18 -9z" />
    <glyph glyph-name="ncaron" unicode="&#x148;" horiz-adv-x="565" 
d="M504 273v-261q0 -12 -12 -12h-79q-12 0 -12 12v236q0 72 -29 102q-26 26 -73 26q-70 0 -104 -60q-24 -44 -24 -106v-198q0 -12 -12 -12h-78q-13 0 -13 12v431q0 5 4 8.5t9 3.5h74q5 0 9 -3.5t4 -8.5v-49h3q50 70 148 70q85 0 132 -43q53 -47 53 -148zM303 569h-36
q-8 0 -17 9l-149 168q-6 6 -4.5 12t9.5 6h65q11 0 22 -12l92 -102l93 102q9 12 22 12h65q8 0 9.5 -6t-4.5 -12l-149 -168q-9 -9 -18 -9z" />
    <glyph glyph-name="Omacron" unicode="&#x14c;" horiz-adv-x="808" 
d="M764 339q0 -150 -105.5 -249.5t-254.5 -99.5t-254.5 100t-105.5 249q0 150 105.5 250.5t254.5 100.5t254.5 -100.5t105.5 -250.5zM645 339q0 103 -69.5 174.5t-171.5 71.5t-172 -71.5t-70 -174.5t70 -174t172 -71t171.5 71t69.5 174zM285 917h239q12 0 12 -12v-60
q0 -5 -4 -8.5t-8 -3.5h-239q-5 0 -9 3.5t-4 8.5v60q0 12 13 12z" />
    <glyph glyph-name="omacron" unicode="&#x14d;" horiz-adv-x="569" 
d="M143 227q0 -63 39 -107q41 -44 103 -44q61 0 102 44q40 45 40 107t-40 107q-41 44 -102 44q-62 0 -103 -44q-39 -44 -39 -107zM41 227q0 103 71 171q71 66 173 66t173 -66q70 -67 70 -171q0 -108 -70 -172q-68 -65 -173 -65t-173 65q-71 65 -71 172zM165 694h239
q12 0 12 -12v-60q0 -4 -4 -8t-8 -4h-239q-5 0 -9 3.5t-4 8.5v60q0 12 13 12z" />
    <glyph glyph-name="Ohungarumlaut" unicode="&#x150;" horiz-adv-x="808" 
d="M764 339q0 -150 -105.5 -249.5t-254.5 -99.5t-254.5 100t-105.5 249q0 150 105.5 250.5t254.5 100.5t254.5 -100.5t105.5 -250.5zM645 339q0 103 -69.5 174.5t-171.5 71.5t-172 -71.5t-70 -174.5t70 -174t172 -71t171.5 71t69.5 174zM519 968h70q11 0 11 -8q0 -7 -4 -11
l-117 -166q-7 -10 -17 -10h-55q-10 0 -10 8q0 5 4 10l99 165q9 12 19 12zM346 968h70q11 0 11 -8q0 -7 -5 -11l-116 -166q-8 -10 -17 -10h-55q-11 0 -11 8q0 2 4 10l100 165q7 12 19 12z" />
    <glyph glyph-name="ohungarumlaut" unicode="&#x151;" horiz-adv-x="569" 
d="M143 227q0 -63 39 -107q41 -44 103 -44q61 0 102 44q40 45 40 107t-40 107q-41 44 -102 44q-62 0 -103 -44q-39 -44 -39 -107zM41 227q0 103 71 171q71 66 173 66t173 -66q70 -67 70 -171q0 -108 -70 -172q-68 -65 -173 -65t-173 65q-71 65 -71 172zM405 763h70
q11 0 11 -8q0 -7 -4 -11l-117 -166q-7 -10 -17 -10h-55q-10 0 -10 8q0 5 4 10l99 165q9 12 19 12zM232 763h70q11 0 11 -8q0 -7 -5 -11l-116 -166q-8 -10 -17 -10h-55q-11 0 -11 8q0 2 4 10l100 165q7 12 19 12z" />
    <glyph glyph-name="OE" unicode="&#x152;" horiz-adv-x="1185" 
d="M660 681h476q12 0 12 -13v-74q0 -12 -12 -12h-376v-191h324q12 0 12 -12v-75q0 -12 -12 -12h-323q-1 -2 -1 -6v-187h376q12 0 12 -12v-75q0 -12 -12 -12h-476q-12 0 -12 12v68q-103 -90 -244 -90q-149 0 -254.5 100t-105.5 249q0 150 105.5 250.5t254.5 100.5
q140 0 244 -91v69q0 5 3.5 9t8.5 4zM645 339q0 103 -69.5 174.5t-171.5 71.5t-172 -71.5t-70 -174.5t70 -174t172 -71t171.5 71t69.5 174z" />
    <glyph glyph-name="oe" unicode="&#x153;" horiz-adv-x="910" 
d="M677 71q65 0 125 36q12 7 18 -3l27 -50q6 -9 -5 -16q-68 -48 -172 -48q-115 0 -180 70q-5 4 -13 14l-19 -19q-68 -65 -173 -65t-173 65q-71 65 -71 172q0 103 71 171q71 66 173 66t173 -66l17 -18q15 18 16 19q61 64 166 64q114 0 171 -75q49 -64 43 -175q-2 -14 -14 -14
h-322q4 -51 34 -84q38 -44 108 -44zM143 227q0 -63 39 -107q41 -44 103 -44q61 0 102 44q40 45 40 107v6q-3 57 -40 101q-41 44 -102 44q-62 0 -103 -44q-39 -44 -39 -107zM535 268h237q-3 48 -30 78q-32 35 -86 35q-59 0 -91 -37q-27 -32 -30 -76z" />
    <glyph glyph-name="Racute" unicode="&#x154;" horiz-adv-x="652" 
d="M535 302q-35 -28 -81 -41l167 -240q13 -21 -6 -21h-97q-17 0 -24 13l-161 238h-150v-239q0 -12 -12 -12h-88q-12 0 -12 12v656q0 5 3.5 9t8.5 4h281q110 0 169 -42q80 -58 80 -173q0 -104 -78 -164zM354 586h-171v-241h162q70 0 105 21q49 29 49 99t-47 99q-33 22 -98 22
zM343 968h70q8 0 11 -6t-2 -13l-101 -164q-7 -12 -18 -12h-53q-17 0 -7 23l83 160q7 12 17 12z" />
    <glyph glyph-name="racute" unicode="&#x155;" horiz-adv-x="401" 
d="M249 764h70q8 0 11 -6t-2 -13l-101 -164q-7 -12 -18 -12h-53q-17 0 -7 23l83 160q7 12 17 12zM274 372q-54 0 -78.5 -45t-24.5 -107v-208q0 -12 -12 -12h-78q-13 0 -13 12v431q0 5 4 8.5t9 3.5h74q5 0 9 -3.5t4 -8.5v-44h3q43 64 119 64q65 0 110 -37q10 -8 5 -17
l-29 -60q-5 -11 -18 -3q-42 26 -84 26z" />
    <glyph glyph-name="Rcommaaccent" unicode="&#x156;" horiz-adv-x="652" 
d="M535 302q-35 -28 -81 -41l167 -240q13 -21 -6 -21h-97q-17 0 -24 13l-161 238h-150v-239q0 -12 -12 -12h-88q-12 0 -12 12v656q0 5 3.5 9t8.5 4h281q110 0 169 -42q80 -58 80 -173q0 -104 -78 -164zM354 586h-171v-241h162q70 0 105 21q49 29 49 99t-47 99q-33 22 -98 22
zM404 -149q1 -45 -31 -86t-77 -56q-13 -4 -18 4l-11 16q-5 10 4 18q42 30 42 52q0 11 -7.5 19t-17 13.5t-17 18t-7.5 30.5q0 27 17.5 43.5t46.5 16.5q74 0 76 -89z" />
    <glyph glyph-name="rcommaaccent" unicode="&#x157;" horiz-adv-x="401" 
d="M221 -149q1 -45 -31 -86t-77 -56q-13 -4 -18 4l-11 16q-5 10 4 18q42 30 42 52q0 11 -7.5 19t-17 13.5t-17 18t-7.5 30.5q0 27 17.5 43.5t46.5 16.5q74 0 76 -89zM274 372q-54 0 -78.5 -45t-24.5 -107v-208q0 -12 -12 -12h-78q-13 0 -13 12v431q0 5 4 8.5t9 3.5h74
q5 0 9 -3.5t4 -8.5v-44h3q43 64 119 64q65 0 110 -37q10 -8 5 -17l-29 -60q-5 -11 -18 -3q-42 26 -84 26z" />
    <glyph glyph-name="Rcaron" unicode="&#x158;" horiz-adv-x="652" 
d="M535 302q-35 -28 -81 -41l167 -240q13 -21 -6 -21h-97q-17 0 -24 13l-161 238h-150v-239q0 -12 -12 -12h-88q-12 0 -12 12v656q0 5 3.5 9t8.5 4h281q110 0 169 -42q80 -58 80 -173q0 -104 -78 -164zM354 586h-171v-241h162q70 0 105 21q49 29 49 99t-47 99q-33 22 -98 22
zM343 773h-36q-8 0 -17 9l-149 168q-6 6 -4.5 12t9.5 6h65q11 0 22 -12l92 -102l93 102q9 12 22 12h65q8 0 9.5 -6t-4.5 -12l-149 -168q-9 -9 -18 -9z" />
    <glyph glyph-name="rcaron" unicode="&#x159;" horiz-adv-x="402" 
d="M242 569h-36q-8 0 -17 9l-149 168q-6 6 -4.5 12t9.5 6h65q11 0 22 -12l92 -102l93 102q9 12 22 12h65q8 0 9.5 -6t-4.5 -12l-149 -168q-9 -9 -18 -9zM274 372q-54 0 -78.5 -45t-24.5 -107v-208q0 -12 -12 -12h-78q-13 0 -13 12v431q0 5 4 8.5t9 3.5h74q5 0 9 -3.5t4 -8.5
v-44h3q43 64 119 64q65 0 110 -37q10 -8 5 -17l-29 -60q-5 -11 -18 -3q-42 26 -84 26z" />
    <glyph glyph-name="Sacute" unicode="&#x15a;" horiz-adv-x="567" 
d="M278 -10q-133 0 -236 64q-11 6 -5 17l35 74q5 11 16 4q30 -19 51 -29.5t60 -22t78 -11.5q61 0 95 26q37 27 37 77q0 58 -86 91q-13 5 -81.5 27t-106.5 43q-94 53 -94 151q0 87 65 137q66 52 186 52q118 0 208 -50q10 -6 5 -17l-35 -73q-6 -11 -17 -5q-82 48 -167 48
q-66 0 -98 -27q-29 -23 -29 -60q0 -31 23.5 -50.5t69.5 -35.5q20 -7 62 -19t74.5 -24t58.5 -29q84 -53 84 -150t-74 -155q-67 -53 -179 -53zM296 968h70q8 0 11 -6t-2 -13l-101 -164q-8 -12 -18 -12h-53q-17 0 -7 23l83 160q7 12 17 12z" />
    <glyph glyph-name="sacute" unicode="&#x15b;" horiz-adv-x="420" 
d="M197 70q79 0 79 51q0 20 -13.5 32t-40.5 25q-13 6 -49 19t-54 21q-75 35 -75 117q0 61 45 95t128 34t145 -34q11 -6 6 -16l-28 -57q-6 -10 -16 -4q-49 27 -101 27q-73 0 -73 -43q0 -18 12.5 -29t36.5 -22q10 -4 46.5 -17.5t54.5 -22.5q82 -40 82 -116q0 -63 -49 -101.5
t-131 -38.5q-98 0 -159 40q-9 6 -5 15l28 57q5 11 16 5q58 -37 115 -37zM231 764h70q8 0 11 -6t-2 -13l-101 -164q-7 -12 -18 -12h-53q-17 0 -7 23l83 160q7 12 17 12z" />
    <glyph glyph-name="Scedilla" unicode="&#x15e;" horiz-adv-x="567" 
d="M391 -112q0 -50 -41 -72t-96 -22q-23 0 -41 3q-10 2 -10 11v30q0 10 10 10q3 0 15 -1t22 -1q71 0 71 45q0 37 -59 37q-13 0 -23 -1l6 64q-114 8 -203 63q-11 6 -5 17l35 74q5 11 16 4q30 -19 51 -29.5t60 -22t78 -11.5q61 0 95 26q37 27 37 77q0 58 -86 91
q-13 5 -81.5 27t-106.5 43q-94 53 -94 151q0 87 65 137q66 52 186 52q118 0 208 -50q10 -6 5 -17l-35 -73q-6 -11 -17 -5q-82 48 -167 48q-66 0 -98 -27q-29 -23 -29 -60q0 -31 23.5 -50.5t69.5 -35.5q20 -7 62 -19t74.5 -24t58.5 -29q84 -53 84 -150t-74 -155
q-59 -47 -157 -52v-23q42 -4 66.5 -25.5t24.5 -54.5z" />
    <glyph glyph-name="scedilla" unicode="&#x15f;" horiz-adv-x="420" 
d="M315 -112q0 -50 -41 -72t-96 -22q-23 0 -41 3q-10 2 -10 11v30q0 10 10 10q3 0 15 -1t22 -1q71 0 71 45q0 37 -59 37q-13 0 -23 -1l6 64q-77 7 -126 39q-9 6 -5 15l28 57q5 11 16 5q58 -37 115 -37q79 0 79 51q0 20 -13.5 32t-40.5 25q-13 6 -49 19t-54 21
q-75 35 -75 117q0 61 45 95t128 34t145 -34q11 -6 6 -16l-28 -57q-6 -10 -16 -4q-49 27 -101 27q-73 0 -73 -43q0 -18 12.5 -29t36.5 -22q10 -4 46.5 -17.5t54.5 -22.5q82 -40 82 -116q0 -59 -42.5 -96.5t-115.5 -42.5v-23q42 -4 66.5 -25.5t24.5 -54.5z" />
    <glyph glyph-name="Scaron" unicode="&#x160;" horiz-adv-x="567" 
d="M278 -10q-133 0 -236 64q-11 6 -5 17l35 74q5 11 16 4q30 -19 51 -29.5t60 -22t78 -11.5q61 0 95 26q37 27 37 77q0 58 -86 91q-13 5 -81.5 27t-106.5 43q-94 53 -94 151q0 87 65 137q66 52 186 52q118 0 208 -50q10 -6 5 -17l-35 -73q-6 -11 -17 -5q-82 48 -167 48
q-66 0 -98 -27q-29 -23 -29 -60q0 -31 23.5 -50.5t69.5 -35.5q20 -7 62 -19t74.5 -24t58.5 -29q84 -53 84 -150t-74 -155q-67 -53 -179 -53zM300 788h-36q-8 0 -17 9l-149 168q-6 6 -4.5 12t9.5 6h65q11 0 22 -12l92 -102l93 102q9 12 22 12h65q8 0 9.5 -6t-4.5 -12
l-149 -168q-9 -9 -18 -9z" />
    <glyph glyph-name="scaron" unicode="&#x161;" horiz-adv-x="432" 
d="M201 70q79 0 79 51q0 20 -13.5 32t-40.5 25q-13 6 -49 19t-54 21q-75 35 -75 117q0 61 45 95t128 34t145 -34q11 -6 6 -16l-28 -57q-6 -10 -16 -4q-50 27 -101 27q-73 0 -73 -43q0 -18 12.5 -29t36.5 -22q10 -4 46.5 -17.5t54.5 -22.5q82 -40 82 -116q0 -63 -49 -101.5
t-131 -38.5q-98 0 -159 40q-9 6 -5 15l28 57q5 11 16 5q58 -37 115 -37zM232 569h-36q-8 0 -17 9l-149 168q-6 6 -4.5 12t9.5 6h65q11 0 22 -12l92 -102l93 102q9 12 22 12h65q8 0 9.5 -6t-4.5 -12l-149 -168q-9 -9 -18 -9z" />
    <glyph glyph-name="Tcommaaccent" unicode="&#x162;" horiz-adv-x="581" 
d="M18 681h545q12 0 12 -13v-74q0 -12 -12 -12h-216v-570q0 -12 -13 -12h-87q-12 0 -12 12v570h-217q-12 0 -12 12v74q0 13 12 13zM362 -149q1 -45 -31 -86t-77 -56q-13 -4 -18 4l-11 16q-5 10 4 18q42 30 42 52q0 11 -7.5 19t-17 13.5t-17 18t-7.5 30.5q0 27 17.5 43.5
t46.5 16.5q74 0 76 -89z" />
    <glyph glyph-name="tcommaaccent" unicode="&#x163;" horiz-adv-x="373" 
d="M185 374v-205q0 -39 12 -62q17 -29 59 -29q38 0 73 27q13 9 19 -2l26 -56q5 -9 -5 -16q-57 -41 -139 -41q-78 0 -114 44q-34 41 -34 122v218h-51q-5 0 -9 3.5t-4 8.5v57q0 5 4 8.5t9 3.5h51v89q0 5 4 8.5t9 3.5h78q5 0 8.5 -4t3.5 -8v-89h142q5 0 8.5 -3.5t3.5 -8.5v-57
q0 -4 -3.5 -8t-8.5 -4h-142zM298 -149q1 -45 -31 -86t-77 -56q-13 -4 -18 4l-11 16q-5 10 4 18q42 30 42 52q0 11 -7.5 19t-17 13.5t-17 18t-7.5 30.5q0 27 17.5 43.5t46.5 16.5q74 0 76 -89z" />
    <glyph glyph-name="Tcaron" unicode="&#x164;" horiz-adv-x="581" 
d="M18 681h545q12 0 12 -13v-74q0 -12 -12 -12h-216v-570q0 -12 -13 -12h-87q-12 0 -12 12v570h-217q-12 0 -12 12v74q0 13 12 13zM308 773h-36q-8 0 -17 9l-149 168q-6 6 -4.5 12t9.5 6h65q11 0 22 -12l92 -102l93 102q9 12 22 12h65q8 0 9.5 -6t-4.5 -12l-149 -168
q-9 -9 -18 -9z" />
    <glyph glyph-name="tcaron" unicode="&#x165;" horiz-adv-x="460" 
d="M185 374v-205q0 -39 12 -62q17 -29 59 -29q38 0 73 27q13 9 19 -2l26 -56q5 -9 -5 -16q-57 -41 -139 -41q-78 0 -114 44q-34 41 -34 122v218h-51q-5 0 -9 3.5t-4 8.5v57q0 5 4 8.5t9 3.5h51v89q0 5 4 8.5t9 3.5h78q5 0 8.5 -4t3.5 -8v-89h142q5 0 8.5 -3.5t3.5 -8.5v-57
q0 -4 -3.5 -8t-8.5 -4h-142zM469 601q1 -45 -31 -86t-77 -56q-13 -4 -18 4l-11 16q-5 10 4 18q42 30 42 52q0 11 -7.5 19t-17 13.5t-17 18t-7.5 30.5q0 27 17.5 43.5t46.5 16.5q74 0 76 -89z" />
    <glyph glyph-name="Umacron" unicode="&#x16a;" horiz-adv-x="723" 
d="M541 281v387q0 5 3.5 9t8.5 4h88q5 0 8.5 -4t3.5 -9v-399q0 -118 -64 -191q-79 -88 -228 -88q-148 0 -227 88q-64 73 -64 191v399q0 13 12 13h87q13 0 13 -13v-387q0 -88 42 -136q47 -54 136 -54q91 0 138 54q43 47 43 136zM241 917h239q12 0 12 -12v-60q0 -5 -4 -8.5
t-8 -3.5h-239q-5 0 -9 3.5t-4 8.5v60q0 12 13 12z" />
    <glyph glyph-name="umacron" unicode="&#x16b;" horiz-adv-x="556" 
d="M61 194v249q0 12 12 12h78q5 0 9 -3.5t4 -8.5v-242q0 -46 15 -75q27 -48 99 -48t98 48q16 28 16 75v242q0 5 4 8.5t9 3.5h78q12 0 12 -12v-249q0 -82 -37 -131q-53 -73 -180 -73t-180 73q-37 49 -37 131zM159 694h239q12 0 12 -12v-60q0 -4 -4 -8t-8 -4h-239q-5 0 -9 3.5
t-4 8.5v60q0 12 13 12z" />
    <glyph glyph-name="Uring" unicode="&#x16e;" horiz-adv-x="723" 
d="M541 281v387q0 5 3.5 9t8.5 4h88q5 0 8.5 -4t3.5 -9v-399q0 -118 -64 -191q-79 -88 -228 -88q-148 0 -227 88q-64 73 -64 191v399q0 13 12 13h87q13 0 13 -13v-387q0 -88 42 -136q47 -54 136 -54q91 0 138 54q43 47 43 136zM479 860q0 -49 -34.5 -83.5t-83.5 -34.5
t-84 34.5t-35 83.5t35 84t84 35t83.5 -35t34.5 -84zM432 860q0 30 -21 51.5t-50 21.5t-50 -21.5t-21 -51.5t21 -51t50 -21t50 21t21 51z" />
    <glyph glyph-name="uring" unicode="&#x16f;" horiz-adv-x="556" 
d="M61 194v249q0 12 12 12h78q5 0 9 -3.5t4 -8.5v-242q0 -46 15 -75q27 -48 99 -48t98 48q16 28 16 75v242q0 5 4 8.5t9 3.5h78q12 0 12 -12v-249q0 -82 -37 -131q-53 -73 -180 -73t-180 73q-37 49 -37 131zM396 664q0 -49 -34.5 -83.5t-83.5 -34.5t-84 34.5t-35 83.5t35 84
t84 35t83.5 -35t34.5 -84zM349 664q0 30 -21 51.5t-50 21.5t-50 -21.5t-21 -51.5t21 -51t50 -21t50 21t21 51z" />
    <glyph glyph-name="Uhungarumlaut" unicode="&#x170;" horiz-adv-x="723" 
d="M541 281v387q0 5 3.5 9t8.5 4h88q5 0 8.5 -4t3.5 -9v-399q0 -118 -64 -191q-79 -88 -228 -88q-148 0 -227 88q-64 73 -64 191v399q0 13 12 13h87q13 0 13 -13v-387q0 -88 42 -136q47 -54 136 -54q91 0 138 54q43 47 43 136zM486 968h70q11 0 11 -8q0 -7 -4 -11l-117 -166
q-8 -10 -17 -10h-55q-10 0 -10 8q0 5 4 10l99 165q9 12 19 12zM313 968h70q11 0 11 -8q0 -7 -5 -11l-116 -166q-7 -10 -17 -10h-55q-11 0 -11 8q0 2 4 10l100 165q7 12 19 12z" />
    <glyph glyph-name="uhungarumlaut" unicode="&#x171;" horiz-adv-x="556" 
d="M61 194v249q0 12 12 12h78q5 0 9 -3.5t4 -8.5v-242q0 -46 15 -75q27 -48 99 -48t98 48q16 28 16 75v242q0 5 4 8.5t9 3.5h78q12 0 12 -12v-249q0 -82 -37 -131q-53 -73 -180 -73t-180 73q-37 49 -37 131zM408 763h70q11 0 11 -8q0 -7 -4 -11l-117 -166q-8 -10 -17 -10
h-55q-10 0 -10 8q0 5 4 10l99 165q9 12 19 12zM235 763h70q11 0 11 -8q0 -7 -5 -11l-116 -166q-7 -10 -17 -10h-55q-11 0 -11 8q0 2 4 10l100 165q7 12 19 12z" />
    <glyph glyph-name="Uogonek" unicode="&#x172;" horiz-adv-x="723" 
d="M265 -116q0 57 63 107q-127 11 -194 87q-64 73 -64 191v399q0 13 12 13h87q13 0 13 -13v-387q0 -88 42 -136q47 -54 136 -54q91 0 138 54q43 47 43 136v387q0 5 3.5 9t8.5 4h88q5 0 8.5 -4t3.5 -9v-399q0 -118 -64 -191q-70 -78 -200 -87q-52 -40 -52 -79q0 -38 43 -38
q17 0 33 4.5t19 4.5q8 0 8 -8v-42q0 -9 -7 -12q-37 -15 -73 -15q-41 0 -68 19t-27 59z" />
    <glyph glyph-name="uogonek" unicode="&#x173;" horiz-adv-x="556" 
d="M191 -116q0 56 62 107q-108 6 -155 72q-37 49 -37 131v249q0 12 12 12h78q5 0 9 -3.5t4 -8.5v-242q0 -46 15 -75q27 -48 99 -48t98 48q16 28 16 75v242q0 5 4 8.5t9 3.5h78q12 0 12 -12v-249q0 -82 -37 -131q-44 -60 -142 -71q-53 -39 -53 -80q0 -38 43 -38q17 0 33 4.5
t19 4.5q8 0 8 -8v-42q0 -9 -7 -12q-37 -15 -73 -15q-41 0 -68 19t-27 59z" />
    <glyph glyph-name="Wcircumflex" unicode="&#x174;" horiz-adv-x="1059" 
d="M877 248v420q0 13 13 13h87q12 0 12 -13v-421q0 -120 -65 -187q-69 -70 -192 -70q-66 0 -118 28q-54 29 -85 89q-30 -59 -84 -89q-52 -28 -118 -28q-123 0 -192 70q-65 67 -65 187v421q0 13 12 13h87q13 0 13 -13v-420q0 -74 36 -113q38 -41 110 -41q64 0 99 36
q46 46 46 135v403q0 13 13 13h87q12 0 12 -13v-403q0 -88 47 -135q34 -36 99 -36q72 0 109 41q37 39 37 113zM510 968h36q9 0 18 -9l149 -168q6 -7 4.5 -12.5t-9.5 -5.5h-65q-12 0 -22 11l-93 103l-92 -103q-11 -11 -22 -11h-65q-8 0 -9.5 5.5t4.5 12.5l149 168q9 9 17 9z
" />
    <glyph glyph-name="wcircumflex" unicode="&#x175;" horiz-adv-x="801" 
d="M740 443v-248q0 -84 -29 -132q-43 -73 -155 -73q-80 0 -122 42q-22 21 -33 42q-12 -22 -34 -42q-44 -42 -121 -42q-112 0 -156 73q-29 49 -29 132v248q0 12 12 12h78q5 0 9 -3.5t4 -8.5v-244q0 -50 15 -79q20 -40 75 -40q60 0 82 48q13 27 13 73v242q0 5 4 8.5t9 3.5h78
q12 0 12 -12v-242q0 -43 13 -73q22 -48 83 -48q53 0 75 40q16 29 16 79v244q0 12 12 12h77q12 0 12 -12zM381 764h36q9 0 18 -9l149 -168q6 -7 4.5 -12.5t-9.5 -5.5h-65q-12 0 -22 11l-93 103l-92 -103q-11 -11 -22 -11h-65q-8 0 -9.5 5.5t4.5 12.5l149 168q9 9 17 9z" />
    <glyph glyph-name="Ycircumflex" unicode="&#x176;" horiz-adv-x="635" 
d="M317 402l183 266q8 13 20 13h101q9 0 11.5 -6.5t-2.5 -13.5l-257 -370v-279q0 -12 -13 -12h-87q-12 0 -12 12v279l-256 370q-6 7 -3.5 13.5t12.5 6.5h99q14 0 21 -13zM299 968h36q9 0 18 -9l149 -168q6 -7 4.5 -12.5t-9.5 -5.5h-65q-12 0 -22 11l-93 103l-92 -103
q-11 -11 -22 -11h-65q-8 0 -9.5 5.5t4.5 12.5l149 168q9 9 17 9z" />
    <glyph glyph-name="ycircumflex" unicode="&#x177;" horiz-adv-x="506" 
d="M500 438l-177 -463q-39 -101 -89 -148q-68 -67 -183 -61q-10 0 -10 10v78q0 9 11 9q3 0 10.5 -0.5t14.5 -0.5q48 0 85 35q29 29 50 74l-207 467q-7 17 10 17h94q16 0 20 -14l136 -342l119 342q4 14 20 14h87q14 0 9 -17zM236 764h36q9 0 18 -9l149 -168q6 -7 4.5 -12.5
t-9.5 -5.5h-65q-12 0 -22 11l-93 103l-92 -103q-11 -11 -22 -11h-65q-8 0 -9.5 5.5t4.5 12.5l149 168q9 9 17 9z" />
    <glyph glyph-name="Ydieresis" unicode="&#x178;" horiz-adv-x="635" 
d="M317 402l183 266q8 13 20 13h101q9 0 11.5 -6.5t-2.5 -13.5l-257 -370v-279q0 -12 -13 -12h-87q-12 0 -12 12v279l-256 370q-6 7 -3.5 13.5t12.5 6.5h99q14 0 21 -13zM212 805q-25 0 -42.5 17.5t-17.5 42.5t17.5 42.5t42.5 17.5t43 -17.5t18 -42.5t-18 -42.5t-43 -17.5z
M422 805q-25 0 -42.5 17.5t-17.5 42.5t17.5 42.5t42.5 17.5t42.5 -17.5t17.5 -42.5t-17.5 -42.5t-42.5 -17.5z" />
    <glyph glyph-name="Zacute" unicode="&#x179;" horiz-adv-x="594" 
d="M12 18l375 564h-353q-12 0 -12 12v74q0 13 12 13h525q13 0 13 -11q0 -4 -3 -8l-374 -563h372q12 0 12 -12v-75q0 -12 -12 -12h-545q-12 0 -12 10q0 6 2 8zM316 968h70q8 0 11 -6t-2 -13l-101 -164q-8 -12 -18 -12h-53q-17 0 -7 23l83 160q7 12 17 12z" />
    <glyph glyph-name="zacute" unicode="&#x17a;" horiz-adv-x="425" 
d="M403 0h-384q-10 0 -11 6t4 11l242 349h-225q-12 0 -12 12v65q0 5 3.5 8.5t8.5 3.5h374q8 0 10.5 -5.5t-1.5 -12.5l-241 -347h232q12 0 12 -13v-65q0 -12 -12 -12zM234 764h70q8 0 11 -6t-2 -13l-101 -164q-7 -12 -18 -12h-53q-17 0 -7 23l83 160q7 12 17 12z" />
    <glyph glyph-name="Zdotaccent" unicode="&#x17b;" horiz-adv-x="594" 
d="M12 18l375 564h-353q-12 0 -12 12v74q0 13 12 13h525q13 0 13 -11q0 -4 -3 -8l-374 -563h372q12 0 12 -12v-75q0 -12 -12 -12h-545q-12 0 -12 10q0 6 2 8zM286 810q-25 0 -42.5 17.5t-17.5 42.5t17.5 42.5t42.5 17.5t42.5 -17.5t17.5 -42.5t-17.5 -42.5t-42.5 -17.5z" />
    <glyph glyph-name="zdotaccent" unicode="&#x17c;" horiz-adv-x="425" 
d="M403 0h-384q-10 0 -11 6t4 11l242 349h-225q-12 0 -12 12v65q0 5 3.5 8.5t8.5 3.5h374q8 0 10.5 -5.5t-1.5 -12.5l-241 -347h232q12 0 12 -13v-65q0 -12 -12 -12zM211 604q-25 0 -42.5 17.5t-17.5 42.5t17.5 42.5t42.5 17.5t42.5 -17.5t17.5 -42.5t-17.5 -42.5
t-42.5 -17.5z" />
    <glyph glyph-name="Zcaron" unicode="&#x17d;" horiz-adv-x="594" 
d="M12 18l375 564h-353q-12 0 -12 12v74q0 13 12 13h525q13 0 13 -11q0 -4 -3 -8l-374 -563h372q12 0 12 -12v-75q0 -12 -12 -12h-545q-12 0 -12 10q0 6 2 8zM315 788h-36q-8 0 -17 9l-149 168q-6 6 -4.5 12t9.5 6h65q11 0 22 -12l92 -102l93 102q9 12 22 12h65q8 0 9.5 -6
t-4.5 -12l-149 -168q-9 -9 -18 -9z" />
    <glyph glyph-name="zcaron" unicode="&#x17e;" horiz-adv-x="425" 
d="M403 0h-384q-10 0 -11 6t4 11l242 349h-225q-12 0 -12 12v65q0 5 3.5 8.5t8.5 3.5h374q8 0 10.5 -5.5t-1.5 -12.5l-241 -347h232q12 0 12 -13v-65q0 -12 -12 -12zM230 569h-36q-8 0 -17 9l-149 168q-6 6 -4.5 12t9.5 6h65q11 0 22 -12l92 -102l93 102q9 12 22 12h65
q8 0 9.5 -6t-4.5 -12l-149 -168q-9 -9 -18 -9z" />
    <glyph glyph-name="florin" unicode="&#x192;" 
d="M174 455h78l12 65q13 72 49 116q46 53 121 53q74 0 132 -39q10 -7 5 -17l-25 -52q-7 -11 -19 -3q-40 29 -77 29q-38 0 -61 -28q-18 -23 -27 -71l-9 -53h125q12 0 12 -12v-55q0 -12 -12 -12h-139l-82 -456q-13 -76 -52 -116q-44 -47 -125 -47q-57 0 -98 25q-10 7 -5 17
l26 53q6 9 19 3q27 -15 55 -15q36 0 55 23q18 21 26 65l80 448h-64q-13 0 -13 12v55q0 5 4 8.5t9 3.5z" />
    <glyph glyph-name="Scommaaccent" unicode="&#x218;" horiz-adv-x="567" 
d="M278 -10q-133 0 -236 64q-11 6 -5 17l35 74q5 11 16 4q30 -19 51 -29.5t60 -22t78 -11.5q61 0 95 26q37 27 37 77q0 58 -86 91q-13 5 -81.5 27t-106.5 43q-94 53 -94 151q0 87 65 137q66 52 186 52q118 0 208 -50q10 -6 5 -17l-35 -73q-6 -11 -17 -5q-82 48 -167 48
q-66 0 -98 -27q-29 -23 -29 -60q0 -31 23.5 -50.5t69.5 -35.5q20 -7 62 -19t74.5 -24t58.5 -29q84 -53 84 -150t-74 -155q-67 -53 -179 -53zM361 -149q1 -45 -31 -86t-77 -56q-13 -4 -18 4l-11 16q-5 10 4 18q42 30 42 52q0 11 -7.5 19t-17 13.5t-17 18t-7.5 30.5
q0 27 17.5 43.5t46.5 16.5q74 0 76 -89z" />
    <glyph glyph-name="scommaaccent" unicode="&#x219;" horiz-adv-x="420" 
d="M197 70q79 0 79 51q0 20 -13.5 32t-40.5 25q-13 6 -49 19t-54 21q-75 35 -75 117q0 61 45 95t128 34t145 -34q11 -6 6 -16l-28 -57q-6 -10 -16 -4q-49 27 -101 27q-73 0 -73 -43q0 -18 12.5 -29t36.5 -22q10 -4 46.5 -17.5t54.5 -22.5q82 -40 82 -116q0 -63 -49 -101.5
t-131 -38.5q-98 0 -159 40q-9 6 -5 15l28 57q5 11 16 5q58 -37 115 -37zM287 -149q1 -45 -31 -86t-77 -56q-13 -4 -18 4l-11 16q-5 10 4 18q42 30 42 52q0 11 -7.5 19t-17 13.5t-17 18t-7.5 30.5q0 27 17.5 43.5t46.5 16.5q74 0 76 -89z" />
    <glyph glyph-name="uni021A" unicode="&#x21a;" horiz-adv-x="581" 
d="M18 681h545q12 0 12 -13v-74q0 -12 -12 -12h-216v-570q0 -12 -13 -12h-87q-12 0 -12 12v570h-217q-12 0 -12 12v74q0 13 12 13zM362 -149q1 -45 -31 -86t-77 -56q-13 -4 -18 4l-11 16q-5 10 4 18q42 30 42 52q0 11 -7.5 19t-17 13.5t-17 18t-7.5 30.5q0 27 17.5 43.5
t46.5 16.5q74 0 76 -89z" />
    <glyph glyph-name="uni021B" unicode="&#x21b;" horiz-adv-x="373" 
d="M185 374v-205q0 -39 12 -62q17 -29 59 -29q38 0 73 27q13 9 19 -2l26 -56q5 -9 -5 -16q-57 -41 -139 -41q-78 0 -114 44q-34 41 -34 122v218h-51q-5 0 -9 3.5t-4 8.5v57q0 5 4 8.5t9 3.5h51v89q0 5 4 8.5t9 3.5h78q5 0 8.5 -4t3.5 -8v-89h142q5 0 8.5 -3.5t3.5 -8.5v-57
q0 -4 -3.5 -8t-8.5 -4h-142zM298 -149q1 -45 -31 -86t-77 -56q-13 -4 -18 4l-11 16q-5 10 4 18q42 30 42 52q0 11 -7.5 19t-17 13.5t-17 18t-7.5 30.5q0 27 17.5 43.5t46.5 16.5q74 0 76 -89z" />
    <glyph glyph-name="circumflex" unicode="&#x2c6;" horiz-adv-x="441" 
d="M202 764h36q9 0 18 -9l149 -168q6 -7 4.5 -12.5t-9.5 -5.5h-65q-12 0 -22 11l-93 103l-92 -103q-11 -11 -22 -11h-65q-8 0 -9.5 5.5t4.5 12.5l149 168q9 9 17 9z" />
    <glyph glyph-name="caron" unicode="&#x2c7;" horiz-adv-x="441" 
d="M238 569h-36q-8 0 -17 9l-149 168q-6 6 -4.5 12t9.5 6h65q11 0 22 -12l92 -102l93 102q9 12 22 12h65q8 0 9.5 -6t-4.5 -12l-149 -168q-9 -9 -18 -9z" />
    <glyph glyph-name="breve" unicode="&#x2d8;" horiz-adv-x="441" 
d="M220 653q67 0 75 65q1 12 14 12h36q15 0 15 -13q0 -58 -37 -98t-103 -40t-103.5 40t-37.5 98q0 13 15 13h37q13 0 14 -12q7 -65 75 -65z" />
    <glyph glyph-name="dotaccent" unicode="&#x2d9;" horiz-adv-x="441" 
d="M220 604q-25 0 -42.5 17.5t-17.5 42.5t17.5 42.5t42.5 17.5t42.5 -17.5t17.5 -42.5t-17.5 -42.5t-42.5 -17.5z" />
    <glyph glyph-name="ring" unicode="&#x2da;" horiz-adv-x="441" 
d="M338 664q0 -49 -34.5 -83.5t-83.5 -34.5t-84 34.5t-35 83.5t35 84t84 35t83.5 -35t34.5 -84zM291 664q0 30 -21 51.5t-50 21.5t-50 -21.5t-21 -51.5t21 -51t50 -21t50 21t21 51z" />
    <glyph glyph-name="ogonek" unicode="&#x2db;" horiz-adv-x="441" 
d="M96 -116q0 38 29.5 73.5t68.5 56.5l48 -8q-74 -45 -74 -94q0 -38 43 -38q17 0 33 4.5t19 4.5q8 0 8 -8v-42q0 -9 -7 -12q-37 -15 -73 -15q-41 0 -68 19t-27 59z" />
    <glyph glyph-name="tilde" unicode="&#x2dc;" horiz-adv-x="441" 
d="M285 675q36 0 42 37q3 13 13 13h32q15 0 15 -13q0 -49 -24 -79t-69 -30q-36 0 -79 30q-40 26 -60 26q-36 0 -42 -38q-3 -12 -12 -12h-33q-15 0 -15 13q0 50 24 79.5t69 29.5q39 0 80 -30q39 -26 59 -26z" />
    <glyph glyph-name="hungarumlaut" unicode="&#x2dd;" horiz-adv-x="441" 
d="M327 764h70q11 0 11 -8q0 -7 -4 -11l-117 -166q-7 -10 -17 -10h-55q-10 0 -10 8q0 5 4 10l99 165q9 12 19 12zM154 764h70q11 0 11 -8q0 -7 -5 -11l-116 -166q-8 -10 -17 -10h-55q-11 0 -11 8q0 2 4 10l100 165q7 12 19 12z" />
    <glyph glyph-name="pi" unicode="&#x3c0;" horiz-adv-x="604" 
d="M53 455h497q5 0 9 -3.5t4 -8.5v-65q0 -12 -13 -12h-70v-201q0 -85 43 -142q16 -23 -9 -23h-61q-17 0 -30 13q-44 47 -44 146v207h-154l-21 -207q-9 -99 -56 -146q-13 -13 -30 -13h-61q-26 0 -9 25q46 56 55 139l21 202h-71q-12 0 -12 12v65q0 12 12 12z" />
    <glyph glyph-name="afii10023" unicode="&#x401;" horiz-adv-x="608" 
d="M83 681h476q12 0 12 -13v-74q0 -12 -12 -12h-376v-191h324q12 0 12 -12v-75q0 -12 -12 -12h-324v-193h376q12 0 12 -12v-75q0 -12 -12 -12h-476q-12 0 -12 12v656q0 5 3.5 9t8.5 4zM214 805q-25 0 -42.5 17.5t-17.5 42.5t17.5 42.5t42.5 17.5t43 -17.5t18 -42.5
t-18 -42.5t-43 -17.5zM424 805q-25 0 -42.5 17.5t-17.5 42.5t17.5 42.5t42.5 17.5t42.5 -17.5t17.5 -42.5t-17.5 -42.5t-42.5 -17.5z" />
    <glyph glyph-name="afii10051" unicode="&#x402;" horiz-adv-x="757" 
d="M696 259v-17q0 -153 -104 -230q-15 -12 -38 -12h-66q-10 0 -11.5 6t5.5 11q112 87 112 213v17q0 66 -32 101q-28 31 -86 31q-73 0 -107 -53q-25 -38 -25 -90v-224q0 -12 -12 -12h-87q-13 0 -13 12v570h-216q-13 0 -13 12v74q0 13 13 13h545q5 0 8.5 -4t3.5 -9v-74
q0 -12 -12 -12h-217v-195q22 34 57 53q40 23 97 23q88 0 137 -43q61 -50 61 -161z" />
    <glyph glyph-name="afii10052" unicode="&#x403;" horiz-adv-x="538" 
d="M171 0h-88q-12 0 -12 12v656q0 5 3.5 9t8.5 4h419q12 0 12 -13v-74q0 -12 -12 -12h-319v-570q0 -12 -12 -12zM298 968h70q8 0 11 -6t-2 -13l-101 -164q-8 -12 -18 -12h-53q-17 0 -7 23l83 160q7 12 17 12z" />
    <glyph glyph-name="afii10053" unicode="&#x404;" horiz-adv-x="653" 
d="M401 -10q-160 0 -258 96q-99 96 -99 255q0 140 97 240q107 109 263 109q115 0 207 -51q13 -7 6 -17l-35 -73q-4 -11 -16 -5q-90 45 -165 45q-90 0 -161 -66q-58 -56 -71 -132h352q12 0 12 -13v-73q0 -12 -12 -12h-353q13 -87 75 -142q66 -60 159 -60q88 0 168 46
q10 6 16 -4l35 -75q5 -11 -6 -16q-97 -52 -214 -52z" />
    <glyph glyph-name="afii10054" unicode="&#x405;" horiz-adv-x="567" 
d="M278 -10q-133 0 -236 64q-11 6 -5 17l35 74q5 11 16 4q30 -19 51 -29.5t60 -22t78 -11.5q61 0 95 26q37 27 37 77q0 58 -86 91q-13 5 -81.5 27t-106.5 43q-94 53 -94 151q0 87 65 137q66 52 186 52q118 0 208 -50q10 -6 5 -17l-35 -73q-6 -11 -17 -5q-82 48 -167 48
q-66 0 -98 -27q-29 -23 -29 -60q0 -31 23.5 -50.5t69.5 -35.5q20 -7 62 -19t74.5 -24t58.5 -29q84 -53 84 -150t-74 -155q-67 -53 -179 -53z" />
    <glyph glyph-name="afii10055" unicode="&#x406;" horiz-adv-x="254" 
d="M83 681h88q5 0 8.5 -4t3.5 -9v-656q0 -12 -12 -12h-88q-12 0 -12 12v656q0 5 3.5 9t8.5 4z" />
    <glyph glyph-name="afii10056" unicode="&#x407;" horiz-adv-x="254" 
d="M83 681h88q5 0 8.5 -4t3.5 -9v-656q0 -12 -12 -12h-88q-12 0 -12 12v656q0 5 3.5 9t8.5 4zM22 805q-25 0 -42.5 17.5t-17.5 42.5t17.5 42.5t42.5 17.5t43 -17.5t18 -42.5t-18 -42.5t-43 -17.5zM232 805q-25 0 -42.5 17.5t-17.5 42.5t17.5 42.5t42.5 17.5t42.5 -17.5
t17.5 -42.5t-17.5 -42.5t-42.5 -17.5z" />
    <glyph glyph-name="afii10057" unicode="&#x408;" horiz-adv-x="523" 
d="M198 -10q-103 0 -182 65q-10 8 -4 18l41 68q7 11 17 3q61 -55 127 -55q67 0 105 38q40 40 40 128v413q0 13 12 13h87q13 0 13 -13v-422q0 -131 -78 -198q-68 -58 -178 -58z" />
    <glyph glyph-name="afii10058" unicode="&#x409;" horiz-adv-x="1069" 
d="M131 681h483q13 0 13 -13v-277h147q96 0 153 -28q97 -45 97 -166q0 -116 -96 -166q-59 -31 -144 -31h-257q-12 0 -12 12v569h-285v-86q0 -178 -26 -299q-11 -50 -32.5 -103.5t-44.5 -79.5q-10 -13 -29 -13h-68q-10 0 -13 6.5t4 18.5q51 68 75 181q22 103 22 289v173
q0 13 13 13zM910 197q0 63 -55 88q-37 16 -89 16h-139v-210h147q52 0 86 18q50 27 50 88z" />
    <glyph glyph-name="afii10059" unicode="&#x40a;" horiz-adv-x="1097" 
d="M542 12v289h-359v-289q0 -12 -12 -12h-88q-12 0 -12 12v656q0 5 3.5 9t8.5 4h88q5 0 8.5 -4t3.5 -9v-277h359v277q0 13 13 13h87q12 0 12 -13v-277h148q96 0 153 -28q97 -45 97 -166q0 -116 -96 -166q-61 -31 -145 -31h-256q-13 0 -13 12zM938 197q0 62 -55 88
q-37 16 -89 16h-140v-210h148q52 0 86 18q50 28 50 88z" />
    <glyph glyph-name="afii10060" unicode="&#x40b;" horiz-adv-x="745" 
d="M232 582h-216q-13 0 -13 12v74q0 13 13 13h545q5 0 8.5 -4t3.5 -9v-74q0 -12 -12 -12h-217v-195q22 33 55 53q38 23 92 23q87 0 134 -42q59 -50 59 -152v-257q0 -12 -13 -12h-78q-12 0 -12 12v240q0 65 -30 96q-27 31 -81 31q-70 0 -102 -53q-24 -37 -24 -90v-224
q0 -12 -12 -12h-87q-13 0 -13 12v570z" />
    <glyph glyph-name="afii10061" unicode="&#x40c;" horiz-adv-x="636" 
d="M499 681h97q10 0 12 -6t-4 -13l-267 -314l274 -327q7 -7 5.5 -14t-10.5 -7h-103q-15 0 -24 12l-234 280h-62v-280q0 -12 -12 -12h-88q-12 0 -12 12v656q0 5 3.5 9t8.5 4h88q5 0 8.5 -4t3.5 -9v-277h61l231 277q9 13 24 13zM350 968h70q8 0 11 -6t-2 -13l-101 -164
q-8 -12 -18 -12h-53q-17 0 -7 23l83 160q7 12 17 12z" />
    <glyph glyph-name="afii10062" unicode="&#x40e;" horiz-adv-x="601" 
d="M66 96h29q59 0 95 23q32 21 63 69l-250 475q-7 18 10 18h97q14 0 21 -14l180 -365l164 365q5 14 20 14h92q17 0 10 -18l-216 -463q-42 -90 -94 -137q-73 -63 -180 -63h-41q-12 0 -12 12v72q0 12 12 12zM300 866q67 0 75 65q1 12 14 12h36q15 0 15 -13q0 -58 -37 -98
t-103 -40t-103.5 40t-37.5 98q0 13 15 13h37q13 0 14 -12q7 -65 75 -65z" />
    <glyph glyph-name="afii10145" unicode="&#x40f;" horiz-adv-x="711" 
d="M540 681h87q13 0 13 -13v-656q0 -12 -13 -12h-216v-216q0 -12 -12 -12h-87q-13 0 -13 12v216h-216q-12 0 -12 12v656q0 5 3.5 9t8.5 4h88q5 0 8.5 -4t3.5 -9v-569h345v569q0 13 12 13z" />
    <glyph glyph-name="afii10017" unicode="&#x410;" horiz-adv-x="633" 
d="M173 153l-52 -140q-4 -13 -20 -13h-86q-11 0 -11 9q0 2 2 10l246 652q4 13 19 13h92q14 0 20 -13l243 -652q3 -9 3 -10q0 -9 -12 -9h-88q-16 0 -20 13l-51 140h-285zM430 243l-114 305l-115 -305h229z" />
    <glyph glyph-name="afii10018" unicode="&#x411;" horiz-adv-x="626" 
d="M83 681h439q13 0 13 -13v-74q0 -12 -13 -12h-339v-191h147q96 0 154 -28q97 -45 97 -166q0 -117 -97 -166q-59 -31 -144 -31h-257q-12 0 -12 12v656q0 5 3.5 9t8.5 4zM467 197q0 62 -55 88q-37 16 -90 16h-139v-210h147q51 0 87 18q50 28 50 88z" />
    <glyph glyph-name="afii10019" unicode="&#x412;" horiz-adv-x="626" 
d="M581 183q0 -89 -66.5 -136t-160.5 -47h-271q-12 0 -12 12v656q0 5 3.5 9t8.5 4h215q100 0 157 -40q70 -48 70 -133q0 -108 -89 -148v-4q72 -14 108.5 -59t36.5 -114zM412 490q0 54 -42 81q-29 19 -71 19h-116v-199h106q50 0 76 13q47 24 47 86zM467 197q0 62 -54 88
q-30 16 -107 16h-123v-210h147q47 0 76 12q61 25 61 94z" />
    <glyph glyph-name="afii10020" unicode="&#x413;" horiz-adv-x="538" 
d="M171 0h-88q-12 0 -12 12v656q0 5 3.5 9t8.5 4h419q12 0 12 -13v-74q0 -12 -12 -12h-319v-570q0 -12 -12 -12z" />
    <glyph glyph-name="afii10021" unicode="&#x414;" horiz-adv-x="806" 
d="M318 495q0 -138 -13 -222q-17 -105 -54 -174h298v482h-231v-86zM17 -220v307q0 12 12 12h109q40 70 56 176q12 85 12 220v173q0 13 12 13h431q5 0 8.5 -4t3.5 -9v-569h116q12 0 12 -12v-307q0 -12 -12 -12h-88q-12 0 -12 12v220h-548v-220q0 -12 -12 -12h-88
q-12 0 -12 12z" />
    <glyph glyph-name="afii10022" unicode="&#x415;" horiz-adv-x="608" 
d="M83 681h476q12 0 12 -13v-74q0 -12 -12 -12h-376v-191h324q12 0 12 -12v-75q0 -12 -12 -12h-324v-193h376q12 0 12 -12v-75q0 -12 -12 -12h-476q-12 0 -12 12v656q0 5 3.5 9t8.5 4z" />
    <glyph glyph-name="afii10024" unicode="&#x416;" horiz-adv-x="1011" 
d="M388 391h61v277q0 13 13 13h87q12 0 12 -13v-277h61l231 277q9 13 24 13h98q9 0 11.5 -6t-3.5 -13l-268 -314l275 -327q6 -7 4.5 -14t-10.5 -7h-103q-15 0 -24 12l-234 280h-62v-280q0 -12 -12 -12h-87q-13 0 -13 12v280h-62l-234 -280q-8 -12 -24 -12h-103q-6 0 -9 3
t-2 8t5 10l275 327l-267 314q-4 4 -4.5 8.5t2.5 7.5t9 3h99q13 0 23 -13z" />
    <glyph glyph-name="afii10025" unicode="&#x417;" horiz-adv-x="515" 
d="M214 304h-85q-13 0 -13 13v63q0 12 13 12h77q59 0 95 22q44 28 44 84q0 46 -34 74q-32 25 -78 25q-69 0 -136 -45q-13 -9 -20 2l-30 60q-5 12 5 18q89 58 190 58q90 0 146 -51q57 -52 57 -128q0 -113 -105 -156q63 -20 96.5 -64.5t33.5 -108.5q0 -91 -69 -144
q-60 -48 -160 -48q-114 0 -192 48q-10 8 -5 18l31 63q5 11 18 3q67 -44 138 -44q58 0 93 27q41 32 41 86q0 64 -55 95q-33 18 -96 18z" />
    <glyph glyph-name="afii10026" unicode="&#x418;" horiz-adv-x="732" 
d="M549 12v444l-366 -375v-69q0 -12 -12 -12h-88q-12 0 -12 12v656q0 5 3.5 9t8.5 4h88q5 0 8.5 -4t3.5 -9v-448l366 374v74q0 12 12 12h87q13 0 13 -12v-656q0 -13 -13 -13h-87q-12 0 -12 13z" />
    <glyph glyph-name="afii10027" unicode="&#x419;" horiz-adv-x="732" 
d="M549 12v444l-366 -375v-69q0 -12 -12 -12h-88q-12 0 -12 12v656q0 5 3.5 9t8.5 4h88q5 0 8.5 -4t3.5 -9v-448l366 374v74q0 12 12 12h87q13 0 13 -12v-656q0 -13 -13 -13h-87q-12 0 -12 13zM365 866q67 0 75 65q2 12 14 12h36q15 0 15 -13q0 -58 -37 -98t-103 -40
t-103.5 40t-37.5 98q0 13 15 13h37q12 0 14 -12q7 -65 75 -65z" />
    <glyph glyph-name="afii10028" unicode="&#x41a;" horiz-adv-x="633" 
d="M499 681h97q10 0 12 -6t-4 -13l-267 -314l274 -327q7 -7 5.5 -14t-10.5 -7h-103q-15 0 -24 12l-234 280h-62v-280q0 -12 -12 -12h-88q-12 0 -12 12v656q0 5 3.5 9t8.5 4h88q5 0 8.5 -4t3.5 -9v-277h61l231 277q9 13 24 13z" />
    <glyph glyph-name="afii10029" unicode="&#x41b;" horiz-adv-x="698" 
d="M127 13q-10 -13 -29 -13h-68q-10 0 -13 6.5t4 18.5q51 68 75 181q22 103 22 289v173q0 13 13 13h483q13 0 13 -13v-656q0 -12 -13 -12h-87q-12 0 -12 12v569h-285v-86q0 -178 -26 -299q-11 -50 -32.5 -103.5t-44.5 -79.5z" />
    <glyph glyph-name="afii10030" unicode="&#x41c;" horiz-adv-x="835" 
d="M764 668v-656q0 -12 -12 -12h-84q-12 0 -12 12v474l-185 -311q-7 -12 -20 -12h-63q-13 0 -20 12l-189 311v-474q0 -12 -12 -12h-84q-12 0 -12 12v656q0 5 3.5 9t8.5 4h89q16 0 22 -13l223 -376l223 376q8 13 23 13h89q12 0 12 -13z" />
    <glyph glyph-name="afii10031" unicode="&#x41d;" horiz-adv-x="725" 
d="M555 681h87q12 0 12 -13v-656q0 -12 -12 -12h-87q-13 0 -13 12v280h-359v-280q0 -12 -12 -12h-88q-12 0 -12 12v656q0 5 3.5 9t8.5 4h88q5 0 8.5 -4t3.5 -9v-276h359v276q0 13 13 13z" />
    <glyph glyph-name="afii10032" unicode="&#x41e;" horiz-adv-x="808" 
d="M764 339q0 -150 -105.5 -249.5t-254.5 -99.5t-254.5 100t-105.5 249q0 150 105.5 250.5t254.5 100.5t254.5 -100.5t105.5 -250.5zM645 339q0 103 -69.5 174.5t-171.5 71.5t-172 -71.5t-70 -174.5t70 -174t172 -71t171.5 71t69.5 174z" />
    <glyph glyph-name="afii10033" unicode="&#x41f;" horiz-adv-x="711" 
d="M627 0h-87q-12 0 -12 12v569h-345v-569q0 -12 -12 -12h-88q-12 0 -12 12v656q0 5 3.5 9t8.5 4h544q13 0 13 -13v-656q0 -12 -13 -12z" />
    <glyph glyph-name="afii10034" unicode="&#x420;" horiz-adv-x="636" 
d="M487 450q0 73 -50 107q-37 26 -93 26h-161v-266h153q62 0 98 23q53 35 53 110zM83 681h276q98 0 160 -50q82 -64 82 -181q0 -121 -89 -186q-59 -45 -158 -45h-171v-207q0 -12 -12 -12h-88q-12 0 -12 12v656q0 5 3.5 9t8.5 4z" />
    <glyph glyph-name="afii10035" unicode="&#x421;" horiz-adv-x="657" 
d="M401 -10q-159 0 -258 96t-99 255q0 146 105 247.5t255 101.5q115 0 207 -51q13 -7 6 -17l-35 -73q-4 -11 -16 -5q-86 45 -165 45q-98 0 -169.5 -72.5t-71.5 -175.5q0 -109 70 -179.5t172 -70.5q88 0 168 46q10 6 16 -4l35 -75q5 -11 -6 -16q-97 -52 -214 -52z" />
    <glyph glyph-name="afii10036" unicode="&#x422;" horiz-adv-x="581" 
d="M18 681h545q12 0 12 -13v-74q0 -12 -12 -12h-216v-570q0 -12 -13 -12h-87q-12 0 -12 12v570h-217q-12 0 -12 12v74q0 13 12 13z" />
    <glyph glyph-name="afii10037" unicode="&#x423;" 
d="M66 96h29q59 0 95 23q32 21 63 69l-250 475q-7 18 10 18h97q14 0 21 -14l180 -365l164 365q5 14 20 14h92q17 0 10 -18l-216 -463q-42 -90 -94 -137q-73 -63 -180 -63h-41q-12 0 -12 12v72q0 12 12 12z" />
    <glyph glyph-name="afii10038" unicode="&#x424;" horiz-adv-x="792" 
d="M452 192h31q60 0 96 27q55 37 55 121q0 82 -55 121q-35 26 -96 26h-31v-295zM340 192v295h-31q-61 0 -96 -26q-55 -39 -55 -121q0 -84 55 -121q36 -27 96 -27h31zM748 340q0 -130 -89 -198q-62 -48 -163 -48h-44v-82q0 -12 -12 -12h-88q-12 0 -12 12v82h-43
q-102 0 -164 48q-89 68 -89 198q0 127 89 198q61 48 164 48h43v82q0 5 3.5 9t8.5 4h88q5 0 8.5 -4t3.5 -9v-82h44q102 0 163 -48q89 -71 89 -198z" />
    <glyph glyph-name="afii10039" unicode="&#x425;" horiz-adv-x="675" 
d="M409 342l261 -322q13 -20 -8 -20h-115q-13 0 -21 11l-188 244l-189 -244q-8 -11 -21 -11h-115q-10 0 -12.5 6t3.5 14l265 319l-260 322q-6 7 -3.5 13.5t11.5 6.5h115q13 0 21 -13l186 -238l181 238q10 13 21 13h117q9 0 11.5 -6.5t-3.5 -13.5z" />
    <glyph glyph-name="afii10040" unicode="&#x426;" horiz-adv-x="785" 
d="M83 0q-12 0 -12 12v656q0 5 3.5 9t8.5 4h88q5 0 8.5 -4t3.5 -9v-569h345v569q0 13 12 13h87q13 0 13 -13v-569h115q13 0 13 -12v-307q0 -12 -13 -12h-87q-12 0 -12 12v220h-573z" />
    <glyph glyph-name="afii10041" unicode="&#x427;" horiz-adv-x="650" 
d="M58 463v205q0 13 13 13h87q12 0 12 -13v-203q0 -69 29 -101q33 -34 103 -34q69 0 165 32v306q0 5 3.5 9t8.5 4h88q5 0 8.5 -4t3.5 -9v-656q0 -12 -12 -12h-88q-12 0 -12 12v247q-96 -30 -173 -30q-127 0 -185 67q-51 59 -51 167z" />
    <glyph glyph-name="afii10042" unicode="&#x428;" horiz-adv-x="1100" 
d="M1029 668v-656q0 -12 -13 -12h-933q-12 0 -12 12v656q0 5 3.5 9t8.5 4h88q5 0 8.5 -4t3.5 -9v-569h311v569q0 13 12 13h87q13 0 13 -13v-569h311v569q0 13 12 13h87q13 0 13 -13z" />
    <glyph glyph-name="afii10043" unicode="&#x429;" horiz-adv-x="1174" 
d="M83 0q-12 0 -12 12v656q0 5 3.5 9t8.5 4h88q5 0 8.5 -4t3.5 -9v-569h311v569q0 13 12 13h87q13 0 13 -13v-569h311v569q0 13 12 13h87q13 0 13 -13v-569h115q13 0 13 -12v-307q0 -12 -13 -12h-87q-12 0 -12 12v220h-962z" />
    <glyph glyph-name="afii10044" unicode="&#x42a;" horiz-adv-x="812" 
d="M527 0h-257q-13 0 -13 12v570h-219q-12 0 -12 12v74q0 13 12 13h319q12 0 12 -13v-277h148q96 0 153 -28q97 -45 97 -166q0 -116 -96 -166q-59 -31 -144 -31zM653 197q0 62 -55 88q-37 16 -89 16h-140v-210h148q51 0 86 18q50 27 50 88z" />
    <glyph glyph-name="afii10045" unicode="&#x42b;" horiz-adv-x="880" 
d="M709 681h88q5 0 8.5 -4t3.5 -9v-656q0 -12 -12 -12h-88q-12 0 -12 12v656q0 5 3.5 9t8.5 4zM71 12v656q0 5 3.5 9t8.5 4h88q5 0 8.5 -4t3.5 -9v-277h147q96 0 154 -28q97 -45 97 -166q0 -117 -97 -166q-59 -31 -144 -31h-257q-12 0 -12 12zM467 197q0 62 -55 88
q-37 16 -90 16h-139v-210h147q51 0 87 18q50 28 50 88z" />
    <glyph glyph-name="afii10046" unicode="&#x42c;" horiz-adv-x="626" 
d="M71 12v656q0 5 3.5 9t8.5 4h88q5 0 8.5 -4t3.5 -9v-277h147q96 0 154 -28q97 -45 97 -166q0 -117 -97 -166q-59 -31 -144 -31h-257q-12 0 -12 12zM467 197q0 62 -55 88q-37 16 -90 16h-139v-210h147q51 0 87 18q50 28 50 88z" />
    <glyph glyph-name="afii10047" unicode="&#x42d;" horiz-adv-x="653" 
d="M251 -10q-117 0 -214 52q-10 6 -6 16l35 75q6 10 17 4q81 -46 167 -46q93 0 159 60q61 55 76 142h-353q-12 0 -12 12v73q0 13 12 13h351q-14 78 -71 132q-69 66 -161 66q-74 0 -164 -45q-12 -6 -17 5l-35 73q-6 11 6 17q94 51 208 51q156 0 262 -109q98 -100 98 -240
q0 -159 -99 -255t-259 -96z" />
    <glyph glyph-name="afii10048" unicode="&#x42e;" horiz-adv-x="1093" 
d="M1049 339q0 -150 -105 -249.5t-254 -99.5q-137 0 -239 85.5t-118 216.5h-150v-280q0 -12 -12 -12h-88q-12 0 -12 12v656q0 5 3.5 9t8.5 4h88q5 0 8.5 -4t3.5 -9v-276h151q19 129 120 213.5t236 84.5q148 0 253.5 -100.5t105.5 -250.5zM931 339q0 103 -69.5 174.5
t-172.5 71.5q-102 0 -171.5 -71.5t-69.5 -174.5t69.5 -174t171.5 -71q103 0 172.5 71t69.5 174z" />
    <glyph glyph-name="afii10049" unicode="&#x42f;" horiz-adv-x="652" 
d="M116 302q-78 61 -78 164q0 115 80 173q60 42 169 42h281q13 0 13 -13v-656q0 -12 -13 -12h-87q-12 0 -12 12v239h-149l-161 -238q-7 -13 -24 -13h-96q-11 0 -11 9q0 6 5 14l173 248q-58 8 -90 31zM469 586h-171q-65 0 -98 -22q-48 -30 -48 -99q0 -68 50 -99
q35 -21 97 -21h170v241z" />
    <glyph glyph-name="afii10065" unicode="&#x430;" horiz-adv-x="481" 
d="M230 385q-57 0 -131 -40q-14 -8 -18 4l-22 50q-4 10 5 16q74 48 179 48q94 0 139 -50q38 -43 38 -122v-279q0 -12 -12 -12h-68q-12 0 -12 12v12h-4q-54 -34 -129 -34q-66 0 -109 34q-48 38 -48 103q0 81 88 117q63 25 191 34v12q0 47 -18 69q-21 26 -69 26zM227 65
q46 0 90 26v117q-181 -10 -181 -79q0 -31 26.5 -47.5t64.5 -16.5z" />
    <glyph glyph-name="afii10066" unicode="&#x431;" horiz-adv-x="567" 
d="M467 668q0 -69 -47 -109q-27 -22 -94 -45.5t-93 -39.5q-61 -38 -80 -103q65 49 166 49q99 0 157 -64q50 -55 50 -146q0 -97 -63 -157q-66 -63 -178 -63q-107 0 -169 64q-73 74 -73 223q0 168 112 247q36 26 97.5 47.5t85.5 37.5q34 24 34 59q0 13 12 13h71q12 0 12 -13z
M143 293v-32q2 -92 38 -139q35 -50 104 -50q68 0 105 40q36 38 36 98t-34 96q-39 43 -102 43q-88 0 -147 -56z" />
    <glyph glyph-name="afii10067" unicode="&#x432;" horiz-adv-x="505" 
d="M310 0h-229q-13 0 -13 12v431q0 5 4 8.5t9 3.5h190q70 0 106 -27q47 -32 47 -89q0 -71 -59 -99v-3q97 -18 97 -114q0 -61 -44.5 -92t-107.5 -31zM325 323q0 32 -27 49q-19 10 -47 10h-83v-118h76q34 0 50 8q31 15 31 51zM360 136q0 38 -36 54q-18 10 -71 10h-85v-129h101
q31 0 51 8q40 15 40 57z" />
    <glyph glyph-name="afii10068" unicode="&#x433;" horiz-adv-x="426" 
d="M158 0h-77q-13 0 -13 12v431q0 5 4 8.5t9 3.5h314q5 0 9 -3.5t4 -8.5v-66q0 -13 -13 -13h-224v-352q0 -12 -13 -12z" />
    <glyph glyph-name="afii10069" unicode="&#x434;" horiz-adv-x="692" 
d="M555 443v-353h103q13 0 13 -12v-231q0 -12 -13 -12h-76q-12 0 -12 12v153h-443v-153q0 -12 -12 -12h-77q-13 0 -13 12v231q0 12 13 12h82q33 57 48 138q12 67 14 175v40q0 12 12 12h349q12 0 12 -12zM282 364q-6 -100 -17 -159q-13 -61 -42 -115h230v274h-171z" />
    <glyph glyph-name="afii10070" unicode="&#x435;" horiz-adv-x="524" 
d="M149 268h237q-3 48 -30 78q-32 35 -86 35q-59 0 -91 -37q-27 -32 -30 -76zM291 71q65 0 125 36q12 7 18 -3l27 -50q6 -9 -5 -16q-68 -48 -172 -48q-115 0 -180 70q-63 66 -63 173q0 99 64 166q61 64 166 64q114 0 171 -75q49 -64 43 -175q-2 -14 -14 -14h-322
q4 -51 34 -84q38 -44 108 -44z" />
    <glyph glyph-name="afii10072" unicode="&#x436;" horiz-adv-x="792" 
d="M668 455h90q9 0 11 -6.5t-5 -15.5l-174 -199l181 -213q7 -8 4.5 -14.5t-10.5 -6.5h-93q-15 0 -23 12l-146 172h-56v-172q0 -12 -13 -12h-77q-12 0 -12 12v172h-57l-145 -172q-9 -12 -24 -12h-93q-8 0 -10 6.5t5 14.5l180 213l-173 199q-7 9 -5.5 15.5t10.5 6.5h90
q13 0 24 -12l141 -169h57v169q0 12 12 12h77q5 0 9 -3.5t4 -8.5v-169h57l141 169q9 12 23 12z" />
    <glyph glyph-name="afii10073" unicode="&#x437;" horiz-adv-x="406" 
d="M186 -10q-89 0 -148 35q-10 5 -6 16l24 51q5 11 16 5q55 -31 106 -31q39 0 62 17q27 17 27 48q0 43 -52 59q-20 5 -67 5h-27q-13 0 -13 13v49q0 13 13 13h20q51 0 70 7q40 13 40 49q0 26 -23 43q-21 14 -48 14q-51 0 -101 -30q-13 -6 -16 5l-24 50q-5 10 5 16
q66 39 145 39q67 0 112 -35q43 -34 45 -91q1 -68 -67 -99q86 -30 86 -115q0 -61 -47 -96q-50 -37 -132 -37z" />
    <glyph glyph-name="afii10074" unicode="&#x438;" horiz-adv-x="587" 
d="M519 443v-431q0 -12 -12 -12h-78q-13 0 -13 12v275l-245 -229v-46q0 -12 -12 -12h-78q-13 0 -13 12v431q0 5 4 8.5t9 3.5h78q12 0 12 -12v-278l245 230v48q0 5 4 8.5t9 3.5h78q12 0 12 -12z" />
    <glyph glyph-name="afii10075" unicode="&#x439;" horiz-adv-x="587" 
d="M519 443v-431q0 -12 -12 -12h-78q-13 0 -13 12v275l-245 -229v-46q0 -12 -12 -12h-78q-13 0 -13 12v431q0 5 4 8.5t9 3.5h78q12 0 12 -12v-278l245 230v48q0 5 4 8.5t9 3.5h78q12 0 12 -12zM293 653q67 0 75 65q2 12 14 12h36q15 0 15 -13q0 -58 -37 -98t-103 -40
t-103.5 40t-37.5 98q0 13 15 13h37q12 0 14 -12q7 -65 75 -65z" />
    <glyph glyph-name="afii10076" unicode="&#x43a;" horiz-adv-x="515" 
d="M392 455h90q9 0 11 -6.5t-5 -15.5l-174 -199l180 -213q8 -7 6 -14t-11 -7h-93q-15 0 -24 12l-145 172h-56v-172q0 -12 -13 -12h-77q-13 0 -13 12v431q0 5 4 8.5t9 3.5h77q5 0 9 -3.5t4 -8.5v-169h57l141 169q9 12 23 12z" />
    <glyph glyph-name="afii10077" unicode="&#x43b;" horiz-adv-x="554" 
d="M205 364q-8 -154 -26 -228q-18 -79 -54 -123q-10 -13 -29 -13h-63q-23 0 -9 25q37 57 56 128q22 86 22 241v47q0 14 14 14h358q4 0 8 -3.5t4 -8.5v-431q0 -12 -12 -12h-78q-12 0 -12 12v352h-179z" />
    <glyph glyph-name="afii10078" unicode="&#x43c;" horiz-adv-x="651" 
d="M348 79h-46q-13 0 -20 12l-113 187v-266q0 -12 -13 -12h-75q-13 0 -13 12v431q0 5 4 8.5t9 3.5h76q14 0 22 -13l146 -248l146 248q7 13 22 13h77q5 0 9 -3.5t4 -8.5v-431q0 -12 -13 -12h-75q-13 0 -13 12v266l-113 -187q-7 -12 -21 -12z" />
    <glyph glyph-name="afii10079" unicode="&#x43d;" horiz-adv-x="570" 
d="M413 455h77q4 0 8 -3.5t4 -8.5v-431q0 -12 -12 -12h-77q-13 0 -13 12v172h-229v-172q0 -12 -13 -12h-77q-13 0 -13 12v431q0 5 4 8.5t9 3.5h77q5 0 9 -3.5t4 -8.5v-169h229v169q0 5 4 8.5t9 3.5z" />
    <glyph glyph-name="afii10080" unicode="&#x43e;" horiz-adv-x="569" 
d="M143 227q0 -63 39 -107q41 -44 103 -44q61 0 102 44q40 45 40 107t-40 107q-41 44 -102 44q-62 0 -103 -44q-39 -44 -39 -107zM41 227q0 103 71 171q71 66 173 66t173 -66q70 -67 70 -171q0 -108 -70 -172q-68 -65 -173 -65t-173 65q-71 65 -71 172z" />
    <glyph glyph-name="afii10081" unicode="&#x43f;" horiz-adv-x="558" 
d="M81 455h397q4 0 8 -3.5t4 -8.5v-431q0 -12 -12 -12h-77q-13 0 -13 12v352h-217v-352q0 -12 -13 -12h-77q-13 0 -13 12v431q0 5 4 8.5t9 3.5z" />
    <glyph glyph-name="afii10082" unicode="&#x440;" horiz-adv-x="537" 
d="M171 375v-286q31 -15 78 -15q65 0 104 38q40 37 40 115q0 69 -39 110q-43 43 -115 43q-33 0 -68 -5zM82 450q62 13 147 13q129 0 200 -68q67 -64 67 -168q0 -101 -56 -164q-66 -73 -181 -73q-54 0 -88 14v-225q0 -12 -12 -12h-78q-5 0 -9 3.5t-4 8.5v656q0 12 14 15z" />
    <glyph glyph-name="afii10083" unicode="&#x441;" horiz-adv-x="475" 
d="M293 76q57 0 103 28q13 9 19 -3l29 -54q4 -8 -6 -17q-58 -40 -148 -40q-122 0 -188 71q-61 63 -61 166q0 87 51 148q71 88 200 88q84 0 144 -42q10 -9 6 -17l-30 -56q-5 -12 -19 -3q-49 30 -100 30q-70 0 -111 -47q-36 -41 -36 -102q0 -66 39 -108t108 -42z" />
    <glyph glyph-name="afii10084" unicode="&#x442;" horiz-adv-x="457" 
d="M21 455h414q5 0 9 -3.5t4 -8.5v-66q0 -13 -13 -13h-156v-352q0 -12 -12 -12h-77q-13 0 -13 12v352h-156q-5 0 -8.5 4t-3.5 9v66q0 5 3.5 8.5t8.5 3.5z" />
    <glyph glyph-name="afii10085" unicode="&#x443;" horiz-adv-x="506" 
d="M500 438l-177 -463q-39 -101 -89 -148q-68 -67 -183 -61q-10 0 -10 10v78q0 9 11 9q3 0 10.5 -0.5t14.5 -0.5q48 0 85 35q29 29 50 74l-207 467q-7 17 10 17h94q16 0 20 -14l136 -342l119 342q4 14 20 14h87q14 0 9 -17z" />
    <glyph glyph-name="afii10086" unicode="&#x444;" horiz-adv-x="746" 
d="M486 379q-37 0 -62 -15v-275q25 -15 62 -15q52 0 84 37q32 38 32 116q0 80 -32 115q-31 37 -84 37zM260 74q37 0 62 15v275q-25 15 -62 15q-54 0 -85 -37q-32 -37 -32 -115t32 -116q32 -37 85 -37zM424 601v-152q28 14 73 14q102 0 159 -72q49 -60 49 -164
q0 -103 -49 -165q-57 -72 -159 -72q-45 0 -73 14v-156q0 -13 -13 -13h-77q-5 0 -8.5 4t-3.5 9v156q-28 -14 -73 -14q-104 0 -159 72q-49 62 -49 165q0 104 49 164q55 72 159 72q45 0 73 -14v152q0 12 12 12h77q13 0 13 -12z" />
    <glyph glyph-name="afii10087" unicode="&#x445;" horiz-adv-x="505" 
d="M7 20l182 212l-173 203q-6 7 -4 13.5t12 6.5h98q11 0 20 -12l110 -140l112 140q9 12 20 12h94q10 0 12 -6.5t-4 -13.5l-173 -196l185 -219q6 -8 3.5 -14t-12.5 -6h-95q-12 0 -21 11l-121 150l-122 -150q-8 -11 -21 -11h-94q-10 0 -12 6t4 14z" />
    <glyph glyph-name="afii10088" unicode="&#x446;" horiz-adv-x="626" 
d="M68 12v431q0 5 4 8.5t9 3.5h77q5 0 9 -3.5t4 -8.5v-353h217v353q0 12 12 12h78q4 0 8 -3.5t4 -8.5v-353h103q12 0 12 -12v-230q0 -12 -12 -12h-76q-13 0 -13 12v152h-423q-13 0 -13 12z" />
    <glyph glyph-name="afii10089" unicode="&#x447;" horiz-adv-x="537" 
d="M469 443v-431q0 -12 -12 -12h-78q-13 0 -13 12v145q-60 -21 -119 -21q-95 0 -141 42q-45 44 -45 133v132q0 5 3.5 8.5t8.5 3.5h78q5 0 9 -3.5t4 -8.5v-132q0 -46 22 -68q21 -22 71 -22q51 0 109 20v202q0 5 4 8.5t9 3.5h78q12 0 12 -12z" />
    <glyph glyph-name="afii10090" unicode="&#x448;" horiz-adv-x="850" 
d="M782 443v-431q0 -12 -12 -12h-689q-13 0 -13 12v431q0 5 4 8.5t9 3.5h77q5 0 9 -3.5t4 -8.5v-353h203v353q0 5 4 8.5t9 3.5h77q5 0 9 -3.5t4 -8.5v-353h203v353q0 12 12 12h78q4 0 8 -3.5t4 -8.5z" />
    <glyph glyph-name="afii10091" unicode="&#x449;" horiz-adv-x="918" 
d="M796 0h-715q-13 0 -13 12v431q0 5 4 8.5t9 3.5h77q5 0 9 -3.5t4 -8.5v-353h203v353q0 5 4 8.5t9 3.5h77q5 0 9 -3.5t4 -8.5v-353h203v353q0 12 12 12h78q4 0 8 -3.5t4 -8.5v-353h103q12 0 12 -12v-230q0 -12 -12 -12h-76q-13 0 -13 12v152z" />
    <glyph glyph-name="afii10092" unicode="&#x44a;" horiz-adv-x="635" 
d="M427 0h-216q-12 0 -12 12v353h-171q-12 0 -12 12v66q0 12 12 12h261q5 0 9 -3.5t4 -8.5v-175h124q90 0 133 -46q33 -35 33 -88q0 -59 -40 -96q-42 -38 -125 -38zM491 133q0 26 -16 40q-23 20 -74 20h-99v-118h104q46 0 67 16q18 16 18 42z" />
    <glyph glyph-name="afii10093" unicode="&#x44b;" horiz-adv-x="699" 
d="M361 133q0 27 -16 40q-21 20 -74 20h-100v-118h106q45 0 66 16q18 15 18 42zM540 455h78q5 0 9 -3.5t4 -8.5v-431q0 -12 -13 -12h-78q-12 0 -12 12v431q0 5 4 8.5t8 3.5zM171 443v-175h125q91 0 133 -46q33 -33 33 -88q0 -60 -39 -96q-44 -38 -125 -38h-217q-13 0 -13 12
v431q0 5 4 8.5t9 3.5h78q12 0 12 -12z" />
    <glyph glyph-name="afii10094" unicode="&#x44c;" horiz-adv-x="506" 
d="M171 443v-175h125q91 0 133 -46q33 -33 33 -88q0 -60 -39 -96q-44 -38 -125 -38h-217q-13 0 -13 12v431q0 5 4 8.5t9 3.5h78q12 0 12 -12zM361 133q0 27 -16 40q-21 20 -74 20h-100v-118h106q45 0 66 16q18 15 18 42z" />
    <glyph glyph-name="afii10095" unicode="&#x44d;" horiz-adv-x="477" 
d="M324 194h-228q-13 0 -13 13v42q0 12 13 12h226q-7 45 -39 77q-41 41 -107 41q-51 0 -105 -32q-11 -6 -16 4l-25 54q-6 10 5 16q64 42 148 42q127 0 200 -88q51 -61 51 -148q0 -103 -61 -166q-68 -71 -188 -71q-87 0 -151 40q-10 7 -5 17l26 54q5 8 16 3q46 -31 107 -31
q62 0 102 34q37 32 44 87z" />
    <glyph glyph-name="afii10096" unicode="&#x44e;" horiz-adv-x="817" 
d="M68 443q0 5 4 8.5t9 3.5h78q12 0 12 -12v-168h125q12 73 65 123q67 65 172 65t172 -65q71 -65 71 -171q0 -107 -71 -172q-68 -65 -172 -65t-172 65q-56 52 -66 128h-124v-171q0 -12 -12 -12h-78q-13 0 -13 12v431zM391 227q0 -66 39 -110q41 -44 103 -44q61 0 102 44
q40 45 40 110q0 64 -40 109q-41 44 -102 44q-62 0 -103 -44q-39 -44 -39 -109z" />
    <glyph glyph-name="afii10097" unicode="&#x44f;" horiz-adv-x="480" 
d="M203 455h195q12 0 12 -12v-431q0 -12 -12 -12h-75q-12 0 -12 12v146h-85l-100 -148q-6 -10 -20 -10h-76q-16 0 -7 18l116 162q-47 13 -70 37q-34 32 -34 92q0 88 69 125q40 21 99 21zM311 372h-97q-40 0 -60 -17q-18 -16 -18 -48q0 -35 21 -50q20 -16 60 -16h94v131z" />
    <glyph glyph-name="afii10071" unicode="&#x451;" horiz-adv-x="524" 
d="M149 268h237q-3 48 -30 78q-32 35 -86 35q-59 0 -91 -37q-27 -32 -30 -76zM291 71q65 0 125 36q12 7 18 -3l27 -50q6 -9 -5 -16q-68 -48 -172 -48q-115 0 -180 70q-63 66 -63 173q0 99 64 166q61 64 166 64q114 0 171 -75q49 -64 43 -175q-2 -14 -14 -14h-322
q4 -51 34 -84q38 -44 108 -44zM156 604q-25 0 -42.5 17.5t-17.5 42.5t17.5 42.5t42.5 17.5t43 -17.5t18 -42.5t-18 -42.5t-43 -17.5zM366 604q-25 0 -42.5 17.5t-17.5 42.5t17.5 42.5t42.5 17.5t42.5 -17.5t17.5 -42.5t-17.5 -42.5t-42.5 -17.5z" />
    <glyph glyph-name="afii10099" unicode="&#x452;" horiz-adv-x="567" 
d="M403 89v163q0 71 -30 102q-25 25 -75 25q-68 0 -101 -53q-24 -38 -24 -90v-224q0 -12 -13 -12h-78q-12 0 -12 12v512h-59q-12 0 -12 12v56q0 12 12 12h59v64q0 5 3.5 9t8.5 4h78q13 0 13 -13v-64h135q5 0 9 -3.5t4 -8.5v-56q0 -12 -13 -12h-135v-137q20 32 49 51
q41 25 98 25q84 0 132 -42q54 -49 54 -148v-204q0 -170 -102 -226q-13 -7 -21 1l-50 52q-9 9 2 17q39 25 53.5 61.5t14.5 114.5z" />
    <glyph glyph-name="afii10100" unicode="&#x453;" horiz-adv-x="427" 
d="M158 0h-77q-13 0 -13 12v431q0 5 4 8.5t9 3.5h314q5 0 9 -3.5t4 -8.5v-66q0 -13 -13 -13h-224v-352q0 -12 -13 -12zM250 764h70q8 0 11 -6t-2 -13l-101 -164q-8 -12 -18 -12h-53q-17 0 -7 23l83 160q7 12 17 12z" />
    <glyph glyph-name="afii10101" unicode="&#x454;" horiz-adv-x="475" 
d="M379 194h-228q6 -54 44 -87q39 -34 102 -34q59 0 107 31q10 6 15 -3l27 -54q4 -10 -5 -17q-64 -40 -151 -40q-122 0 -188 71q-61 63 -61 166q0 87 51 148q71 88 200 88q83 0 148 -42q10 -7 5 -16l-26 -54q-5 -10 -16 -4q-52 32 -104 32q-67 0 -108 -41q-32 -32 -38 -77
h226q13 0 13 -12v-42q0 -13 -13 -13z" />
    <glyph glyph-name="afii10102" unicode="&#x455;" horiz-adv-x="420" 
d="M197 70q79 0 79 51q0 20 -13.5 32t-40.5 25q-13 6 -49 19t-54 21q-75 35 -75 117q0 61 45 95t128 34t145 -34q11 -6 6 -16l-28 -57q-6 -10 -16 -4q-49 27 -101 27q-73 0 -73 -43q0 -18 12.5 -29t36.5 -22q10 -4 46.5 -17.5t54.5 -22.5q82 -40 82 -116q0 -63 -49 -101.5
t-131 -38.5q-98 0 -159 40q-9 6 -5 15l28 57q5 11 16 5q58 -37 115 -37z" />
    <glyph glyph-name="afii10103" unicode="&#x456;" horiz-adv-x="240" 
d="M68 443q0 5 4 8.5t9 3.5h78q12 0 12 -12v-431q0 -12 -12 -12h-78q-13 0 -13 12v431zM119 604q-25 0 -42.5 17.5t-17.5 42.5t17.5 42t42.5 17t42.5 -17t17.5 -42t-17.5 -42.5t-42.5 -17.5z" />
    <glyph glyph-name="afii10104" unicode="&#x457;" horiz-adv-x="240" 
d="M68 443q0 5 4 8.5t9 3.5h78q12 0 12 -12v-431q0 -12 -12 -12h-78q-13 0 -13 12v431zM15 604q-25 0 -42.5 17.5t-17.5 42.5t17.5 42.5t42.5 17.5t43 -17.5t18 -42.5t-18 -42.5t-43 -17.5zM225 604q-25 0 -42.5 17.5t-17.5 42.5t17.5 42.5t42.5 17.5t42.5 -17.5t17.5 -42.5
t-17.5 -42.5t-42.5 -17.5z" />
    <glyph glyph-name="afii10105" unicode="&#x458;" horiz-adv-x="240" 
d="M179 663q0 -25 -17.5 -42.5t-42.5 -17.5t-42.5 17.5t-17.5 42.5t17.5 42.5t42.5 17.5t42.5 -17.5t17.5 -42.5zM68 17v425q0 13 13 13h78q5 0 8.5 -4t3.5 -9v-406q0 -107 -23 -172.5t-78 -96.5q-13 -7 -21 1l-52 52q-10 10 2 18q38 25 53.5 65.5t15.5 113.5z" />
    <glyph glyph-name="afii10106" unicode="&#x459;" horiz-adv-x="838" 
d="M402 364h-197q-8 -154 -26 -228q-18 -79 -54 -123q-10 -13 -29 -13h-63q-23 0 -9 25q37 57 56 128q22 86 22 241v47q0 14 14 14h376q5 0 9 -3.5t4 -8.5v-175h124q90 0 133 -46q32 -34 32 -88q0 -60 -39 -96q-42 -38 -125 -38h-216q-12 0 -12 12v352zM693 133q0 27 -16 40
q-21 20 -74 20h-98v-118h104q45 0 66 16q18 15 18 42z" />
    <glyph glyph-name="afii10107" unicode="&#x45a;" horiz-adv-x="836" 
d="M503 443v-175h124q90 0 133 -46q32 -34 32 -88q0 -60 -39 -96q-42 -38 -125 -38h-215q-13 0 -13 12v181h-229v-181q0 -12 -12 -12h-78q-13 0 -13 12v431q0 5 4 8.5t9 3.5h78q12 0 12 -12v-175h229v175q0 5 4 8.5t9 3.5h78q12 0 12 -12zM691 133q0 27 -16 40
q-21 20 -74 20h-98v-118h104q45 0 66 16q18 15 18 42z" />
    <glyph glyph-name="afii10108" unicode="&#x45b;" horiz-adv-x="567" 
d="M298 379q-69 0 -101 -53q-24 -37 -24 -90v-224q0 -12 -13 -12h-78q-12 0 -12 12v512h-59q-12 0 -12 12v56q0 12 12 12h59v64q0 5 3.5 9t8.5 4h78q13 0 13 -13v-64h135q5 0 9 -3.5t4 -8.5v-56q0 -12 -13 -12h-135v-137q20 32 49 51q41 25 98 25q84 0 132 -42
q54 -49 54 -148v-261q0 -12 -13 -12h-78q-12 0 -12 12v240q0 71 -30 102q-25 25 -75 25z" />
    <glyph glyph-name="afii10109" unicode="&#x45c;" horiz-adv-x="520" 
d="M392 455h90q9 0 11 -6.5t-5 -15.5l-174 -199l180 -213q8 -7 6 -14t-11 -7h-93q-15 0 -24 12l-145 172h-56v-172q0 -12 -13 -12h-77q-13 0 -13 12v431q0 5 4 8.5t9 3.5h77q5 0 9 -3.5t4 -8.5v-169h57l141 169q9 12 23 12zM291 764h70q8 0 11 -6t-2 -13l-101 -164
q-7 -12 -18 -12h-53q-17 0 -7 23l83 160q7 12 17 12z" />
    <glyph glyph-name="afii10110" unicode="&#x45e;" horiz-adv-x="504" 
d="M500 438l-177 -463q-39 -101 -89 -148q-68 -67 -183 -61q-10 0 -10 10v78q0 9 11 9q3 0 10.5 -0.5t14.5 -0.5q48 0 85 35q29 29 50 74l-207 467q-7 17 10 17h94q16 0 20 -14l136 -342l119 342q4 14 20 14h87q14 0 9 -17zM254 653q67 0 75 65q1 12 14 12h36q15 0 15 -13
q0 -58 -37 -98t-103 -40t-103.5 40t-37.5 98q0 13 15 13h37q13 0 14 -12q7 -65 75 -65z" />
    <glyph glyph-name="afii10193" unicode="&#x45f;" horiz-adv-x="559" 
d="M401 455h77q5 0 9 -3.5t4 -8.5v-431q0 -12 -13 -12h-147v-152q0 -12 -13 -12h-77q-12 0 -12 12v152h-148q-13 0 -13 12v431q0 5 4 8.5t9 3.5h78q12 0 12 -12v-353h217v353q0 5 4 8.5t9 3.5z" />
    <glyph glyph-name="afii10050" unicode="&#x490;" horiz-adv-x="538" 
d="M428 862h74q12 0 12 -12v-256q0 -12 -12 -12h-319v-570q0 -12 -12 -12h-88q-12 0 -12 12v656q0 5 3.5 9t8.5 4h333v169q0 12 12 12z" />
    <glyph glyph-name="afii10098" unicode="&#x491;" horiz-adv-x="427" 
d="M315 616q0 12 12 12h74q12 0 12 -12v-239q0 -5 -3.5 -9t-8.5 -4h-230v-352q0 -12 -13 -12h-77q-13 0 -13 12v431q0 5 4 8.5t9 3.5h234v161z" />
    <glyph glyph-name="endash" unicode="&#x2013;" horiz-adv-x="710" 
d="M606 201h-503q-12 0 -12 13v75q0 13 12 13h503q13 0 13 -13v-75q0 -13 -13 -13z" />
    <glyph glyph-name="emdash" unicode="&#x2014;" horiz-adv-x="1250" 
d="M1146 201h-1043q-12 0 -12 13v75q0 13 12 13h1043q13 0 13 -13v-75q0 -13 -13 -13z" />
    <glyph glyph-name="quoteleft" unicode="&#x2018;" horiz-adv-x="244" 
d="M52 551q-1 45 31 86.5t77 55.5q12 5 18 -5l11 -16q6 -9 -4 -17q-42 -30 -42 -52q0 -15 24.5 -33t24.5 -48q0 -27 -17.5 -43.5t-46.5 -16.5q-74 0 -76 89z" />
    <glyph glyph-name="quoteright" unicode="&#x2019;" horiz-adv-x="244" 
d="M192 602q1 -46 -31 -87.5t-77 -55.5q-12 -4 -18 5l-11 16q-6 10 4 17q1 1 7.5 5.5t8.5 6.5t7.5 6.5t7.5 7.5t5.5 7.5t4.5 9t1 9.5q0 15 -24.5 33.5t-24.5 47.5q0 27 17.5 44t46.5 17q74 0 76 -89z" />
    <glyph glyph-name="quotesinglbase" unicode="&#x201a;" horiz-adv-x="234" 
d="M188 22q1 -45 -31 -86.5t-77 -56.5q-13 -3 -18 5l-11 16q-5 10 4 18q34 24 40 40q2 6 2 12q0 11 -7.5 19t-17 13.5t-17 18t-7.5 30.5q0 27 17.5 43.5t46.5 16.5q74 0 76 -89z" />
    <glyph glyph-name="quotedblleft" unicode="&#x201c;" horiz-adv-x="434" 
d="M241 551q-1 45 31 86.5t77 55.5q12 5 18 -5l11 -16q6 -9 -4 -17q-42 -30 -42 -52q0 -15 24.5 -33t24.5 -48q0 -27 -17.5 -43.5t-46.5 -16.5q-74 0 -76 89zM52 551q-1 45 31 86.5t77 55.5q12 5 18 -5l11 -16q6 -10 -4 -17q-42 -30 -42 -52q0 -14 12.5 -23t25 -22t12.5 -36
q0 -27 -18 -43.5t-47 -16.5q-74 0 -76 89z" />
    <glyph glyph-name="quotedblright" unicode="&#x201d;" horiz-adv-x="434" 
d="M192 602q1 -46 -31 -87.5t-77 -55.5q-12 -4 -18 5l-11 16q-6 10 4 17q1 1 7.5 5.5t8.5 6.5t7.5 6.5t7.5 7.5t5.5 7.5t4.5 9t1 9.5q0 15 -24.5 33.5t-24.5 47.5q0 27 17.5 44t46.5 17q74 0 76 -89zM382 602q1 -46 -31.5 -87.5t-77.5 -55.5q-12 -4 -18 5l-11 16q-6 10 4 17
q1 1 7.5 5.5t8.5 6.5t7.5 6.5t7.5 7.5t5.5 7.5t4.5 9t1 9.5q0 15 -24.5 33.5t-24.5 47.5q0 27 17.5 44t47.5 17q36 0 55 -24t21 -65z" />
    <glyph glyph-name="quotedblbase" unicode="&#x201e;" horiz-adv-x="424" 
d="M188 22q1 -45 -31 -86.5t-77 -56.5q-13 -3 -18 5l-11 16q-5 10 4 18q34 24 40 40q2 6 2 12q0 11 -7.5 19t-17 13.5t-17 18t-7.5 30.5q0 27 17.5 43.5t46.5 16.5q74 0 76 -89zM378 22q1 -45 -31.5 -87t-77.5 -56q-13 -3 -18 5l-11 16q-5 10 4 18q34 24 40 40q2 6 2 12
q0 11 -7.5 19t-17 13.5t-17 18t-7.5 30.5q0 27 17.5 43.5t47.5 16.5q36 0 55 -24t21 -65z" />
    <glyph glyph-name="dagger" unicode="&#x2020;" horiz-adv-x="506" 
d="M253 -228q-22 0 -37.5 15.5t-15.5 37.5q0 51 20 533q-135 -16 -148 -16q-21 0 -35.5 15t-14.5 35q0 21 14.5 35.5t35.5 14.5q13 0 148 -16q-17 205 -17 215q0 21 14.5 35.5t35.5 14.5t35.5 -14.5t14.5 -35.5q0 -10 -17 -215q135 16 148 16q20 0 35 -14.5t15 -35.5
q0 -20 -15 -35t-35 -15q-13 0 -149 16q21 -481 21 -533q0 -22 -15.5 -37.5t-37.5 -15.5z" />
    <glyph glyph-name="daggerdbl" unicode="&#x2021;" horiz-adv-x="505" 
d="M203 231l17 127q-135 -16 -148 -16q-21 0 -35.5 15t-14.5 35q0 21 14.5 35.5t35.5 14.5q13 0 148 -16q-17 205 -17 215q0 21 14.5 35.5t35.5 14.5t35.5 -14.5t14.5 -35.5q0 -10 -17 -215q135 16 148 16q20 0 35 -14.5t15 -35.5q0 -20 -15 -35t-35 -15q-13 0 -149 16
l18 -127l-18 -127q136 16 149 16q20 0 35 -14.5t15 -35.5t-15 -35.5t-35 -14.5q-3 0 -148 16q17 -204 17 -214q0 -21 -14.5 -35.5t-35.5 -14.5t-35.5 14.5t-14.5 35.5q0 10 17 214q-145 -16 -148 -16q-21 0 -35.5 14.5t-14.5 35.5t14.5 35.5t35.5 14.5q13 0 148 -16z" />
    <glyph glyph-name="bullet" unicode="&#x2022;" horiz-adv-x="510" 
d="M53 341q0 83 59.5 142.5t142.5 59.5t142.5 -59.5t59.5 -142.5t-59.5 -142.5t-142.5 -59.5t-142.5 59.5t-59.5 142.5z" />
    <glyph glyph-name="ellipsis" unicode="&#x2026;" horiz-adv-x="802" 
d="M757 54q0 -26 -18 -44.5t-44 -18.5t-44.5 18.5t-18.5 44.5t18.5 44t44.5 18t44 -18t18 -44zM465 54q0 -26 -18 -44.5t-44 -18.5t-44.5 18.5t-18.5 44.5t18.5 44t44.5 18t44 -18t18 -44zM173 54q0 -26 -18 -44.5t-44 -18.5t-44.5 18.5t-18.5 44.5t18.5 44t44.5 18t44 -18
t18 -44z" />
    <glyph glyph-name="perthousand" unicode="&#x2030;" horiz-adv-x="1032" 
d="M275 537q0 40 -28.5 68t-68.5 28t-68.5 -28t-28.5 -68t28.5 -68.5t68.5 -28.5t68.5 28t28.5 69zM331 537q0 -63 -45.5 -108t-107.5 -45q-63 0 -108 44.5t-45 108.5q0 63 45 108t108 45q62 0 107.5 -45t45.5 -108zM399 143q0 -41 28.5 -69t68.5 -28t68 28.5t28 68.5
t-28 68t-68 28t-68.5 -28t-28.5 -68zM343 143q0 63 45.5 108t107.5 45q63 0 108 -45t45 -108t-45 -108t-108 -45t-108 45t-45 108zM757 143q0 -41 28.5 -69t68.5 -28t68 28.5t28 68.5t-28 68t-68 28t-68.5 -28t-28.5 -68zM701 143q0 63 45 108t108 45q62 0 107.5 -45
t45.5 -108t-45.5 -108t-107.5 -45q-63 0 -108 44.5t-45 108.5zM93 15l420 655q7 11 18 11h41q7 0 9.5 -5t-1.5 -11l-420 -656q-6 -9 -18 -9h-41q-17 0 -8 15z" />
    <glyph glyph-name="guilsinglleft" unicode="&#x2039;" horiz-adv-x="359" 
d="M27 228q0 7 10 19l179 200q11 12 25 12h77q11 0 14 -7t-5 -16l-182 -208l182 -207q8 -10 5 -17t-14 -7h-77q-13 0 -25 13l-179 200q-10 10 -10 18z" />
    <glyph glyph-name="guilsinglright" unicode="&#x203a;" horiz-adv-x="359" 
d="M332 228q0 -7 -9 -18l-180 -200q-10 -13 -26 -13h-75q-12 0 -14.5 7t5.5 17l181 207l-181 208q-8 9 -5.5 16t14.5 7h75q16 0 26 -12l180 -200q9 -13 9 -19z" />
    <glyph glyph-name="fraction" unicode="&#x2044;" horiz-adv-x="391" 
d="M421 663l-334 -651q-7 -12 -18 -12h-87q-9 0 -12 5.5t1 12.5l333 650q6 13 19 13h86q9 0 12 -5.5t0 -12.5z" />
    <glyph glyph-name="Euro" unicode="&#x20ac;" 
d="M-2 436h62q27 93 101 163q101 91 238 91q116 0 204 -50q12 -7 7 -18l-35 -73q-4 -11 -16 -5q-80 45 -162 45q-80 0 -142 -52q-51 -43 -73 -101h316q12 0 12 -12v-34q0 -12 -12 -12h-335q-3 -20 -3 -37q0 -21 3 -40h281q12 0 12 -12v-34q0 -12 -12 -12h-261
q19 -60 68 -101q62 -51 147 -51q86 0 165 46q11 7 16 -4l34 -74q6 -12 -5 -17q-93 -52 -210 -52q-131 0 -221 70q-92 67 -120 183h-59q-12 0 -12 12v34q0 5 4 8.5t8 3.5h50q-2 13 -2 40q0 24 3 37h-51q-12 0 -12 12v34q0 12 12 12z" />
    <glyph glyph-name="afii61352" unicode="&#x2116;" horiz-adv-x="1315" 
d="M657 0h-78q-13 0 -22 13l-379 483v-484q0 -12 -12 -12h-83q-12 0 -12 12v656q0 5 3.5 9t8.5 4h78q13 0 23 -13l379 -484v484q0 13 12 13h82q13 0 13 -13v-656q0 -12 -13 -12zM886 453q0 -64 40 -109q41 -44 102 -44q62 0 103 44q39 44 39 109t-39 109q-41 44 -103 44
q-61 0 -102 -44q-40 -45 -40 -109zM785 453q0 107 71 172q68 65 172 65t172 -65q72 -66 72 -172t-72 -172q-68 -65 -172 -65t-172 65q-71 65 -71 172zM803 90h450q13 0 13 -12v-66q0 -12 -13 -12h-450q-13 0 -13 12v66q0 12 13 12z" />
    <glyph glyph-name="trademark" unicode="&#x2122;" horiz-adv-x="800" 
d="M42 713h275q13 0 13 -13v-33q0 -12 -13 -12h-105v-288q0 -12 -12 -12h-39q-13 0 -13 12v288h-106q-12 0 -12 12v33q0 5 3.5 9t8.5 4zM552 512l111 188q8 13 23 13h35q12 0 12 -13v-335q0 -12 -12 -12h-38q-12 0 -12 12v234l-92 -155q-7 -13 -19 -13h-16q-12 0 -19 13
l-91 155v-234q0 -12 -13 -12h-37q-12 0 -12 12v335q0 13 12 13h35q15 0 22 -13z" />
    <glyph glyph-name="Omega" unicode="&#x2126;" horiz-adv-x="750" 
d="M375 690q138 0 218 -74.5t80 -213.5q0 -110 -68 -207l-83 -108h142q12 0 12 -12v-63q0 -12 -12 -12h-227q-13 0 -13 12v51q0 15 9.5 31t30.5 45.5t37 59.5q55 91 55 184q0 100 -47.5 153t-133.5 53t-133.5 -53t-47.5 -153q0 -92 55 -184q17 -30 38 -59.5t30.5 -45.5
t9.5 -31v-51q0 -12 -13 -12h-227q-13 0 -13 12v63q0 5 4 8.5t9 3.5h141q-10 15 -38 50t-45 58q-68 99 -68 207q0 138 80 213t218 75z" />
    <glyph glyph-name="partialdiff" unicode="&#x2202;" horiz-adv-x="514" 
d="M369 298q-46 32 -109 32q-53 0 -89 -36q-34 -36 -34 -89q0 -57 31 -91q32 -37 89 -37q60 0 92 43q28 40 28 105q0 36 -8 73zM41 205q0 94 63 152q58 53 141 53q50 0 94 -23q-30 61 -79 114q-62 68 -149 125q-10 7 -2 17l50 51q9 9 20 1q102 -64 176 -156
q118 -148 118 -314q0 -105 -55 -168q-60 -67 -163 -67q-92 0 -151 56q-63 58 -63 159z" />
    <glyph glyph-name="Delta" unicode="&#x2206;" horiz-adv-x="618" 
d="M309 522l-151 -425h302zM569 0h-521q-12 0 -12 12v38q0 9 3 18l210 602q5 11 17 11h85q12 0 17 -11l211 -602q3 -9 3 -18v-38q0 -12 -13 -12z" />
    <glyph glyph-name="product" unicode="&#x220f;" horiz-adv-x="697" 
d="M613 -171h-87q-12 0 -12 12v740h-331v-740q0 -12 -12 -12h-88q-12 0 -12 12v827q0 5 3.5 9t8.5 4h530q13 0 13 -13v-827q0 -12 -13 -12z" />
    <glyph glyph-name="summation" unicode="&#x2211;" horiz-adv-x="532" 
d="M477 0h-424q-12 0 -12 12v52q0 11 10 21l254 255l-254 255q-10 9 -10 21v52q0 13 12 13h424q13 0 13 -13v-72q0 -13 -13 -13h-279l206 -207q9 -9 9 -22v-28q0 -13 -9 -22l-206 -207h279q13 0 13 -12v-73q0 -12 -13 -12z" />
    <glyph glyph-name="minus" unicode="&#x2212;" horiz-adv-x="539" 
d="M485 304h-432q-12 0 -12 13v72q0 12 12 12h432q13 0 13 -12v-72q0 -13 -13 -13z" />
    <glyph glyph-name="radical" unicode="&#x221a;" horiz-adv-x="746" 
d="M738 696l-370 -701q-7 -12 -19 -12h-53q-10 0 -17 11l-100 168h-117q-13 0 -13 12v76q0 13 13 13h159q13 0 22 -13l77 -130l307 583q5 13 18 13h82q9 0 12 -6.5t-1 -13.5z" />
    <glyph glyph-name="infinity" unicode="&#x221e;" horiz-adv-x="800" 
d="M234 65q-87 0 -139 57.5t-52 146.5q0 88 50.5 146.5t140.5 58.5q99 0 166 -121q64 121 165 121q87 0 139 -57t52 -148q0 -89 -51 -146.5t-140 -57.5q-102 0 -165 121q-65 -121 -166 -121zM442 269q41 -122 120 -122q49 0 79 34t30 88q0 51 -28.5 87t-80.5 36
q-81 0 -120 -123zM237 147q82 0 120 122q-39 123 -120 123q-51 0 -80 -35.5t-29 -87.5q0 -54 29.5 -88t79.5 -34z" />
    <glyph glyph-name="integral" unicode="&#x222b;" horiz-adv-x="436" 
d="M391 577h-56q-61 0 -61 -66v-520q0 -77 -43 -121t-118 -44h-69q-13 0 -13 12v75q0 13 13 13h57q61 0 61 65v520q0 77 42.5 121.5t118.5 44.5h68q13 0 13 -13v-75q0 -5 -4 -8.5t-9 -3.5z" />
    <glyph glyph-name="approxequal" unicode="&#x2248;" horiz-adv-x="519" 
d="M34 182v54q0 14 10 22q56 43 117 43q40 0 103.5 -25t95.5 -25q51 0 106 40q6 5 12 2t6 -13v-54q0 -13 -10 -22q-54 -43 -118 -43q-39 0 -98 25.5t-93 25.5q-54 0 -113 -40q-5 -5 -11.5 -2.5t-6.5 12.5zM34 419v54q0 14 10 22q56 43 117 43q40 0 103.5 -25.5t95.5 -25.5
q48 0 106 40q6 5 12 2.5t6 -12.5v-54q0 -15 -10 -22q-54 -43 -118 -43q-39 0 -98 25.5t-93 25.5q-54 0 -113 -40q-5 -5 -11.5 -2.5t-6.5 12.5z" />
    <glyph glyph-name="notequal" unicode="&#x2260;" horiz-adv-x="568" 
d="M53 283h153l62 139h-215q-12 0 -12 12v72q0 13 12 13h259l52 115q5 13 18 13h49q9 0 12 -5.5t0 -12.5l-50 -110h122q12 0 12 -13v-72q0 -12 -12 -12h-165l-63 -139h228q12 0 12 -13v-72q0 -12 -12 -12h-271l-49 -111q-7 -12 -19 -12h-49q-18 0 -11 18l47 105h-110
q-12 0 -12 12v72q0 13 12 13z" />
    <glyph glyph-name="lessequal" unicode="&#x2264;" horiz-adv-x="568" 
d="M60 97h448q12 0 12 -13v-72q0 -12 -12 -12h-448q-13 0 -13 12v72q0 13 13 13zM47 415v49q0 14 12 19l444 206q17 6 17 -9v-75q0 -15 -13 -20l-326 -145l326 -146q13 -5 13 -20v-74q0 -16 -17 -10l-444 206q-12 5 -12 19z" />
    <glyph glyph-name="greaterequal" unicode="&#x2265;" horiz-adv-x="568" 
d="M60 97h448q12 0 12 -13v-72q0 -12 -12 -12h-448q-13 0 -13 12v72q0 13 13 13zM520 464v-49q0 -14 -12 -19l-444 -206q-17 -7 -17 10v74q0 15 13 20l327 146l-327 145q-13 5 -13 20v75q0 16 17 9l444 -206q12 -5 12 -19z" />
    <glyph glyph-name="lozenge" unicode="&#x25ca;" horiz-adv-x="605" 
d="M44 325v30q0 13 9 24l212 290q7 11 18 11h40q9 0 18 -11l212 -290q8 -12 8 -24v-30q0 -12 -8 -24l-212 -290q-8 -11 -18 -11h-40q-10 0 -18 11l-212 290q-9 11 -9 24zM460 340l-158 222l-157 -222l158 -222z" />
    <glyph glyph-name="A.2" unicode="&#xe000;" horiz-adv-x="692" 
d="M346 586q-71 0 -117 -48q-47 -52 -47 -141v-87h328v87q0 90 -48 141q-45 48 -116 48zM622 402v-390q0 -12 -12 -12h-87q-13 0 -13 12v199h-328v-199q0 -12 -13 -12h-87q-12 0 -12 12v390q0 140 92 220q73 68 184 68t184 -68q92 -82 92 -220z" />
    <glyph glyph-name="A.3" unicode="&#xe001;" horiz-adv-x="649" 
d="M322 592q-98 0 -196 -57q-14 -9 -18 3l-32 70q-5 9 5 16q42 27 108 46.5t142 19.5q133 0 194 -74q55 -64 55 -187v-417q0 -12 -13 -12h-79q-12 0 -12 12v29h-5q-43 -28 -86.5 -39.5t-108.5 -11.5q-87 0 -148 42q-79 54 -79 150q0 111 100 167q99 55 319 66v14
q0 82 -35 121q-36 42 -111 42zM170 187q0 -57 48 -83q42 -21 98 -21q84 0 152 47v198q-152 -8 -219 -38q-79 -34 -79 -103z" />
    <glyph glyph-name="A.calt" unicode="&#xe002;" horiz-adv-x="633" 
d="M173 153l-52 -140q-4 -13 -20 -13h-86q-11 0 -11 9q0 2 2 10l246 652q4 13 19 13h92q14 0 20 -13l243 -652q3 -9 3 -10q0 -9 -12 -9h-88q-16 0 -20 13l-51 140h-285zM430 243l-114 305l-115 -305h229z" />
    <glyph glyph-name="AE.3" unicode="&#xe003;" horiz-adv-x="1152" 
d="M328 689q81 0 132 -22.5t89 -85.5q84 109 246 108q164 0 248 -113q63 -82 66 -209q0 -5 -2 -49q-1 -13 -14 -13h-500q8 -100 70 -156q64 -58 159 -58q117 0 207 61q14 9 18 -3l33 -72q5 -10 -5 -16q-117 -71 -252 -71q-170 0 -264 100q-55 -48 -119.5 -74t-159.5 -26
q-94 0 -162.5 50t-68.5 142q0 46 18.5 81.5t54 58t74 37.5t91 23t92 11t89.5 5l-1 55q-9 139 -145 139q-98 0 -196 -57q-14 -9 -18 3l-32 70q-5 9 5 16q100 65 247 65zM316 83q105 0 196 78q-35 54 -41 144q-301 0 -301 -118q0 -53 41.5 -78.5t104.5 -25.5zM592 400h398
q-6 84 -58.5 136.5t-135.5 52.5t-137.5 -51.5t-66.5 -137.5z" />
    <glyph glyph-name="AE.calt" unicode="&#xe004;" horiz-adv-x="1007" 
d="M244 153l-107 -140q-12 -13 -26 -13h-100q-9 0 -11 6.5t4 14.5l503 646q11 14 28 14h423q5 0 8.5 -4t3.5 -9v-74q0 -12 -12 -12h-326v-191h273q13 0 13 -12v-75q0 -5 -4 -8.5t-9 -3.5h-273v-193h326q4 0 8 -3.5t4 -8.5v-75q0 -12 -12 -12h-424q-14 0 -14 13v140h-276z
M313 243h207v272z" />
    <glyph glyph-name="AEsmall.3" unicode="&#xe005;" horiz-adv-x="934" 
d="M644 552q114 0 185 -73q73 -77 66 -227q0 -13 -13 -13h-387q9 -64 42 -101q48 -54 128 -54q90 0 160 47q14 8 19 -4l28 -61q7 -10 -5 -17q-97 -57 -204 -57q-133 0 -208 78q-90 -78 -220 -78q-72 0 -124 38q-58 45 -58 121q0 94 93 136q72 32 234 36v23q0 57 -24 84
q-27 31 -81 31q-71 0 -150 -46q-14 -9 -18 3l-29 63q-5 10 5 16q87 55 201 55q72 0 112 -32q35 -26 52 -70q23 34 57 58q57 44 139 44zM263 80q83 0 152 52q-29 45 -32 107q-112 -2 -162 -19q-63 -19 -63 -65q0 -37 31 -57q28 -18 74 -18zM496 320h292q-5 64 -40 98
q-39 41 -102 41q-68 0 -110 -47q-32 -35 -40 -92z" />
    <glyph glyph-name="Aacute.2" unicode="&#xe006;" horiz-adv-x="692" 
d="M346 586q-71 0 -117 -48q-47 -52 -47 -141v-87h328v87q0 90 -48 141q-45 48 -116 48zM622 402v-390q0 -12 -12 -12h-87q-13 0 -13 12v199h-328v-199q0 -12 -13 -12h-87q-12 0 -12 12v390q0 140 92 220q73 68 184 68t184 -68q92 -82 92 -220zM360 968h70q8 0 11 -6t-2 -13
l-101 -164q-8 -12 -18 -12h-53q-17 0 -7 23l83 160q7 12 17 12z" />
    <glyph glyph-name="Aacute.3" unicode="&#xe007;" horiz-adv-x="649" 
d="M322 592q-98 0 -196 -57q-14 -9 -18 3l-32 70q-5 9 5 16q42 27 108 46.5t142 19.5q133 0 194 -74q55 -64 55 -187v-417q0 -12 -13 -12h-79q-12 0 -12 12v29h-5q-43 -28 -86.5 -39.5t-108.5 -11.5q-87 0 -148 42q-79 54 -79 150q0 111 100 167q99 55 319 66v14
q0 82 -35 121q-36 42 -111 42zM170 187q0 -57 48 -83q42 -21 98 -21q84 0 152 47v198q-152 -8 -219 -38q-79 -34 -79 -103zM338 968h70q8 0 11 -6t-2 -13l-101 -164q-8 -12 -18 -12h-53q-17 0 -7 23l83 160q7 12 17 12z" />
    <glyph glyph-name="Aacute.calt" unicode="&#xe008;" horiz-adv-x="633" 
d="M173 153l-52 -140q-4 -13 -20 -13h-86q-11 0 -11 9q0 2 2 10l246 652q4 13 19 13h92q14 0 20 -13l243 -652q3 -9 3 -10q0 -9 -12 -9h-88q-16 0 -20 13l-51 140h-285zM430 243l-114 305l-115 -305h229zM323 968h70q8 0 11 -6t-2 -13l-101 -164q-7 -12 -18 -12h-53
q-17 0 -7 23l83 160q7 12 17 12z" />
    <glyph glyph-name="Abreve.2" unicode="&#xe009;" horiz-adv-x="692" 
d="M346 586q-71 0 -117 -48q-47 -52 -47 -141v-87h328v87q0 90 -48 141q-45 48 -116 48zM622 402v-390q0 -12 -12 -12h-87q-13 0 -13 12v199h-328v-199q0 -12 -13 -12h-87q-12 0 -12 12v390q0 140 92 220q73 68 184 68t184 -68q92 -82 92 -220zM345 866q67 0 75 65
q2 12 14 12h36q15 0 15 -13q0 -58 -37 -98t-103 -40t-103.5 40t-37.5 98q0 13 15 13h37q12 0 14 -12q7 -65 75 -65z" />
    <glyph glyph-name="Abreve.3" unicode="&#xe00a;" horiz-adv-x="649" 
d="M322 592q-98 0 -196 -57q-14 -9 -18 3l-32 70q-5 9 5 16q42 27 108 46.5t142 19.5q133 0 194 -74q55 -64 55 -187v-417q0 -12 -13 -12h-79q-12 0 -12 12v29h-5q-43 -28 -86.5 -39.5t-108.5 -11.5q-87 0 -148 42q-79 54 -79 150q0 111 100 167q99 55 319 66v14
q0 82 -35 121q-36 42 -111 42zM170 187q0 -57 48 -83q42 -21 98 -21q84 0 152 47v198q-152 -8 -219 -38q-79 -34 -79 -103zM325 866q67 0 75 65q2 12 14 12h36q15 0 15 -13q0 -58 -37 -98t-103 -40t-103.5 40t-37.5 98q0 13 15 13h37q12 0 14 -12q7 -65 75 -65z" />
    <glyph glyph-name="Abreve.calt" unicode="&#xe00b;" horiz-adv-x="633" 
d="M173 153l-52 -140q-4 -13 -20 -13h-86q-11 0 -11 9q0 2 2 10l246 652q4 13 19 13h92q14 0 20 -13l243 -652q3 -9 3 -10q0 -9 -12 -9h-88q-16 0 -20 13l-51 140h-285zM430 243l-114 305l-115 -305h229zM316 866q67 0 75 65q1 12 14 12h36q15 0 15 -13q0 -58 -37 -98
t-103 -40t-103.5 40t-37.5 98q0 13 15 13h37q13 0 14 -12q7 -65 75 -65z" />
    <glyph glyph-name="Acircumflex.2" unicode="&#xe00c;" horiz-adv-x="692" 
d="M346 586q-71 0 -117 -48q-47 -52 -47 -141v-87h328v87q0 90 -48 141q-45 48 -116 48zM622 402v-390q0 -12 -12 -12h-87q-13 0 -13 12v199h-328v-199q0 -12 -13 -12h-87q-12 0 -12 12v390q0 140 92 220q73 68 184 68t184 -68q92 -82 92 -220zM327 968h36q9 0 18 -9
l149 -168q6 -7 4.5 -12.5t-9.5 -5.5h-65q-12 0 -22 11l-93 103l-92 -103q-11 -11 -22 -11h-65q-8 0 -9.5 5.5t4.5 12.5l149 168q9 9 17 9z" />
    <glyph glyph-name="Acircumflex.3" unicode="&#xe00d;" horiz-adv-x="649" 
d="M322 592q-98 0 -196 -57q-14 -9 -18 3l-32 70q-5 9 5 16q42 27 108 46.5t142 19.5q133 0 194 -74q55 -64 55 -187v-417q0 -12 -13 -12h-79q-12 0 -12 12v29h-5q-43 -28 -86.5 -39.5t-108.5 -11.5q-87 0 -148 42q-79 54 -79 150q0 111 100 167q99 55 319 66v14
q0 82 -35 121q-36 42 -111 42zM170 187q0 -57 48 -83q42 -21 98 -21q84 0 152 47v198q-152 -8 -219 -38q-79 -34 -79 -103zM311 968h36q9 0 18 -9l149 -168q6 -7 4.5 -12.5t-9.5 -5.5h-65q-12 0 -22 11l-93 103l-92 -103q-11 -11 -22 -11h-65q-8 0 -9.5 5.5t4.5 12.5
l149 168q9 9 17 9z" />
    <glyph glyph-name="Acircumflex.calt" unicode="&#xe00e;" horiz-adv-x="633" 
d="M173 153l-52 -140q-4 -13 -20 -13h-86q-11 0 -11 9q0 2 2 10l246 652q4 13 19 13h92q14 0 20 -13l243 -652q3 -9 3 -10q0 -9 -12 -9h-88q-16 0 -20 13l-51 140h-285zM430 243l-114 305l-115 -305h229zM288 968h36q9 0 18 -9l149 -168q6 -7 4.5 -12.5t-9.5 -5.5h-65
q-12 0 -22 11l-93 103l-92 -103q-11 -11 -22 -11h-65q-8 0 -9.5 5.5t4.5 12.5l149 168q9 9 17 9z" />
    <glyph glyph-name="Adieresis.2" unicode="&#xe00f;" horiz-adv-x="692" 
d="M346 586q-71 0 -117 -48q-47 -52 -47 -141v-87h328v87q0 90 -48 141q-45 48 -116 48zM622 402v-390q0 -12 -12 -12h-87q-13 0 -13 12v199h-328v-199q0 -12 -13 -12h-87q-12 0 -12 12v390q0 140 92 220q73 68 184 68t184 -68q92 -82 92 -220zM240 805q-25 0 -42.5 17.5
t-17.5 42.5t17.5 42.5t42.5 17.5t43 -17.5t18 -42.5t-18 -42.5t-43 -17.5zM450 805q-25 0 -42.5 17.5t-17.5 42.5t17.5 42.5t42.5 17.5t42.5 -17.5t17.5 -42.5t-17.5 -42.5t-42.5 -17.5z" />
    <glyph glyph-name="Adieresis.3" unicode="&#xe010;" horiz-adv-x="649" 
d="M322 592q-98 0 -196 -57q-14 -9 -18 3l-32 70q-5 9 5 16q42 27 108 46.5t142 19.5q133 0 194 -74q55 -64 55 -187v-417q0 -12 -13 -12h-79q-12 0 -12 12v29h-5q-43 -28 -86.5 -39.5t-108.5 -11.5q-87 0 -148 42q-79 54 -79 150q0 111 100 167q99 55 319 66v14
q0 82 -35 121q-36 42 -111 42zM170 187q0 -57 48 -83q42 -21 98 -21q84 0 152 47v198q-152 -8 -219 -38q-79 -34 -79 -103zM222 805q-25 0 -42.5 17.5t-17.5 42.5t17.5 42.5t42.5 17.5t43 -17.5t18 -42.5t-18 -42.5t-43 -17.5zM432 805q-25 0 -42.5 17.5t-17.5 42.5
t17.5 42.5t42.5 17.5t42.5 -17.5t17.5 -42.5t-17.5 -42.5t-42.5 -17.5z" />
    <glyph glyph-name="Adieresis.calt" unicode="&#xe011;" horiz-adv-x="633" 
d="M173 153l-52 -140q-4 -13 -20 -13h-86q-11 0 -11 9q0 2 2 10l246 652q4 13 19 13h92q14 0 20 -13l243 -652q3 -9 3 -10q0 -9 -12 -9h-88q-16 0 -20 13l-51 140h-285zM430 243l-114 305l-115 -305h229zM211 805q-25 0 -42.5 17.5t-17.5 42.5t17.5 42.5t42.5 17.5t43 -17.5
t18 -42.5t-18 -42.5t-43 -17.5zM421 805q-25 0 -42.5 17.5t-17.5 42.5t17.5 42.5t42.5 17.5t42.5 -17.5t17.5 -42.5t-17.5 -42.5t-42.5 -17.5z" />
    <glyph glyph-name="Agrave.2" unicode="&#xe012;" horiz-adv-x="692" 
d="M346 586q-71 0 -117 -48q-47 -52 -47 -141v-87h328v87q0 90 -48 141q-45 48 -116 48zM622 402v-390q0 -12 -12 -12h-87q-13 0 -13 12v199h-328v-199q0 -12 -13 -12h-87q-12 0 -12 12v390q0 140 92 220q73 68 184 68t184 -68q92 -82 92 -220zM260 968h70q10 0 17 -12
l83 -160q9 -23 -7 -23h-52q-11 0 -19 12l-101 164q-4 6 -1.5 12.5t10.5 6.5z" />
    <glyph glyph-name="Agrave.3" unicode="&#xe013;" horiz-adv-x="649" 
d="M322 592q-98 0 -196 -57q-14 -9 -18 3l-32 70q-5 9 5 16q42 27 108 46.5t142 19.5q133 0 194 -74q55 -64 55 -187v-417q0 -12 -13 -12h-79q-12 0 -12 12v29h-5q-43 -28 -86.5 -39.5t-108.5 -11.5q-87 0 -148 42q-79 54 -79 150q0 111 100 167q99 55 319 66v14
q0 82 -35 121q-36 42 -111 42zM170 187q0 -57 48 -83q42 -21 98 -21q84 0 152 47v198q-152 -8 -219 -38q-79 -34 -79 -103zM240 968h70q10 0 17 -12l83 -160q9 -23 -7 -23h-52q-11 0 -19 12l-101 164q-4 6 -1.5 12.5t10.5 6.5z" />
    <glyph glyph-name="Agrave.calt" unicode="&#xe014;" horiz-adv-x="633" 
d="M173 153l-52 -140q-4 -13 -20 -13h-86q-11 0 -11 9q0 2 2 10l246 652q4 13 19 13h92q14 0 20 -13l243 -652q3 -9 3 -10q0 -9 -12 -9h-88q-16 0 -20 13l-51 140h-285zM430 243l-114 305l-115 -305h229zM221 968h70q10 0 17 -12l83 -160q9 -23 -7 -23h-52q-12 0 -19 12
l-101 164q-4 6 -1.5 12.5t10.5 6.5z" />
    <glyph glyph-name="Amacron.2" unicode="&#xe015;" horiz-adv-x="692" 
d="M346 586q-71 0 -117 -48q-47 -52 -47 -141v-87h328v87q0 90 -48 141q-45 48 -116 48zM622 402v-390q0 -12 -12 -12h-87q-13 0 -13 12v199h-328v-199q0 -12 -13 -12h-87q-12 0 -12 12v390q0 140 92 220q73 68 184 68t184 -68q92 -82 92 -220zM226 917h239q12 0 12 -12v-60
q0 -5 -3.5 -8.5t-8.5 -3.5h-239q-5 0 -9 3.5t-4 8.5v60q0 12 13 12z" />
    <glyph glyph-name="Amacron.3" unicode="&#xe016;" horiz-adv-x="649" 
d="M322 592q-98 0 -196 -57q-14 -9 -18 3l-32 70q-5 9 5 16q42 27 108 46.5t142 19.5q133 0 194 -74q55 -64 55 -187v-417q0 -12 -13 -12h-79q-12 0 -12 12v29h-5q-43 -28 -86.5 -39.5t-108.5 -11.5q-87 0 -148 42q-79 54 -79 150q0 111 100 167q99 55 319 66v14
q0 82 -35 121q-36 42 -111 42zM170 187q0 -57 48 -83q42 -21 98 -21q84 0 152 47v198q-152 -8 -219 -38q-79 -34 -79 -103zM210 917h239q12 0 12 -12v-60q0 -5 -3.5 -8.5t-8.5 -3.5h-239q-5 0 -9 3.5t-4 8.5v60q0 12 13 12z" />
    <glyph glyph-name="Amacron.calt" unicode="&#xe017;" horiz-adv-x="633" 
d="M173 153l-52 -140q-4 -13 -20 -13h-86q-11 0 -11 9q0 2 2 10l246 652q4 13 19 13h92q14 0 20 -13l243 -652q3 -9 3 -10q0 -9 -12 -9h-88q-16 0 -20 13l-51 140h-285zM430 243l-114 305l-115 -305h229zM197 917h239q12 0 12 -12v-60q0 -5 -4 -8.5t-8 -3.5h-239
q-5 0 -9 3.5t-4 8.5v60q0 12 13 12z" />
    <glyph glyph-name="Aogonek.2" unicode="&#xe018;" horiz-adv-x="692" 
d="M428 -116q0 34 24 67t59 54q-1 2 -1 7v199h-328v-199q0 -12 -13 -12h-87q-12 0 -12 12v390q0 140 92 220q73 68 184 68t184 -68q92 -82 92 -220v-390q0 -12 -12 -12h-46q-64 -44 -64 -88q0 -38 43 -38q17 0 33 4.5t19 4.5q8 0 8 -8v-42q0 -9 -7 -12q-37 -15 -73 -15
q-41 0 -68 19t-27 59zM346 586q-71 0 -117 -48q-47 -52 -47 -141v-87h328v87q0 90 -48 141q-45 48 -116 48z" />
    <glyph glyph-name="Aogonek.3" unicode="&#xe019;" horiz-adv-x="649" 
d="M388 -116q0 36 25.5 69t62.5 55v4v29h-5q-43 -28 -86.5 -39.5t-108.5 -11.5q-87 0 -148 42q-79 54 -79 150q0 111 100 167q99 55 319 66v14q0 82 -35 121q-36 42 -111 42q-98 0 -196 -57q-14 -9 -18 3l-32 70q-5 9 5 16q42 27 108 46.5t142 19.5q133 0 194 -74
q55 -64 55 -187v-417q0 -12 -13 -12h-43q-64 -44 -64 -88q0 -38 43 -38q17 0 33 4.5t19 4.5q8 0 8 -8v-42q0 -9 -7 -12q-37 -15 -73 -15q-41 0 -68 19t-27 59zM170 187q0 -57 48 -83q42 -21 98 -21q84 0 152 47v198q-152 -8 -219 -38q-79 -34 -79 -103z" />
    <glyph glyph-name="Aogonek.calt" unicode="&#xe01a;" horiz-adv-x="633" 
d="M427 -116q0 35 25 68t60 54q-2 4 -3 7l-51 140h-285l-52 -140q-4 -13 -20 -13h-86q-11 0 -11 9q0 2 2 10l246 652q4 13 19 13h92q14 0 20 -13l243 -652q3 -9 3 -10q0 -9 -12 -9h-54q-64 -44 -64 -88q0 -38 43 -38q17 0 33 4.5t19 4.5q8 0 8 -8v-42q0 -9 -7 -12
q-37 -15 -73 -15q-41 0 -68 19t-27 59zM430 243l-114 305l-115 -305h229z" />
    <glyph glyph-name="Aring.2" unicode="&#xe01b;" horiz-adv-x="692" 
d="M346 586q-71 0 -117 -48q-47 -52 -47 -141v-87h328v87q0 90 -48 141q-45 48 -116 48zM622 402v-390q0 -12 -12 -12h-87q-13 0 -13 12v199h-328v-199q0 -12 -13 -12h-87q-12 0 -12 12v390q0 140 92 220q73 68 184 68t184 -68q92 -82 92 -220zM464 860q0 -49 -34.5 -83.5
t-83.5 -34.5t-84 34.5t-35 83.5t35 84t84 35t83.5 -35t34.5 -84zM417 860q0 30 -21 51.5t-50 21.5t-50 -21.5t-21 -51.5t21 -51t50 -21t50 21t21 51z" />
    <glyph glyph-name="Aring.3" unicode="&#xe01c;" horiz-adv-x="649" 
d="M322 592q-98 0 -196 -57q-14 -9 -18 3l-32 70q-5 9 5 16q42 27 108 46.5t142 19.5q133 0 194 -74q55 -64 55 -187v-417q0 -12 -13 -12h-79q-12 0 -12 12v29h-5q-43 -28 -86.5 -39.5t-108.5 -11.5q-87 0 -148 42q-79 54 -79 150q0 111 100 167q99 55 319 66v14
q0 82 -35 121q-36 42 -111 42zM170 187q0 -57 48 -83q42 -21 98 -21q84 0 152 47v198q-152 -8 -219 -38q-79 -34 -79 -103zM446 860q0 -49 -34.5 -83.5t-83.5 -34.5t-84 34.5t-35 83.5t35 84t84 35t83.5 -35t34.5 -84zM399 860q0 30 -21 51.5t-50 21.5t-50 -21.5t-21 -51.5
t21 -51t50 -21t50 21t21 51z" />
    <glyph glyph-name="Aring.calt" unicode="&#xe01d;" horiz-adv-x="633" 
d="M173 153l-52 -140q-4 -13 -20 -13h-86q-11 0 -11 9q0 2 2 10l246 652q4 13 19 13h92q14 0 20 -13l243 -652q3 -9 3 -10q0 -9 -12 -9h-88q-16 0 -20 13l-51 140h-285zM430 243l-114 305l-115 -305h229zM434 860q0 -49 -34.5 -83.5t-83.5 -34.5t-84 34.5t-35 83.5t35 84
t84 35t83.5 -35t34.5 -84zM387 860q0 30 -21 51.5t-50 21.5t-50 -21.5t-21 -51.5t21 -51t50 -21t50 21t21 51z" />
    <glyph glyph-name="Asmall.2" unicode="&#xe01e;" horiz-adv-x="595" 
d="M297 456q-59 0 -93 -40q-33 -38 -33 -101v-64h252v64q0 63 -32 101q-35 40 -94 40zM526 320v-308q0 -12 -12 -12h-78q-13 0 -13 12v151h-252v-151q0 -12 -12 -12h-78q-13 0 -13 12v308q0 100 62 165q65 67 167 67q103 0 167 -67q62 -65 62 -165z" />
    <glyph glyph-name="Asmall.3" unicode="&#xe01f;" horiz-adv-x="552" 
d="M263 80q63 0 118 33v139q-112 -4 -162 -24q-61 -24 -61 -73q0 -38 33 -58q28 -17 72 -17zM483 340v-328q0 -12 -12 -12h-67q-12 0 -12 12v19h-5q-66 -39 -152 -39q-71 0 -122 36q-60 45 -60 123q0 99 96 144q75 36 231 40v11q0 57 -24 84q-27 31 -81 31q-71 0 -150 -46
q-14 -9 -18 3l-29 63q-5 10 5 16q87 55 201 55q105 0 156 -61q43 -52 43 -151z" />
    <glyph glyph-name="Asmall.calt" unicode="&#xe020;" horiz-adv-x="527" 
d="M153 119l-39 -106q-4 -13 -20 -13h-77q-11 0 -11 9q0 2 2 10l201 513q4 13 19 13h75q16 0 20 -13l196 -513q2 -6 2 -10q0 -9 -11 -9h-76q-16 0 -20 13l-40 106h-221zM349 199l-84 218l-86 -218h170z" />
    <glyph glyph-name="Asmallacute" unicode="&#xe021;" horiz-adv-x="595" 
d="M297 456q-59 0 -93 -40q-33 -38 -33 -101v-53h252v53q0 63 -32 101q-35 40 -94 40zM526 320v-308q0 -12 -12 -12h-78q-13 0 -13 12v162h-252v-162q0 -12 -12 -12h-78q-13 0 -13 12v308q0 100 62 165q65 67 167 67q103 0 167 -67q62 -65 62 -165zM313 827h70q8 0 11 -6
t-2 -13l-101 -164q-7 -12 -18 -12h-53q-17 0 -7 23l83 160q7 12 17 12z" />
    <glyph glyph-name="Asmallacute.2" unicode="&#xe022;" horiz-adv-x="595" 
d="M297 456q-59 0 -93 -40q-33 -38 -33 -101v-64h252v64q0 63 -32 101q-35 40 -94 40zM526 320v-308q0 -12 -12 -12h-78q-13 0 -13 12v151h-252v-151q0 -12 -12 -12h-78q-13 0 -13 12v308q0 100 62 165q65 67 167 67q103 0 167 -67q62 -65 62 -165zM319 827h70q8 0 11 -6
t-2 -13l-101 -164q-7 -12 -18 -12h-53q-17 0 -7 23l83 160q7 12 17 12z" />
    <glyph glyph-name="Asmallacute.3" unicode="&#xe023;" horiz-adv-x="552" 
d="M263 80q63 0 118 33v139q-112 -4 -162 -24q-61 -24 -61 -73q0 -38 33 -58q28 -17 72 -17zM483 340v-328q0 -12 -12 -12h-67q-12 0 -12 12v19h-5q-66 -39 -152 -39q-71 0 -122 36q-60 45 -60 123q0 99 96 144q75 36 231 40v11q0 57 -24 84q-27 31 -81 31q-71 0 -150 -46
q-14 -9 -18 3l-29 63q-5 10 5 16q87 55 201 55q105 0 156 -61q43 -52 43 -151zM294 827h70q8 0 11 -6t-2 -13l-101 -164q-8 -12 -18 -12h-53q-17 0 -7 23l83 160q7 12 17 12z" />
    <glyph glyph-name="Asmallacute.calt" unicode="&#xe024;" horiz-adv-x="527" 
d="M153 119l-39 -106q-4 -13 -20 -13h-77q-11 0 -11 9q0 2 2 10l201 513q4 13 19 13h75q16 0 20 -13l196 -513q2 -6 2 -10q0 -9 -11 -9h-76q-16 0 -20 13l-40 106h-221zM349 199l-84 218l-86 -218h170zM275 827h70q8 0 11 -6t-2 -13l-101 -164q-7 -12 -18 -12h-53
q-17 0 -7 23l83 160q7 12 17 12z" />
    <glyph glyph-name="Asmallbreve" unicode="&#xe025;" horiz-adv-x="595" 
d="M297 456q-59 0 -93 -40q-33 -38 -33 -101v-53h252v53q0 63 -32 101q-35 40 -94 40zM526 320v-308q0 -12 -12 -12h-78q-13 0 -13 12v162h-252v-162q0 -12 -12 -12h-78q-13 0 -13 12v308q0 100 62 165q65 67 167 67q103 0 167 -67q62 -65 62 -165zM295 713q67 0 75 65
q2 12 14 12h36q15 0 15 -13q0 -58 -37 -98t-103 -40t-103.5 40t-37.5 98q0 13 15 13h37q12 0 14 -12q7 -65 75 -65z" />
    <glyph glyph-name="Asmallbreve.2" unicode="&#xe026;" horiz-adv-x="595" 
d="M297 456q-59 0 -93 -40q-33 -38 -33 -101v-64h252v64q0 63 -32 101q-35 40 -94 40zM526 320v-308q0 -12 -12 -12h-78q-13 0 -13 12v151h-252v-151q0 -12 -12 -12h-78q-13 0 -13 12v308q0 100 62 165q65 67 167 67q103 0 167 -67q62 -65 62 -165zM296 713q67 0 75 65
q1 12 14 12h36q15 0 15 -13q0 -58 -37 -98t-103 -40t-103.5 40t-37.5 98q0 13 15 13h37q13 0 14 -12q7 -65 75 -65z" />
    <glyph glyph-name="Asmallbreve.3" unicode="&#xe027;" horiz-adv-x="552" 
d="M263 80q63 0 118 33v139q-112 -4 -162 -24q-61 -24 -61 -73q0 -38 33 -58q28 -17 72 -17zM483 340v-328q0 -12 -12 -12h-67q-12 0 -12 12v19h-5q-66 -39 -152 -39q-71 0 -122 36q-60 45 -60 123q0 99 96 144q75 36 231 40v11q0 57 -24 84q-27 31 -81 31q-71 0 -150 -46
q-14 -9 -18 3l-29 63q-5 10 5 16q87 55 201 55q105 0 156 -61q43 -52 43 -151zM278 713q67 0 75 65q1 12 14 12h36q15 0 15 -13q0 -58 -37 -98t-103 -40t-103.5 40t-37.5 98q0 13 15 13h37q13 0 14 -12q7 -65 75 -65z" />
    <glyph glyph-name="Asmallbreve.calt" unicode="&#xe028;" horiz-adv-x="527" 
d="M153 119l-39 -106q-4 -13 -20 -13h-77q-11 0 -11 9q0 2 2 10l201 513q4 13 19 13h75q16 0 20 -13l196 -513q2 -6 2 -10q0 -9 -11 -9h-76q-16 0 -20 13l-40 106h-221zM349 199l-84 218l-86 -218h170zM263 713q67 0 75 65q2 12 14 12h36q15 0 15 -13q0 -58 -37 -98
t-103 -40t-103.5 40t-37.5 98q0 13 15 13h37q12 0 14 -12q7 -65 75 -65z" />
    <glyph glyph-name="Asmallcircumflex" unicode="&#xe029;" horiz-adv-x="595" 
d="M297 456q-59 0 -93 -40q-33 -38 -33 -101v-53h252v53q0 63 -32 101q-35 40 -94 40zM526 320v-308q0 -12 -12 -12h-78q-13 0 -13 12v162h-252v-162q0 -12 -12 -12h-78q-13 0 -13 12v308q0 100 62 165q65 67 167 67q103 0 167 -67q62 -65 62 -165zM278 826h36q9 0 18 -9
l149 -168q6 -7 4.5 -12.5t-9.5 -5.5h-65q-12 0 -22 11l-93 103l-92 -103q-11 -11 -22 -11h-65q-8 0 -9.5 5.5t4.5 12.5l149 168q9 9 17 9z" />
    <glyph glyph-name="Asmallcircumflex.2" unicode="&#xe02a;" horiz-adv-x="595" 
d="M297 456q-59 0 -93 -40q-33 -38 -33 -101v-64h252v64q0 63 -32 101q-35 40 -94 40zM526 320v-308q0 -12 -12 -12h-78q-13 0 -13 12v151h-252v-151q0 -12 -12 -12h-78q-13 0 -13 12v308q0 100 62 165q65 67 167 67q103 0 167 -67q62 -65 62 -165zM278 826h36q9 0 18 -9
l149 -168q6 -7 4.5 -12.5t-9.5 -5.5h-65q-12 0 -22 11l-93 103l-92 -103q-11 -11 -22 -11h-65q-8 0 -9.5 5.5t4.5 12.5l149 168q9 9 17 9z" />
    <glyph glyph-name="Asmallcircumflex.3" unicode="&#xe02b;" horiz-adv-x="552" 
d="M263 80q63 0 118 33v139q-112 -4 -162 -24q-61 -24 -61 -73q0 -38 33 -58q28 -17 72 -17zM483 340v-328q0 -12 -12 -12h-67q-12 0 -12 12v19h-5q-66 -39 -152 -39q-71 0 -122 36q-60 45 -60 123q0 99 96 144q75 36 231 40v11q0 57 -24 84q-27 31 -81 31q-71 0 -150 -46
q-14 -9 -18 3l-29 63q-5 10 5 16q87 55 201 55q105 0 156 -61q43 -52 43 -151zM254 826h36q9 0 18 -9l149 -168q6 -7 4.5 -12.5t-9.5 -5.5h-65q-12 0 -22 11l-93 103l-92 -103q-11 -11 -22 -11h-65q-8 0 -9.5 5.5t4.5 12.5l149 168q9 9 17 9z" />
    <glyph glyph-name="Asmallcircumflex.calt" unicode="&#xe02c;" horiz-adv-x="527" 
d="M153 119l-39 -106q-4 -13 -20 -13h-77q-11 0 -11 9q0 2 2 10l201 513q4 13 19 13h75q16 0 20 -13l196 -513q2 -6 2 -10q0 -9 -11 -9h-76q-16 0 -20 13l-40 106h-221zM349 199l-84 218l-86 -218h170zM245 826h36q9 0 18 -9l149 -168q6 -7 4.5 -12.5t-9.5 -5.5h-65
q-12 0 -22 11l-93 103l-92 -103q-11 -11 -22 -11h-65q-8 0 -9.5 5.5t4.5 12.5l149 168q9 9 17 9z" />
    <glyph glyph-name="Asmalldieresis" unicode="&#xe02d;" horiz-adv-x="595" 
d="M297 456q-59 0 -93 -40q-33 -38 -33 -101v-53h252v53q0 63 -32 101q-35 40 -94 40zM526 320v-308q0 -12 -12 -12h-78q-13 0 -13 12v162h-252v-162q0 -12 -12 -12h-78q-13 0 -13 12v308q0 100 62 165q65 67 167 67q103 0 167 -67q62 -65 62 -165zM192 664
q-25 0 -42.5 17.5t-17.5 42.5t17.5 42.5t42.5 17.5t43 -17.5t18 -42.5t-18 -42.5t-43 -17.5zM402 664q-25 0 -42.5 17.5t-17.5 42.5t17.5 42.5t42.5 17.5t42.5 -17.5t17.5 -42.5t-17.5 -42.5t-42.5 -17.5z" />
    <glyph glyph-name="Asmalldieresis.2" unicode="&#xe02e;" horiz-adv-x="595" 
d="M297 456q-59 0 -93 -40q-33 -38 -33 -101v-64h252v64q0 63 -32 101q-35 40 -94 40zM526 320v-308q0 -12 -12 -12h-78q-13 0 -13 12v151h-252v-151q0 -12 -12 -12h-78q-13 0 -13 12v308q0 100 62 165q65 67 167 67q103 0 167 -67q62 -65 62 -165zM192 664
q-25 0 -42.5 17.5t-17.5 42.5t17.5 42.5t42.5 17.5t43 -17.5t18 -42.5t-18 -42.5t-43 -17.5zM402 664q-25 0 -42.5 17.5t-17.5 42.5t17.5 42.5t42.5 17.5t42.5 -17.5t17.5 -42.5t-17.5 -42.5t-42.5 -17.5z" />
    <glyph glyph-name="Asmalldieresis.3" unicode="&#xe02f;" horiz-adv-x="552" 
d="M263 80q63 0 118 33v139q-112 -4 -162 -24q-61 -24 -61 -73q0 -38 33 -58q28 -17 72 -17zM483 340v-328q0 -12 -12 -12h-67q-12 0 -12 12v19h-5q-66 -39 -152 -39q-71 0 -122 36q-60 45 -60 123q0 99 96 144q75 36 231 40v11q0 57 -24 84q-27 31 -81 31q-71 0 -150 -46
q-14 -9 -18 3l-29 63q-5 10 5 16q87 55 201 55q105 0 156 -61q43 -52 43 -151zM167 664q-25 0 -42.5 17.5t-17.5 42.5t17.5 42.5t42.5 17.5t43 -17.5t18 -42.5t-18 -42.5t-43 -17.5zM377 664q-25 0 -42.5 17.5t-17.5 42.5t17.5 42.5t42.5 17.5t42.5 -17.5t17.5 -42.5
t-17.5 -42.5t-42.5 -17.5z" />
    <glyph glyph-name="Asmalldieresis.calt" unicode="&#xe030;" horiz-adv-x="527" 
d="M153 119l-39 -106q-4 -13 -20 -13h-77q-11 0 -11 9q0 2 2 10l201 513q4 13 19 13h75q16 0 20 -13l196 -513q2 -6 2 -10q0 -9 -11 -9h-76q-16 0 -20 13l-40 106h-221zM349 199l-84 218l-86 -218h170zM159 664q-25 0 -42.5 17.5t-17.5 42.5t17.5 42.5t42.5 17.5t43 -17.5
t18 -42.5t-18 -42.5t-43 -17.5zM369 664q-25 0 -42.5 17.5t-17.5 42.5t17.5 42.5t42.5 17.5t42.5 -17.5t17.5 -42.5t-17.5 -42.5t-42.5 -17.5z" />
    <glyph glyph-name="Asmallgrave" unicode="&#xe031;" horiz-adv-x="595" 
d="M297 456q-59 0 -93 -40q-33 -38 -33 -101v-53h252v53q0 63 -32 101q-35 40 -94 40zM526 320v-308q0 -12 -12 -12h-78q-13 0 -13 12v162h-252v-162q0 -12 -12 -12h-78q-13 0 -13 12v308q0 100 62 165q65 67 167 67q103 0 167 -67q62 -65 62 -165zM211 827h70q10 0 17 -12
l83 -160q9 -23 -7 -23h-52q-12 0 -19 12l-101 164q-4 6 -1.5 12.5t10.5 6.5z" />
    <glyph glyph-name="Asmallgrave.2" unicode="&#xe032;" horiz-adv-x="595" 
d="M297 456q-59 0 -93 -40q-33 -38 -33 -101v-64h252v64q0 63 -32 101q-35 40 -94 40zM526 320v-308q0 -12 -12 -12h-78q-13 0 -13 12v151h-252v-151q0 -12 -12 -12h-78q-13 0 -13 12v308q0 100 62 165q65 67 167 67q103 0 167 -67q62 -65 62 -165zM212 827h70q10 0 17 -12
l83 -160q9 -23 -7 -23h-52q-11 0 -19 12l-101 164q-4 6 -1.5 12.5t10.5 6.5z" />
    <glyph glyph-name="Asmallgrave.3" unicode="&#xe033;" horiz-adv-x="552" 
d="M263 80q63 0 118 33v139q-112 -4 -162 -24q-61 -24 -61 -73q0 -38 33 -58q28 -17 72 -17zM483 340v-328q0 -12 -12 -12h-67q-12 0 -12 12v19h-5q-66 -39 -152 -39q-71 0 -122 36q-60 45 -60 123q0 99 96 144q75 36 231 40v11q0 57 -24 84q-27 31 -81 31q-71 0 -150 -46
q-14 -9 -18 3l-29 63q-5 10 5 16q87 55 201 55q105 0 156 -61q43 -52 43 -151zM192 827h70q10 0 17 -12l83 -160q9 -23 -7 -23h-52q-11 0 -19 12l-101 164q-4 6 -1.5 12.5t10.5 6.5z" />
    <glyph glyph-name="Asmallgrave.calt" unicode="&#xe034;" horiz-adv-x="527" 
d="M153 119l-39 -106q-4 -13 -20 -13h-77q-11 0 -11 9q0 2 2 10l201 513q4 13 19 13h75q16 0 20 -13l196 -513q2 -6 2 -10q0 -9 -11 -9h-76q-16 0 -20 13l-40 106h-221zM349 199l-84 218l-86 -218h170zM178 827h70q10 0 17 -12l83 -160q9 -23 -7 -23h-52q-11 0 -19 12
l-101 164q-4 6 -1.5 12.5t10.5 6.5z" />
    <glyph glyph-name="Asmallmacron" unicode="&#xe035;" horiz-adv-x="595" 
d="M297 456q-59 0 -93 -40q-33 -38 -33 -101v-53h252v53q0 63 -32 101q-35 40 -94 40zM526 320v-308q0 -12 -12 -12h-78q-13 0 -13 12v162h-252v-162q0 -12 -12 -12h-78q-13 0 -13 12v308q0 100 62 165q65 67 167 67q103 0 167 -67q62 -65 62 -165zM178 754h239q12 0 12 -12
v-60q0 -4 -3.5 -8t-8.5 -4h-239q-5 0 -9 3.5t-4 8.5v60q0 12 13 12z" />
    <glyph glyph-name="Asmallmacron.2" unicode="&#xe036;" horiz-adv-x="595" 
d="M297 456q-59 0 -93 -40q-33 -38 -33 -101v-64h252v64q0 63 -32 101q-35 40 -94 40zM526 320v-308q0 -12 -12 -12h-78q-13 0 -13 12v151h-252v-151q0 -12 -12 -12h-78q-13 0 -13 12v308q0 100 62 165q65 67 167 67q103 0 167 -67q62 -65 62 -165zM178 754h239q12 0 12 -12
v-60q0 -4 -3.5 -8t-8.5 -4h-239q-5 0 -9 3.5t-4 8.5v60q0 12 13 12z" />
    <glyph glyph-name="Asmallmacron.3" unicode="&#xe037;" horiz-adv-x="552" 
d="M263 80q63 0 118 33v139q-112 -4 -162 -24q-61 -24 -61 -73q0 -38 33 -58q28 -17 72 -17zM483 340v-328q0 -12 -12 -12h-67q-12 0 -12 12v19h-5q-66 -39 -152 -39q-71 0 -122 36q-60 45 -60 123q0 99 96 144q75 36 231 40v11q0 57 -24 84q-27 31 -81 31q-71 0 -150 -46
q-14 -9 -18 3l-29 63q-5 10 5 16q87 55 201 55q105 0 156 -61q43 -52 43 -151zM155 754h239q12 0 12 -12v-60q0 -4 -4 -8t-8 -4h-239q-5 0 -9 3.5t-4 8.5v60q0 12 13 12z" />
    <glyph glyph-name="Asmallmacron.calt" unicode="&#xe038;" horiz-adv-x="527" 
d="M153 119l-39 -106q-4 -13 -20 -13h-77q-11 0 -11 9q0 2 2 10l201 513q4 13 19 13h75q16 0 20 -13l196 -513q2 -6 2 -10q0 -9 -11 -9h-76q-16 0 -20 13l-40 106h-221zM349 199l-84 218l-86 -218h170zM144 754h239q12 0 12 -12v-60q0 -4 -3.5 -8t-8.5 -4h-239q-5 0 -9 3.5
t-4 8.5v60q0 12 13 12z" />
    <glyph glyph-name="Asmallogonek" unicode="&#xe039;" horiz-adv-x="595" 
d="M337 -116q0 35 25.5 68.5t61.5 54.5q-1 2 -1 5v162h-252v-162q0 -12 -12 -12h-78q-13 0 -13 12v308q0 100 62 165q65 67 167 67q103 0 167 -67q62 -65 62 -165v-308q0 -12 -12 -12h-41q-64 -44 -64 -88q0 -38 43 -38q17 0 33 4.5t19 4.5q8 0 8 -8v-42q0 -9 -7 -12
q-37 -15 -73 -15q-41 0 -68 19t-27 59zM297 456q-59 0 -93 -40q-33 -38 -33 -101v-53h252v53q0 63 -32 101q-35 40 -94 40z" />
    <glyph glyph-name="Asmallogonek.2" unicode="&#xe03a;" horiz-adv-x="595" 
d="M337 -116q0 35 25.5 68.5t61.5 54.5q-1 2 -1 5v151h-252v-151q0 -12 -12 -12h-78q-13 0 -13 12v308q0 100 62 165q65 67 167 67q103 0 167 -67q62 -65 62 -165v-308q0 -12 -12 -12h-41q-64 -44 -64 -88q0 -38 43 -38q17 0 33 4.5t19 4.5q8 0 8 -8v-42q0 -9 -7 -12
q-37 -15 -73 -15q-41 0 -68 19t-27 59zM297 456q-59 0 -93 -40q-33 -38 -33 -101v-64h252v64q0 63 -32 101q-35 40 -94 40z" />
    <glyph glyph-name="Asmallogonek.3" unicode="&#xe03b;" horiz-adv-x="552" 
d="M302 -116q0 36 26.5 70t63.5 55v3v19h-5q-66 -39 -152 -39q-71 0 -122 36q-60 45 -60 123q0 99 96 144q75 36 231 40v11q0 57 -24 84q-27 31 -81 31q-71 0 -150 -46q-14 -9 -18 3l-29 63q-5 10 5 16q87 55 201 55q105 0 156 -61q43 -52 43 -151v-328q0 -12 -12 -12h-33
q-64 -44 -64 -88q0 -38 43 -38q17 0 33 4.5t19 4.5q8 0 8 -8v-42q0 -9 -7 -12q-37 -15 -73 -15q-41 0 -68 19t-27 59zM263 80q63 0 118 33v139q-112 -4 -162 -24q-61 -24 -61 -73q0 -38 33 -58q28 -17 72 -17z" />
    <glyph glyph-name="Asmallogonek.calt" unicode="&#xe03c;" horiz-adv-x="527" 
d="M331 -116q0 35 25 67.5t61 55.5q-3 3 -3 6l-40 106h-221l-39 -106q-4 -13 -20 -13h-77q-11 0 -11 9q0 2 2 10l201 513q4 13 19 13h75q16 0 20 -13l196 -513q2 -6 2 -10q0 -9 -11 -9h-43q-64 -44 -64 -88q0 -38 43 -38q17 0 33 4.5t19 4.5q8 0 8 -8v-42q0 -9 -7 -12
q-37 -15 -73 -15q-41 0 -68 19t-27 59zM349 199l-84 218l-86 -218h170z" />
    <glyph glyph-name="Asmallring" unicode="&#xe03d;" horiz-adv-x="595" 
d="M297 456q-59 0 -93 -40q-33 -38 -33 -101v-53h252v53q0 63 -32 101q-35 40 -94 40zM526 320v-308q0 -12 -12 -12h-78q-13 0 -13 12v162h-252v-162q0 -12 -12 -12h-78q-13 0 -13 12v308q0 100 62 165q65 67 167 67q103 0 167 -67q62 -65 62 -165zM415 724
q0 -49 -34.5 -83.5t-83.5 -34.5t-84 34.5t-35 83.5t35 84t84 35t83.5 -35t34.5 -84zM368 724q0 30 -21 51.5t-50 21.5t-50 -21.5t-21 -51.5t21 -51t50 -21t50 21t21 51z" />
    <glyph glyph-name="Asmallring.2" unicode="&#xe03e;" horiz-adv-x="595" 
d="M297 456q-59 0 -93 -40q-33 -38 -33 -101v-64h252v64q0 63 -32 101q-35 40 -94 40zM526 320v-308q0 -12 -12 -12h-78q-13 0 -13 12v151h-252v-151q0 -12 -12 -12h-78q-13 0 -13 12v308q0 100 62 165q65 67 167 67q103 0 167 -67q62 -65 62 -165zM415 724
q0 -49 -34.5 -83.5t-83.5 -34.5t-84 34.5t-35 83.5t35 84t84 35t83.5 -35t34.5 -84zM368 724q0 30 -21 51.5t-50 21.5t-50 -21.5t-21 -51.5t21 -51t50 -21t50 21t21 51z" />
    <glyph glyph-name="Asmallring.3" unicode="&#xe03f;" horiz-adv-x="552" 
d="M263 80q63 0 118 33v139q-112 -4 -162 -24q-61 -24 -61 -73q0 -38 33 -58q28 -17 72 -17zM483 340v-328q0 -12 -12 -12h-67q-12 0 -12 12v19h-5q-66 -39 -152 -39q-71 0 -122 36q-60 45 -60 123q0 99 96 144q75 36 231 40v11q0 57 -24 84q-27 31 -81 31q-71 0 -150 -46
q-14 -9 -18 3l-29 63q-5 10 5 16q87 55 201 55q105 0 156 -61q43 -52 43 -151zM394 724q0 -49 -34.5 -83.5t-83.5 -34.5t-84 34.5t-35 83.5t35 84t84 35t83.5 -35t34.5 -84zM347 724q0 30 -21 51.5t-50 21.5t-50 -21.5t-21 -51.5t21 -51t50 -21t50 21t21 51z" />
    <glyph glyph-name="Asmallring.calt" unicode="&#xe040;" horiz-adv-x="527" 
d="M153 119l-39 -106q-4 -13 -20 -13h-77q-11 0 -11 9q0 2 2 10l201 513q4 13 19 13h75q16 0 20 -13l196 -513q2 -6 2 -10q0 -9 -11 -9h-76q-16 0 -20 13l-40 106h-221zM349 199l-84 218l-86 -218h170zM382 724q0 -49 -34.5 -83.5t-83.5 -34.5t-84 34.5t-35 83.5t35 84
t84 35t83.5 -35t34.5 -84zM335 724q0 30 -21 51.5t-50 21.5t-50 -21.5t-21 -51.5t21 -51t50 -21t50 21t21 51z" />
    <glyph glyph-name="Asmalltilde" unicode="&#xe041;" horiz-adv-x="595" 
d="M297 456q-59 0 -93 -40q-33 -38 -33 -101v-53h252v53q0 63 -32 101q-35 40 -94 40zM526 320v-308q0 -12 -12 -12h-78q-13 0 -13 12v162h-252v-162q0 -12 -12 -12h-78q-13 0 -13 12v308q0 100 62 165q65 67 167 67q103 0 167 -67q62 -65 62 -165zM362 735q36 0 42 37
q3 13 13 13h32q15 0 15 -13q0 -49 -24 -79t-69 -30q-36 0 -79 30q-40 26 -60 26q-36 0 -42 -38q-3 -12 -12 -12h-33q-15 0 -15 13q0 50 24 79.5t69 29.5q39 0 80 -30q39 -26 59 -26z" />
    <glyph glyph-name="Asmalltilde.2" unicode="&#xe042;" horiz-adv-x="595" 
d="M297 456q-59 0 -93 -40q-33 -38 -33 -101v-64h252v64q0 63 -32 101q-35 40 -94 40zM526 320v-308q0 -12 -12 -12h-78q-13 0 -13 12v151h-252v-151q0 -12 -12 -12h-78q-13 0 -13 12v308q0 100 62 165q65 67 167 67q103 0 167 -67q62 -65 62 -165zM362 735q36 0 42 37
q3 13 13 13h32q15 0 15 -13q0 -49 -24 -79t-69 -30q-36 0 -79 30q-40 26 -60 26q-36 0 -42 -38q-3 -12 -12 -12h-33q-15 0 -15 13q0 50 24 79.5t69 29.5q39 0 80 -30q39 -26 59 -26z" />
    <glyph glyph-name="Asmalltilde.3" unicode="&#xe043;" horiz-adv-x="552" 
d="M263 80q63 0 118 33v139q-112 -4 -162 -24q-61 -24 -61 -73q0 -38 33 -58q28 -17 72 -17zM483 340v-328q0 -12 -12 -12h-67q-12 0 -12 12v19h-5q-66 -39 -152 -39q-71 0 -122 36q-60 45 -60 123q0 99 96 144q75 36 231 40v11q0 57 -24 84q-27 31 -81 31q-71 0 -150 -46
q-14 -9 -18 3l-29 63q-5 10 5 16q87 55 201 55q105 0 156 -61q43 -52 43 -151zM339 735q36 0 42 37q3 13 13 13h32q15 0 15 -13q0 -49 -24 -79t-69 -30q-36 0 -79 30q-40 26 -60 26q-36 0 -42 -38q-3 -12 -12 -12h-33q-15 0 -15 13q0 50 24 79.5t69 29.5q39 0 80 -30
q39 -26 59 -26z" />
    <glyph glyph-name="Asmalltilde.calt" unicode="&#xe044;" horiz-adv-x="527" 
d="M153 119l-39 -106q-4 -13 -20 -13h-77q-11 0 -11 9q0 2 2 10l201 513q4 13 19 13h75q16 0 20 -13l196 -513q2 -6 2 -10q0 -9 -11 -9h-76q-16 0 -20 13l-40 106h-221zM349 199l-84 218l-86 -218h170zM329 735q36 0 42 37q3 13 13 13h32q15 0 15 -13q0 -49 -24 -79t-69 -30
q-36 0 -79 30q-40 26 -60 26q-36 0 -42 -38q-3 -12 -12 -12h-33q-15 0 -15 13q0 50 24 79.5t69 29.5q39 0 80 -30q39 -26 59 -26z" />
    <glyph glyph-name="Atilde.2" unicode="&#xe045;" horiz-adv-x="692" 
d="M346 586q-71 0 -117 -48q-47 -52 -47 -141v-87h328v87q0 90 -48 141q-45 48 -116 48zM622 402v-390q0 -12 -12 -12h-87q-13 0 -13 12v199h-328v-199q0 -12 -13 -12h-87q-12 0 -12 12v390q0 140 92 220q73 68 184 68t184 -68q92 -82 92 -220zM410 892q36 0 42 37
q3 13 13 13h32q15 0 15 -13q0 -49 -24 -79t-69 -30q-36 0 -79 30q-40 26 -60 26q-36 0 -42 -38q-3 -12 -12 -12h-33q-15 0 -15 13q0 50 24 79.5t69 29.5q39 0 80 -30q39 -26 59 -26z" />
    <glyph glyph-name="Atilde.3" unicode="&#xe046;" horiz-adv-x="649" 
d="M322 592q-98 0 -196 -57q-14 -9 -18 3l-32 70q-5 9 5 16q42 27 108 46.5t142 19.5q133 0 194 -74q55 -64 55 -187v-417q0 -12 -13 -12h-79q-12 0 -12 12v29h-5q-43 -28 -86.5 -39.5t-108.5 -11.5q-87 0 -148 42q-79 54 -79 150q0 111 100 167q99 55 319 66v14
q0 82 -35 121q-36 42 -111 42zM170 187q0 -57 48 -83q42 -21 98 -21q84 0 152 47v198q-152 -8 -219 -38q-79 -34 -79 -103zM385 893q36 0 42 37q3 13 13 13h32q15 0 15 -13q0 -49 -24 -79t-69 -30q-36 0 -79 30q-40 26 -60 26q-36 0 -42 -38q-3 -12 -12 -12h-33
q-15 0 -15 13q0 50 24 79.5t69 29.5q39 0 80 -30q39 -26 59 -26z" />
    <glyph glyph-name="Atilde.calt" unicode="&#xe047;" horiz-adv-x="633" 
d="M173 153l-52 -140q-4 -13 -20 -13h-86q-11 0 -11 9q0 2 2 10l246 652q4 13 19 13h92q14 0 20 -13l243 -652q3 -9 3 -10q0 -9 -12 -9h-88q-16 0 -20 13l-51 140h-285zM430 243l-114 305l-115 -305h229zM381 893q36 0 42 37q3 13 13 13h32q15 0 15 -13q0 -49 -24 -79
t-69 -30q-36 0 -79 30q-40 26 -60 26q-36 0 -42 -38q-3 -12 -12 -12h-33q-15 0 -15 13q0 50 24 79.5t69 29.5q39 0 80 -30q39 -26 59 -26z" />
    <glyph glyph-name="B.2" unicode="&#xe048;" horiz-adv-x="668" 
d="M623 183q0 -89 -66.5 -136t-160.5 -47h-313q-12 0 -12 12v656q0 5 3.5 9t8.5 4h257q100 0 157 -40q70 -48 70 -133q0 -108 -89 -148v-4q72 -14 108.5 -59t36.5 -114zM454 490q0 54 -42 81q-29 19 -71 19h-158v-199h148q50 0 76 13q47 24 47 86zM509 197q0 62 -54 88
q-30 16 -107 16h-165v-210h189q47 0 76 12q61 25 61 94z" />
    <glyph glyph-name="Bsmall.2" unicode="&#xe049;" horiz-adv-x="565" 
d="M346 0h-265q-13 0 -13 12v519q0 13 13 13h218q80 0 127 -32q56 -39 56 -107q0 -86 -71 -117v-4q116 -22 116 -137q0 -73 -53 -110t-128 -37zM380 386q0 40 -33 60q-23 13 -56 13h-120v-143h111q43 0 60 8q38 19 38 62zM422 162q0 45 -43 66q-24 12 -86 12h-122v-156h141
q39 0 62 9q48 19 48 69z" />
    <glyph glyph-name="C.2" unicode="&#xe04a;" horiz-adv-x="698" 
d="M664 527q0 -48 -31 -80.5t-88 -39.5q-14 0 -16 7l-27 52q-5 11 8 15q42 9 42 41q0 26 -29 44q-38 25 -106 25q-123 0 -196 -84q-61 -67 -61 -166q0 -111 70 -181q71 -69 185 -69q101 0 190 50q12 7 17 -5l34 -72q5 -11 -5 -16q-101 -58 -232 -58q-176 0 -277 98
q-98 95 -98 253q0 138 90 234q50 55 123.5 85t158.5 30q128 0 198 -57q50 -42 50 -106z" />
    <glyph glyph-name="Cacute.2" unicode="&#xe04b;" horiz-adv-x="698" 
d="M664 527q0 -48 -31 -80.5t-88 -39.5q-14 0 -16 7l-27 52q-5 11 8 15q42 9 42 41q0 26 -29 44q-38 25 -106 25q-123 0 -196 -84q-61 -67 -61 -166q0 -111 70 -181q71 -69 185 -69q101 0 190 50q12 7 17 -5l34 -72q5 -11 -5 -16q-101 -58 -232 -58q-176 0 -277 98
q-98 95 -98 253q0 138 90 234q50 55 123.5 85t158.5 30q128 0 198 -57q50 -42 50 -106zM418 968h70q8 0 11 -6t-2 -13l-101 -164q-8 -12 -18 -12h-53q-17 0 -7 23l83 160q7 12 17 12z" />
    <glyph glyph-name="Ccaron.2" unicode="&#xe04c;" horiz-adv-x="698" 
d="M664 527q0 -48 -31 -80.5t-88 -39.5q-14 0 -16 7l-27 52q-5 11 8 15q42 9 42 41q0 26 -29 44q-38 25 -106 25q-123 0 -196 -84q-61 -67 -61 -166q0 -111 70 -181q71 -69 185 -69q101 0 190 50q12 7 17 -5l34 -72q5 -11 -5 -16q-101 -58 -232 -58q-176 0 -277 98
q-98 95 -98 253q0 138 90 234q50 55 123.5 85t158.5 30q128 0 198 -57q50 -42 50 -106zM416 773h-36q-8 0 -17 9l-149 168q-6 6 -4.5 12t9.5 6h65q11 0 22 -12l92 -102l93 102q9 12 22 12h65q8 0 9.5 -6t-4.5 -12l-149 -168q-9 -9 -18 -9z" />
    <glyph glyph-name="Ccedilla.2" unicode="&#xe04d;" horiz-adv-x="698" 
d="M532 -112q0 -50 -41 -72t-96 -22q-23 0 -41 3q-10 2 -10 11v30q0 10 10 10q4 0 16 -1t21 -1q71 0 71 45q0 37 -59 37q-13 0 -23 -1l6 64q-155 9 -244 97q-98 95 -98 253q0 138 90 234q50 55 123.5 85t158.5 30q128 0 198 -57q50 -42 50 -106q0 -48 -31 -80.5t-88 -39.5
q-14 0 -16 7l-27 52q-5 11 8 15q42 9 42 41q0 26 -29 44q-38 25 -106 25q-123 0 -196 -84q-61 -67 -61 -166q0 -111 70 -181q71 -69 185 -69q101 0 190 50q12 7 17 -5l34 -72q5 -11 -5 -16q-91 -53 -210 -57v-23q42 -4 66.5 -25.5t24.5 -54.5z" />
    <glyph glyph-name="Csmall.2" unicode="&#xe04e;" horiz-adv-x="547" 
d="M337 459q-90 0 -146 -67q-43 -49 -43 -119q0 -82 54 -134t135 -52q79 0 143 38q10 7 16 -4l31 -65q5 -10 -5 -17q-80 -47 -183 -47q-130 0 -214 76q-84 78 -84 205q0 104 69 181q41 46 99.5 72t124.5 26q98 0 151 -47q42 -36 42 -89q0 -88 -97 -102q-11 0 -16 7l-19 37
q-4 9 8 15q32 6 32 32q0 19 -20 34q-29 20 -78 20z" />
    <glyph glyph-name="Csmallacute" unicode="&#xe04f;" horiz-adv-x="529" 
d="M333 87q68 0 130 36q10 7 16 -4l31 -64q6 -12 -5 -17q-75 -46 -176 -46q-125 0 -205 77q-83 78 -83 204q0 103 71 182q41 45 98 71t120 26q98 0 170 -43q10 -4 6 -17l-32 -64q-4 -11 -16 -4q-60 34 -123 34q-91 0 -145 -67q-42 -52 -42 -118q0 -81 53 -134
q52 -52 132 -52zM319 827h70q8 0 11 -6t-2 -13l-101 -164q-7 -12 -18 -12h-53q-17 0 -7 23l83 160q7 12 17 12z" />
    <glyph glyph-name="Csmallacute.2" unicode="&#xe050;" horiz-adv-x="547" 
d="M337 459q-90 0 -146 -67q-43 -49 -43 -119q0 -82 54 -134t135 -52q79 0 143 38q10 7 16 -4l31 -65q5 -10 -5 -17q-80 -47 -183 -47q-130 0 -214 76q-84 78 -84 205q0 104 69 181q41 46 99.5 72t124.5 26q98 0 151 -47q42 -36 42 -89q0 -88 -97 -102q-11 0 -16 7l-19 37
q-4 9 8 15q32 6 32 32q0 19 -20 34q-29 20 -78 20zM340 827h70q8 0 11 -6t-2 -13l-101 -164q-8 -12 -18 -12h-53q-17 0 -7 23l83 160q7 12 17 12z" />
    <glyph glyph-name="Csmallcaron" unicode="&#xe051;" horiz-adv-x="529" 
d="M333 87q68 0 130 36q10 7 16 -4l31 -64q6 -12 -5 -17q-75 -46 -176 -46q-125 0 -205 77q-83 78 -83 204q0 103 71 182q41 45 98 71t120 26q98 0 170 -43q10 -4 6 -17l-32 -64q-4 -11 -16 -4q-60 34 -123 34q-91 0 -145 -67q-42 -52 -42 -118q0 -81 53 -134
q52 -52 132 -52zM333 631h-36q-8 0 -17 9l-149 168q-6 6 -4.5 12t9.5 6h65q11 0 22 -12l92 -102l93 102q9 12 22 12h65q8 0 9.5 -6t-4.5 -12l-149 -168q-9 -9 -18 -9z" />
    <glyph glyph-name="Csmallcaron.2" unicode="&#xe052;" horiz-adv-x="547" 
d="M337 459q-90 0 -146 -67q-43 -49 -43 -119q0 -82 54 -134t135 -52q79 0 143 38q10 7 16 -4l31 -65q5 -10 -5 -17q-80 -47 -183 -47q-130 0 -214 76q-84 78 -84 205q0 104 69 181q41 46 99.5 72t124.5 26q98 0 151 -47q42 -36 42 -89q0 -88 -97 -102q-11 0 -16 7l-19 37
q-4 9 8 15q32 6 32 32q0 19 -20 34q-29 20 -78 20zM342 631h-36q-8 0 -17 9l-149 168q-6 6 -4.5 12t9.5 6h65q11 0 22 -12l92 -102l93 102q9 12 22 12h65q8 0 9.5 -6t-4.5 -12l-149 -168q-9 -9 -18 -9z" />
    <glyph glyph-name="Csmallcedilla" unicode="&#xe053;" horiz-adv-x="529" 
d="M434 -112q0 -50 -41 -72t-96 -22q-23 0 -41 3q-10 2 -10 11v30q0 10 10 10q4 0 16 -1t21 -1q71 0 71 45q0 37 -59 37q-13 0 -23 -1l6 68q-99 11 -164 74q-83 78 -83 204q0 103 71 182q41 45 98 71t120 26q98 0 170 -43q10 -4 6 -17l-32 -64q-4 -11 -16 -4q-60 34 -123 34
q-91 0 -145 -67q-42 -52 -42 -118q0 -81 53 -134q52 -52 132 -52q68 0 130 36q10 7 16 -4l31 -64q6 -12 -5 -17q-70 -43 -162 -46v-24q42 -4 66.5 -25.5t24.5 -54.5z" />
    <glyph glyph-name="Csmallcedilla.2" unicode="&#xe054;" horiz-adv-x="547" 
d="M448 -112q0 -50 -41 -72t-96 -22q-23 0 -41 3q-10 2 -10 11v30q0 10 10 10q4 0 16 -1t21 -1q71 0 71 45q0 37 -59 37q-13 0 -23 -1l6 67q-106 9 -177 74q-84 78 -84 205q0 104 69 181q41 46 99.5 72t124.5 26q98 0 151 -47q42 -36 42 -89q0 -88 -97 -102q-11 0 -16 7
l-19 37q-4 9 8 15q32 6 32 32q0 19 -20 34q-29 20 -78 20q-90 0 -146 -67q-43 -49 -43 -119q0 -82 54 -134t135 -52q79 0 143 38q10 7 16 -4l31 -65q5 -10 -5 -17q-72 -42 -165 -46v-25q42 -4 66.5 -25.5t24.5 -54.5z" />
    <glyph glyph-name="Dsmallcaron" unicode="&#xe055;" horiz-adv-x="615" 
d="M269 0h-188q-13 0 -13 12v519q0 13 13 13h200q146 0 226 -85q64 -71 64 -188q0 -163 -122 -232q-69 -39 -180 -39zM171 455v-367h93q70 0 117 24q85 43 85 159q0 82 -43 128q-51 56 -155 56h-97zM311 631h-36q-8 0 -17 9l-149 168q-6 6 -4.5 12t9.5 6h65q11 0 22 -12
l92 -102l93 102q9 12 22 12h65q8 0 9.5 -6t-4.5 -12l-149 -168q-9 -9 -18 -9z" />
    <glyph glyph-name="E.1" unicode="&#xe056;" horiz-adv-x="574" 
d="M525 582h-182q-94 0 -137 -47q-35 -38 -35 -127v-16h301q12 0 12 -12v-74q0 -5 -3.5 -9t-8.5 -4h-301v-20q0 -88 35 -128q43 -46 137 -46h182q5 0 8.5 -3.5t3.5 -8.5v-75q0 -12 -12 -12h-185q-146 0 -214 72q-39 41 -53.5 98t-14.5 137v67q0 79 14.5 136t53.5 99
q68 72 214 72h185q5 0 8.5 -4t3.5 -9v-74q0 -12 -12 -12z" />
    <glyph glyph-name="E.2" unicode="&#xe057;" horiz-adv-x="636" 
d="M83 681h504q12 0 12 -13v-74q0 -12 -12 -12h-404v-236h352q12 0 12 -12v-75q0 -12 -12 -12h-352v-148h404q12 0 12 -12v-75q0 -12 -12 -12h-504q-12 0 -12 12v656q0 5 3.5 9t8.5 4z" />
    <glyph glyph-name="E.3" unicode="&#xe058;" horiz-adv-x="726" 
d="M170 400h398q-6 84 -58.5 136.5t-135.5 52.5t-137.5 -51.5t-66.5 -137.5zM44 348q0 151 93 247q91 94 236 94q164 0 248 -113q63 -82 66 -209q0 -5 -2 -49q-1 -13 -14 -13h-500q8 -100 70 -156q64 -58 159 -58q117 0 207 61q14 9 18 -3l33 -72q5 -10 -5 -16
q-117 -71 -257 -71q-164 0 -258 97q-94 95 -94 261z" />
    <glyph glyph-name="Eacute.1" unicode="&#xe059;" horiz-adv-x="574" 
d="M525 582h-182q-94 0 -137 -47q-35 -38 -35 -127v-16h301q12 0 12 -12v-74q0 -5 -3.5 -9t-8.5 -4h-301v-20q0 -88 35 -128q43 -46 137 -46h182q5 0 8.5 -3.5t3.5 -8.5v-75q0 -12 -12 -12h-185q-146 0 -214 72q-39 41 -53.5 98t-14.5 137v67q0 79 14.5 136t53.5 99
q68 72 214 72h185q5 0 8.5 -4t3.5 -9v-74q0 -12 -12 -12zM339 968h70q8 0 11 -6t-2 -13l-101 -164q-7 -12 -18 -12h-53q-17 0 -7 23l83 160q7 12 17 12z" />
    <glyph glyph-name="Eacute.2" unicode="&#xe05a;" horiz-adv-x="636" 
d="M83 681h504q12 0 12 -13v-74q0 -12 -12 -12h-404v-236h352q12 0 12 -12v-75q0 -12 -12 -12h-352v-148h404q12 0 12 -12v-75q0 -12 -12 -12h-504q-12 0 -12 12v656q0 5 3.5 9t8.5 4zM366 968h70q8 0 11 -6t-2 -13l-101 -164q-8 -12 -18 -12h-53q-17 0 -7 23l83 160
q7 12 17 12z" />
    <glyph glyph-name="Eacute.3" unicode="&#xe05b;" horiz-adv-x="726" 
d="M170 400h398q-6 84 -58.5 136.5t-135.5 52.5t-137.5 -51.5t-66.5 -137.5zM44 348q0 151 93 247q91 94 236 94q164 0 248 -113q63 -82 66 -209q0 -5 -2 -49q-1 -13 -14 -13h-500q8 -100 70 -156q64 -58 159 -58q117 0 207 61q14 9 18 -3l33 -72q5 -10 -5 -16
q-117 -71 -257 -71q-164 0 -258 97q-94 95 -94 261zM394 968h70q8 0 11 -6t-2 -13l-101 -164q-8 -12 -18 -12h-53q-17 0 -7 23l83 160q7 12 17 12z" />
    <glyph glyph-name="Ecaron.1" unicode="&#xe05c;" horiz-adv-x="574" 
d="M525 582h-182q-94 0 -137 -47q-35 -38 -35 -127v-16h301q12 0 12 -12v-74q0 -5 -3.5 -9t-8.5 -4h-301v-20q0 -88 35 -128q43 -46 137 -46h182q5 0 8.5 -3.5t3.5 -8.5v-75q0 -12 -12 -12h-185q-146 0 -214 72q-39 41 -53.5 98t-14.5 137v67q0 79 14.5 136t53.5 99
q68 72 214 72h185q5 0 8.5 -4t3.5 -9v-74q0 -12 -12 -12zM358 773h-36q-8 0 -17 9l-149 168q-6 6 -4.5 12t9.5 6h65q11 0 22 -12l92 -102l93 102q9 12 22 12h65q8 0 9.5 -6t-4.5 -12l-149 -168q-9 -9 -18 -9z" />
    <glyph glyph-name="Ecaron.2" unicode="&#xe05d;" horiz-adv-x="636" 
d="M83 681h504q12 0 12 -13v-74q0 -12 -12 -12h-404v-236h352q12 0 12 -12v-75q0 -12 -12 -12h-352v-148h404q12 0 12 -12v-75q0 -12 -12 -12h-504q-12 0 -12 12v656q0 5 3.5 9t8.5 4zM368 773h-36q-8 0 -17 9l-149 168q-6 6 -4.5 12t9.5 6h65q11 0 22 -12l92 -102l93 102
q9 12 22 12h65q8 0 9.5 -6t-4.5 -12l-149 -168q-9 -9 -18 -9z" />
    <glyph glyph-name="Ecaron.3" unicode="&#xe05e;" horiz-adv-x="726" 
d="M170 400h398q-6 84 -58.5 136.5t-135.5 52.5t-137.5 -51.5t-66.5 -137.5zM44 348q0 151 93 247q91 94 236 94q164 0 248 -113q63 -82 66 -209q0 -5 -2 -49q-1 -13 -14 -13h-500q8 -100 70 -156q64 -58 159 -58q117 0 207 61q14 9 18 -3l33 -72q5 -10 -5 -16
q-117 -71 -257 -71q-164 0 -258 97q-94 95 -94 261zM396 773h-36q-8 0 -17 9l-149 168q-6 6 -4.5 12t9.5 6h65q11 0 22 -12l92 -102l93 102q9 12 22 12h65q8 0 9.5 -6t-4.5 -12l-149 -168q-9 -9 -18 -9z" />
    <glyph glyph-name="Ecircumflex.1" unicode="&#xe05f;" horiz-adv-x="574" 
d="M525 582h-182q-94 0 -137 -47q-35 -38 -35 -127v-16h301q12 0 12 -12v-74q0 -5 -3.5 -9t-8.5 -4h-301v-20q0 -88 35 -128q43 -46 137 -46h182q5 0 8.5 -3.5t3.5 -8.5v-75q0 -12 -12 -12h-185q-146 0 -214 72q-39 41 -53.5 98t-14.5 137v67q0 79 14.5 136t53.5 99
q68 72 214 72h185q5 0 8.5 -4t3.5 -9v-74q0 -12 -12 -12zM303 968h36q9 0 18 -9l149 -168q6 -7 4.5 -12.5t-9.5 -5.5h-65q-12 0 -22 11l-93 103l-92 -103q-11 -11 -22 -11h-65q-8 0 -9.5 5.5t4.5 12.5l149 168q9 9 17 9z" />
    <glyph glyph-name="Ecircumflex.2" unicode="&#xe060;" horiz-adv-x="636" 
d="M83 681h504q12 0 12 -13v-74q0 -12 -12 -12h-404v-236h352q12 0 12 -12v-75q0 -12 -12 -12h-352v-148h404q12 0 12 -12v-75q0 -12 -12 -12h-504q-12 0 -12 12v656q0 5 3.5 9t8.5 4zM321 968h36q9 0 18 -9l149 -168q6 -7 4.5 -12.5t-9.5 -5.5h-65q-12 0 -22 11l-93 103
l-92 -103q-11 -11 -22 -11h-65q-8 0 -9.5 5.5t4.5 12.5l149 168q9 9 17 9z" />
    <glyph glyph-name="Ecircumflex.3" unicode="&#xe061;" horiz-adv-x="726" 
d="M170 400h398q-6 84 -58.5 136.5t-135.5 52.5t-137.5 -51.5t-66.5 -137.5zM44 348q0 151 93 247q91 94 236 94q164 0 248 -113q63 -82 66 -209q0 -5 -2 -49q-1 -13 -14 -13h-500q8 -100 70 -156q64 -58 159 -58q117 0 207 61q14 9 18 -3l33 -72q5 -10 -5 -16
q-117 -71 -257 -71q-164 0 -258 97q-94 95 -94 261zM361 968h36q9 0 18 -9l149 -168q6 -7 4.5 -12.5t-9.5 -5.5h-65q-12 0 -22 11l-93 103l-92 -103q-11 -11 -22 -11h-65q-8 0 -9.5 5.5t4.5 12.5l149 168q9 9 17 9z" />
    <glyph glyph-name="Edieresis.1" unicode="&#xe062;" horiz-adv-x="574" 
d="M525 582h-182q-94 0 -137 -47q-35 -38 -35 -127v-16h301q12 0 12 -12v-74q0 -5 -3.5 -9t-8.5 -4h-301v-20q0 -88 35 -128q43 -46 137 -46h182q5 0 8.5 -3.5t3.5 -8.5v-75q0 -12 -12 -12h-185q-146 0 -214 72q-39 41 -53.5 98t-14.5 137v67q0 79 14.5 136t53.5 99
q68 72 214 72h185q5 0 8.5 -4t3.5 -9v-74q0 -12 -12 -12zM210 805q-25 0 -42.5 17.5t-17.5 42.5t17.5 42.5t42.5 17.5t43 -17.5t18 -42.5t-18 -42.5t-43 -17.5zM420 805q-25 0 -42.5 17.5t-17.5 42.5t17.5 42.5t42.5 17.5t42.5 -17.5t17.5 -42.5t-17.5 -42.5t-42.5 -17.5z
" />
    <glyph glyph-name="Edieresis.2" unicode="&#xe063;" horiz-adv-x="636" 
d="M83 681h504q12 0 12 -13v-74q0 -12 -12 -12h-404v-236h352q12 0 12 -12v-75q0 -12 -12 -12h-352v-148h404q12 0 12 -12v-75q0 -12 -12 -12h-504q-12 0 -12 12v656q0 5 3.5 9t8.5 4zM238 805q-25 0 -42.5 17.5t-17.5 42.5t17.5 42.5t42.5 17.5t43 -17.5t18 -42.5
t-18 -42.5t-43 -17.5zM448 805q-25 0 -42.5 17.5t-17.5 42.5t17.5 42.5t42.5 17.5t42.5 -17.5t17.5 -42.5t-17.5 -42.5t-42.5 -17.5z" />
    <glyph glyph-name="Edieresis.3" unicode="&#xe064;" horiz-adv-x="726" 
d="M170 400h398q-6 84 -58.5 136.5t-135.5 52.5t-137.5 -51.5t-66.5 -137.5zM44 348q0 151 93 247q91 94 236 94q164 0 248 -113q63 -82 66 -209q0 -5 -2 -49q-1 -13 -14 -13h-500q8 -100 70 -156q64 -58 159 -58q117 0 207 61q14 9 18 -3l33 -72q5 -10 -5 -16
q-117 -71 -257 -71q-164 0 -258 97q-94 95 -94 261zM270 805q-25 0 -42.5 17.5t-17.5 42.5t17.5 42.5t42.5 17.5t43 -17.5t18 -42.5t-18 -42.5t-43 -17.5zM480 805q-25 0 -42.5 17.5t-17.5 42.5t17.5 42.5t42.5 17.5t42.5 -17.5t17.5 -42.5t-17.5 -42.5t-42.5 -17.5z" />
    <glyph glyph-name="Edotaccent.1" unicode="&#xe065;" horiz-adv-x="574" 
d="M525 582h-182q-94 0 -137 -47q-35 -38 -35 -127v-16h301q12 0 12 -12v-74q0 -5 -3.5 -9t-8.5 -4h-301v-20q0 -88 35 -128q43 -46 137 -46h182q5 0 8.5 -3.5t3.5 -8.5v-75q0 -12 -12 -12h-185q-146 0 -214 72q-39 41 -53.5 98t-14.5 137v67q0 79 14.5 136t53.5 99
q68 72 214 72h185q5 0 8.5 -4t3.5 -9v-74q0 -12 -12 -12zM335 810q-25 0 -42.5 17.5t-17.5 42.5t17.5 42.5t42.5 17.5t42.5 -17.5t17.5 -42.5t-17.5 -42.5t-42.5 -17.5z" />
    </font>
</defs>
</svg>
